<svg width="40" height="40" fill="none" xmlns="http://www.w3.org/2000/svg"><path fill-rule="evenodd" clip-rule="evenodd" d="M33.367 15.124c.65 0 1.254.3 1.657.825.395.515.54 1.176.4 1.816L32.289 31.98c-.218.992-1.064 1.686-2.056 1.686h-19.99c-.992 0-1.837-.694-2.056-1.686L5.053 17.765a2.194 2.194 0 01.4-1.816 2.077 2.077 0 011.656-.825h5.87l3.182-7.568a.88.88 0 011.175-.478.941.941 0 01.461 1.22l-2.87 6.826h10.622l-2.87-6.825a.941.941 0 01.46-1.221.88.88 0 011.176.478l3.183 7.568h5.87zM10.243 31.812h19.99a.321.321 0 00.316-.245l3.134-14.216a.291.291 0 00-.056-.246.32.32 0 00-.26-.127h-5.09l.235.556a.941.941 0 01-.461 1.221.86.86 0 01-.357.078.892.892 0 01-.819-.556l-.546-1.299H14.147l-.546 1.298a.892.892 0 01-.819.557.86.86 0 01-.357-.078.941.941 0 01-.46-1.22l.233-.557H7.11a.32.32 0 00-.26.127.29.29 0 00-.056.246l3.135 14.216a.321.321 0 00.315.245zm3.745-9.89c0-.511.4-.926.893-.926s.893.415.893.927v6.799c0 .512-.4.927-.893.927s-.893-.415-.893-.927v-6.8zm6.25-.926c-.493 0-.893.415-.893.927v6.799c0 .512.4.927.893.927s.893-.415.893-.927v-6.8c0-.511-.4-.926-.893-.926zm4.465.927c0-.512.4-.927.893-.927s.892.415.892.927v6.799c0 .512-.4.927-.892.927-.494 0-.893-.415-.893-.927v-6.8z" fill="#fff"/></svg>