<svg width="32" height="32" fill="#263A73" xmlns="http://www.w3.org/2000/svg"><path d="M27.77 18.956a2.97 2.97 0 00.488-2.63l-2.458-8.6a3.013 3.013 0 00-2.884-2.176h-11.91a.988.988 0 00-.98-.9h-5.4a1 1 0 00-1 1v14.4a1 1 0 001 1h5.4a.988.988 0 00.98-.9h1.06c.458 0 .858.312.968.756l1.066 4.262a2.88 2.88 0 005.654-1.056l-.356-2.836a.986.986 0 01.244-.788.984.984 0 01.748-.338h4.982a2.98 2.98 0 002.398-1.194zM5.624 6.65h3.4v12.4h-3.4V6.65zm20.548 11.102a.994.994 0 01-.798.398h-4.982a3 3 0 00-2.976 3.372l.356 2.836a.874.874 0 01-.214.694c-.44.494-1.358.272-1.518-.368l-1.064-4.26a2.999 2.999 0 00-2.912-2.274h-1.04V7.55h11.89c.444 0 .84.298.962.726l2.458 8.6a.982.982 0 01-.162.876z" fill="#75C239" fill-opacity="1"/></svg>