<svg width="24" height="24" fill="none" xmlns="http://www.w3.org/2000/svg"><path d="M12 3c-4.98 0-9 4.02-9 9 0 3.84 2.4 7.08 5.7 8.4-.06-.72-.12-1.8.06-2.58.18-.72 1.08-4.5 1.08-4.5S9.6 12.78 9.6 12c0-1.26.72-2.16 1.62-2.16.78 0 1.14.6 1.14 1.26 0 .78-.48 1.92-.72 3-.24.9.42 1.62 1.32 1.62 1.62 0 2.82-1.68 2.82-4.14 0-2.16-1.56-3.66-3.78-3.66-2.58 0-4.08 1.92-4.08 3.9 0 .78.3 1.62.66 2.04.06.06.06.18.06.24-.06.3-.24.9-.24 1.02-.06.18-.12.18-.3.12-1.14-.54-1.8-2.16-1.8-3.48 0-2.82 2.04-5.46 5.94-5.46 3.12 0 5.52 2.22 5.52 5.22 0 3.12-1.98 5.58-4.68 5.58-.9 0-1.74-.48-2.04-1.02 0 0-.48 1.74-.54 2.16-.18.78-.78 1.74-1.14 2.34.84.3 1.74.42 2.64.42 4.98 0 9-4.02 9-9s-4.02-9-9-9z" fill="#fff"/></svg>