<svg width="24" height="24" fill="none" xmlns="http://www.w3.org/2000/svg"><path d="M21 6.703a7.463 7.463 0 01-2.12.573 3.663 3.663 0 001.623-2.01 7.513 7.513 0 01-2.346.882A3.708 3.708 0 0015.46 5c-2.039 0-3.692 1.629-3.692 3.636 0 .284.032.563.095.828a10.537 10.537 0 01-7.61-3.799 3.568 3.568 0 00-.499 1.827 3.618 3.618 0 001.642 3.027 3.736 3.736 0 01-1.673-.457v.046c0 1.762 1.274 3.231 2.962 3.566a3.792 3.792 0 01-.973.127c-.238 0-.47-.022-.695-.067a3.688 3.688 0 003.449 2.526 7.48 7.48 0 01-4.586 1.554c-.299 0-.592-.018-.881-.05A10.553 10.553 0 008.66 19.4c6.792 0 10.506-5.541 10.506-10.346l-.013-.471A7.313 7.313 0 0021 6.703z" fill="#fff"/></svg>