<svg width="32" height="32" fill="none" xmlns="http://www.w3.org/2000/svg"><path d="M3.624 11.95v14.4a1 1 0 001 1h5.4a.988.988 0 00.98-.9h11.91a3.011 3.011 0 002.884-2.176l2.458-8.598a2.969 2.969 0 00-.488-2.63 2.98 2.98 0 00-2.396-1.194H20.39a.981.981 0 01-.748-.338.986.986 0 01-.244-.788l.356-2.838a2.877 2.877 0 00-.702-2.264A2.878 2.878 0 0014.1 6.832l-1.066 4.26a.999.999 0 01-.97.758h-1.058a.988.988 0 00-.98-.9h-5.4a1 1 0 00-1.002 1zm11.35-.372l1.066-4.26c.16-.642 1.076-.866 1.514-.37.17.192.246.438.216.692l-.356 2.838a3 3 0 002.976 3.372h4.982a.99.99 0 01.798.398.99.99 0 01.164.876l-2.458 8.598c-.124.428-.52.726-.962.726H11.026v-10.6h1.038a2.991 2.991 0 002.91-2.27zm-9.35 1.372h3.4v12.4h-3.4v-12.4z" fill="#221F1F" fill-opacity=".4"/></svg>