<svg width="146" height="40" fill="none" xmlns="http://www.w3.org/2000/svg"><path d="M3.704 39.543l.765-1.847-.765 1.847zM.457 36.296l1.847-.765-1.847.765zm145.086 0l1.848.766-1.848-.766zm-3.247 3.247l-.765-1.847.765 1.847zm0-39.086l-.765 1.847.765-1.847zm3.247 3.247l-1.847.765 1.847-.765zM9 2h128v-4H9v4zm135 7v22h4V9h-4zm-7 29H9v4h128v-4zM2 31V9h-4v22h4zm7 7c-1.425 0-2.394-.001-3.147-.053-.735-.05-1.117-.14-1.384-.252l-1.53 3.696c.835.346 1.703.483 2.642.547C6.5 42.001 7.63 42 9 42v-4zm-11-7c0 1.37-.001 2.498.062 3.42.064.938.2 1.806.547 2.642l3.695-1.531c-.11-.267-.201-.65-.252-1.384C2.002 33.394 2 32.425 2 31h-4zm6.47 6.696a4 4 0 01-2.166-2.165l-3.695 1.53a8 8 0 004.33 4.33l1.53-3.695zM144 31c0 1.425-.001 2.394-.052 3.147-.051.735-.142 1.117-.252 1.384l3.695 1.53c.346-.835.483-1.703.547-2.642.063-.92.062-2.048.062-3.419h-4zm-7 11c1.37 0 2.498.001 3.419-.062.939-.064 1.807-.2 2.642-.547l-1.53-3.695c-.267.11-.649.201-1.384.252-.753.05-1.722.052-3.147.052v4zm6.696-6.47a4.001 4.001 0 01-2.165 2.166l1.53 3.695a7.998 7.998 0 004.33-4.33l-3.695-1.53zM137 2c1.425 0 2.394.001 3.147.052.735.05 1.117.142 1.384.252l1.53-3.695c-.835-.346-1.703-.483-2.642-.547C139.498-2.001 138.37-2 137-2v4zm11 7c0-1.37.001-2.498-.062-3.42-.064-.938-.201-1.806-.547-2.641l-3.695 1.53c.11.267.201.65.252 1.384.051.753.052 1.722.052 3.147h4zm-6.469-6.696a4 4 0 012.165 2.165l3.695-1.53a7.998 7.998 0 00-4.33-4.33l-1.53 3.695zM9-2c-1.37 0-2.498-.001-3.42.062-.938.064-1.806.2-2.641.547l1.53 3.695c.267-.11.65-.201 1.384-.252C6.606 2.002 7.575 2 9 2v-4zM2 9c0-1.425.001-2.394.052-3.147.05-.735.142-1.117.252-1.384L-1.39 2.94c-.346.835-.483 1.703-.547 2.642C-2.001 6.5-2 7.63-2 9h4zm.939-10.391a8 8 0 00-4.33 4.33l3.695 1.53A4 4 0 014.47 2.304L2.94-1.39z" fill="url(#paint0_linear)"/><defs><linearGradient id="paint0_linear" x1="0" y1="20" x2="146" y2="20" gradientUnits="userSpaceOnUse"><stop stop-color="#56AB2F"/><stop offset="1" stop-color="#93D642"/></linearGradient></defs></svg>