<svg width="32" height="32" fill="none" xmlns="http://www.w3.org/2000/svg"><path d="M22.788 19.192a3.89 3.89 0 00-2.974 1.39l-6.917-3.717c.13-.388.194-.808.194-1.229 0-.42-.065-.872-.226-1.26l6.95-4.008a3.94 3.94 0 002.973 1.39 3.89 3.89 0 003.879-3.88A3.89 3.89 0 0022.787 4a3.89 3.89 0 00-3.878 3.879c0 .258.032.485.065.743l-7.176 4.138a3.813 3.813 0 00-2.586-1.002 3.89 3.89 0 00-3.879 3.878 3.89 3.89 0 003.879 3.88c.97 0 1.907-.356 2.618-1.035l7.144 3.846c-.033.259-.065.485-.065.744a3.89 3.89 0 003.879 3.878 3.89 3.89 0 003.879-3.878 3.89 3.89 0 00-3.88-3.88zm0-13.253c1.067 0 1.94.873 1.94 1.94 0 1.066-.873 1.94-1.94 1.94a1.945 1.945 0 01-1.94-1.94c0-1.067.873-1.94 1.94-1.94zM9.212 17.576a1.945 1.945 0 01-1.94-1.94c0-1.066.873-1.939 1.94-1.939s1.94.873 1.94 1.94a1.945 1.945 0 01-1.94 1.939zm13.576 7.434a1.945 1.945 0 01-1.94-1.94c0-1.066.873-1.939 1.94-1.939s1.94.873 1.94 1.94c0 1.066-.873 1.94-1.94 1.94z" fill="#221F1F" fill-opacity=".4"/></svg>