<svg width="80" height="36" fill="none" xmlns="http://www.w3.org/2000/svg"><path d="M2.732 23.058l-.8-3.198 72.56-17.943.803 3.194 1.546-.379L75.655 0 0 18.71l1.186 4.727 1.546-.379zM77.21 12.726l.858 3.414L5.505 34.084l-.858-3.415-1.546.384L4.345 36 80 17.29l-1.244-4.948-1.546.384zM3.954 23.265l2.362-.59c.31-.078.611-.12.903-.126.296-.013.566.027.81.119.247.084.462.232.644.443.186.204.325.484.415.84.11.43.09.826-.056 1.186-.148.355-.428.626-.838.814l2.206 2.187-1.612.403-1.895-2.118-.664.166.619 2.437-1.345.336-1.549-6.097zm1.986 2.187l.793-.198c.12-.03.246-.065.377-.104a1.45 1.45 0 00.351-.17.652.652 0 00.215-.273c.051-.11.056-.25.013-.416a.666.666 0 00-.189-.346.62.62 0 00-.293-.147 1.035 1.035 0 00-.363-.02c-.13.015-.256.038-.377.068l-.88.22.353 1.386zm3.655-3.597l4.147-1.037.315 1.24-2.802.7.29 1.137 2.646-.661.315 1.24-2.647.662.315 1.24 2.957-.74.315 1.24-4.301 1.076-1.55-6.097zm9.772-.758a1.359 1.359 0 00-.585-.247 1.643 1.643 0 00-.697.037 1.76 1.76 0 00-.67.323c-.187.15-.34.335-.455.553a2.009 2.009 0 00-.213.713 2.37 2.37 0 00.07.816c.073.287.183.54.33.76.152.212.328.388.529.527a1.665 1.665 0 001.364.245 1.56 1.56 0 00.689-.355c.183-.168.318-.373.403-.614l1.333.555a2.393 2.393 0 01-.78 1.047c-.352.271-.738.46-1.158.564-.477.12-.935.155-1.375.106a3.165 3.165 0 01-1.205-.376 3.118 3.118 0 01-.948-.844 3.617 3.617 0 01-.579-1.266 3.6 3.6 0 01-.095-1.387 2.99 2.99 0 01.433-1.18 3.07 3.07 0 01.88-.906 3.87 3.87 0 011.261-.554 3.05 3.05 0 01.548-.082 2.69 2.69 0 011.185.153c.196.073.38.176.555.31l-.82 1.102zm1.955 1.069a3.603 3.603 0 01-.096-1.387c.066-.438.21-.83.434-1.18.221-.354.514-.656.878-.906.365-.25.786-.435 1.262-.554a3.907 3.907 0 011.376-.106c.44.05.843.177 1.208.386.363.202.675.481.936.837.268.354.463.776.587 1.264.125.488.154.95.087 1.388a2.98 2.98 0 01-.422 1.187 3.13 3.13 0 01-.881.898 3.87 3.87 0 01-1.262.553 3.86 3.86 0 01-1.376.106 3.163 3.163 0 01-1.205-.376 3.118 3.118 0 01-.948-.844 3.615 3.615 0 01-.578-1.266zm1.396-.35c.073.288.183.541.33.76.153.213.334.387.546.524.21.13.443.216.698.256.26.039.534.022.821-.05.288-.072.534-.185.74-.34.21-.157.377-.342.5-.556.121-.22.195-.458.221-.715a2.26 2.26 0 00-.063-.826 2.258 2.258 0 00-.337-.75 1.768 1.768 0 00-.537-.525 1.776 1.776 0 00-.708-.262 2.03 2.03 0 00-.813.047 2.087 2.087 0 00-.748.343 1.853 1.853 0 00-.72 1.279c-.025.263-.001.535.07.816zm5.329-4.573l2.034-.509 2.416 3.628.018-.005.402-4.332 2.026-.506 1.55 6.097-1.345.336-1.189-4.676-.017.004-.415 5.077-1.026.257-2.731-4.29-.017.003 1.188 4.677-1.345.336-1.55-6.097zm8.14-2.035l2.035-.509 2.416 3.628.017-.005.403-4.331 2.026-.507 1.549 6.097-1.345.336-1.188-4.676-.017.005-.416 5.077-1.025.256-2.732-4.29-.017.004 1.188 4.676-1.344.336-1.55-6.097zm8.192-2.048l4.147-1.036.315 1.24-2.802.7.29 1.137 2.645-.662.316 1.24-2.647.662.315 1.24 2.957-.739.315 1.24-4.301 1.075-1.55-6.097zm5.378-1.344l1.828-.457 3.671 3.589.017-.005-1.076-4.237 1.345-.336 1.549 6.097-1.759.44-3.766-3.675-.017.005 1.102 4.34-1.344.336-1.55-6.097zm7.03-1.757l2.017-.504a5.889 5.889 0 011.43-.184c.47-.001.9.08 1.29.246.389.159.728.41 1.017.753.294.342.512.79.654 1.348.125.493.141.954.048 1.38a2.89 2.89 0 01-.51 1.134 3.467 3.467 0 01-.948.851c-.38.236-.797.41-1.25.524l-2.2.55-1.548-6.098zm2.578 4.52l.699-.174c.31-.077.59-.18.838-.31.254-.13.46-.292.62-.485.157-.198.26-.428.31-.69.053-.27.036-.578-.051-.922a1.699 1.699 0 00-.37-.732 1.564 1.564 0 00-.588-.44 1.988 1.988 0 00-.753-.15 2.907 2.907 0 00-.83.089l-.794.198.92 3.617zm4.014-6.168l4.147-1.036.315 1.24-2.802.7.289 1.137 2.646-.662.316 1.24-2.647.662.315 1.24 2.957-.74.315 1.241-4.301 1.075-1.55-6.097zm5.378-1.344l2.017-.504a5.889 5.889 0 011.43-.184c.47-.001.9.08 1.29.245.39.16.728.41 1.017.754.295.341.513.79.654 1.348a2.889 2.889 0 01-.461 2.515 3.468 3.468 0 01-.948.85c-.38.236-.797.41-1.251.523l-2.198.55-1.55-6.097zm2.58 4.52l.697-.174c.31-.077.59-.18.838-.31.254-.13.461-.292.62-.485.157-.198.26-.428.31-.69.054-.27.037-.578-.05-.922a1.698 1.698 0 00-.37-.732 1.565 1.565 0 00-.588-.44 1.987 1.987 0 00-.754-.15 2.906 2.906 0 00-.83.088l-.793.199.92 3.617z" opacity=".5" fill="#EF7530"/></svg>