<svg width="40" height="40" fill="none" xmlns="http://www.w3.org/2000/svg"><path d="M24.677 21.63H15v1.29h9.677v-1.29zm6.885 3.873H8.333v1.292h23.229v-1.292zM17.748 29.37h-3.874v1.29h3.874v-1.29zm4.459 0h-3.873v1.29h3.873v-1.29z" fill="#fff"/><path d="M22.207 29.37h-3.873v1.29h3.873v-1.29zm-.375-12.26a2.53 2.53 0 00-1.284.354 2.575 2.575 0 00-1.299-.355 2.584 2.584 0 00-2.582 2.583 2.584 2.584 0 002.582 2.583c.465 0 .906-.126 1.3-.355.377.22.81.355 1.283.355a2.584 2.584 0 002.583-2.583 2.584 2.584 0 00-2.583-2.583zm-2.252 3.826c-.11.032-.22.047-.33.047a1.297 1.297 0 01-1.292-1.29c0-.71.583-1.292 1.291-1.292.11 0 .229.023.33.047a2.55 2.55 0 00-.33 1.244c0 .457.126.874.33 1.244zm2.252.047a1.297 1.297 0 01-1.291-1.29c0-.71.582-1.292 1.29-1.292.71 0 1.292.582 1.292 1.291s-.582 1.291-1.291 1.291z" fill="#fff"/><path d="M38.654 14.125l-27.071-8.55c-.19-.064-1.701-.56-2.425 1.259l-2.229 7.047H1.937A1.946 1.946 0 000 15.818v16.78c0 1.07.866 1.937 1.937 1.937h28.394c.677 0 1.268-.346 1.614-.874 0 0 .874.244 1.071.244.85 0 1.59-.543 1.843-1.354l5.055-16c.157-.489.267-2.016-1.26-2.426zM9.606 9.685l13.3 4.196H14.33l-5.504-1.74.78-2.457zm-1.165 3.692l1.614.512H8.284l.157-.512zm22.536 19.221h-.008a.649.649 0 01-.646.646H1.937a.649.649 0 01-.646-.646v-16.78c0-.354.292-.645.646-.645h28.394c.354 0 .646.291.646.645v16.78zm2.653-.433a.652.652 0 01-.81.417l-.56-.173V20.905l4.48 1.417-3.11 9.843zm3.496-11.079l-4.866-1.535v-2.709l5.646 1.78-.78 2.464zm1.56-4.921l-.386 1.228-6.071-1.913a1.935 1.935 0 00-1.898-1.59h-3.142L9.992 8.455l.386-1.228a.648.648 0 01.811-.418l27.071 8.544c.543.142.473.645.425.81z" fill="#fff"/></svg>