<svg width="40" height="40" fill="none" xmlns="http://www.w3.org/2000/svg"><path fill-rule="evenodd" clip-rule="evenodd" d="M23.119 14.443a.73.73 0 01.07 1.287l-7.293 4.375a.733.733 0 01-.736.007l-1.023-.584-4.124 2.062a.733.733 0 01-.652 0L4 18.908l-.664.663L5.92 23.45a.727.727 0 01-.272 1.053c-.856.442-1.714.977-2.192 1.353 1.03.187 3.226.187 4.045.187 4.88 0 27.709-8.947 27.709-11.667 0-.218-.207-.485-.675-.731a.708.708 0 01-.055.002c-2.521 0-3.815 1.203-3.869 1.254a.733.733 0 01-1.028-.02.729.729 0 01.012-1.027c.036-.035.513-.492 1.411-.918a20.978 20.978 0 00-.9-.018c-2.486 0-5.315.898-6.986 1.526zm-2.187-.664L8.439 10.03a.729.729 0 00-.725.182L4.797 13.13a.728.728 0 00.155 1.15l7.664 4.379-2.928 1.463-5.507-2.754a.727.727 0 00-.841.137l-1.46 1.458a.729.729 0 00-.092.92L4.26 23.59c-2.594 1.448-2.594 2.167-2.594 2.452 0 1.314 1.868 1.458 5.833 1.458 1.635 0 7.068-1.515 12.808-3.611l6.315 7.718a.725.725 0 00.894.19l2.917-1.459a.729.729 0 00.38-.828l-2.187-8.75a.727.727 0 00-.11-.242c4.622-2.165 8.15-4.43 8.15-6.143 0-.878-.639-2.917-6.563-2.917-4.086 0-8.773 2.125-9.05 2.25l-.006.003a.734.734 0 00-.116.068zm6.28 7.334a104.792 104.792 0 01-5.458 2.238l5.63 6.88 1.873-.936-2.045-8.182zM6.503 13.487l9.008 5.148 5.51-3.306-12.582-3.776-1.936 1.934z" fill="#fff"/></svg>