<svg width="168" height="140" viewBox="0 0 168 140" fill="none" xmlns="http://www.w3.org/2000/svg">
<rect width="168" height="140" rx="6" fill="white"/>
<path d="M30.16 71.84H32.34L38.44 86H35.56L34.24 82.76H28.1L26.82 86H24L30.16 71.84ZM33.36 80.6L31.18 74.84L28.96 80.6H33.36ZM49.6736 76.4V85.14C49.6736 86.0067 49.5669 86.7867 49.3536 87.48C49.1403 88.1867 48.8069 88.78 48.3536 89.26C47.9136 89.7533 47.3536 90.1333 46.6736 90.4C45.9936 90.6667 45.1869 90.8 44.2536 90.8C43.3603 90.8 42.5136 90.6867 41.7136 90.46C40.9136 90.2333 40.1736 89.82 39.4936 89.22L40.9336 87.26C41.4136 87.7 41.9136 88.04 42.4336 88.28C42.9536 88.52 43.5536 88.64 44.2336 88.64C44.8069 88.64 45.2869 88.56 45.6736 88.4C46.0736 88.24 46.3869 88.02 46.6136 87.74C46.8536 87.46 47.0203 87.12 47.1136 86.72C47.2203 86.3333 47.2736 85.9 47.2736 85.42V84.72H47.2336C46.8869 85.1867 46.4269 85.54 45.8536 85.78C45.2803 86.0067 44.6936 86.12 44.0936 86.12C43.3736 86.12 42.7203 85.9933 42.1336 85.74C41.5469 85.4733 41.0403 85.12 40.6136 84.68C40.2003 84.24 39.8803 83.72 39.6536 83.12C39.4269 82.52 39.3136 81.88 39.3136 81.2C39.3136 80.4933 39.4203 79.8333 39.6336 79.22C39.8469 78.6067 40.1603 78.0733 40.5736 77.62C40.9869 77.1667 41.4803 76.8133 42.0536 76.56C42.6403 76.2933 43.3069 76.16 44.0536 76.16C44.7336 76.16 45.3669 76.2933 45.9536 76.56C46.5403 76.8267 47.0069 77.2533 47.3536 77.84H47.3936V76.4H49.6736ZM44.5536 78.32C44.1269 78.32 43.7403 78.3933 43.3936 78.54C43.0469 78.6733 42.7469 78.8667 42.4936 79.12C42.2536 79.36 42.0603 79.66 41.9136 80.02C41.7803 80.3667 41.7136 80.7533 41.7136 81.18C41.7136 81.5667 41.7803 81.9267 41.9136 82.26C42.0603 82.5933 42.2603 82.8867 42.5136 83.14C42.7669 83.3933 43.0669 83.5933 43.4136 83.74C43.7603 83.8867 44.1336 83.96 44.5336 83.96C44.9736 83.96 45.3669 83.8867 45.7136 83.74C46.0736 83.5933 46.3736 83.4 46.6136 83.16C46.8669 82.9067 47.0603 82.6067 47.1936 82.26C47.3269 81.9133 47.3936 81.54 47.3936 81.14C47.3936 80.3 47.1403 79.62 46.6336 79.1C46.1269 78.58 45.4336 78.32 44.5536 78.32ZM54.3113 82.04C54.3913 82.76 54.6713 83.32 55.1513 83.72C55.6313 84.12 56.2113 84.32 56.8913 84.32C57.4913 84.32 57.9913 84.2 58.3913 83.96C58.8046 83.7067 59.1646 83.3933 59.4713 83.02L61.1913 84.32C60.6313 85.0133 60.0046 85.5067 59.3113 85.8C58.6179 86.0933 57.8913 86.24 57.1313 86.24C56.4113 86.24 55.7313 86.12 55.0913 85.88C54.4513 85.64 53.8979 85.3 53.4313 84.86C52.9646 84.42 52.5913 83.8933 52.3113 83.28C52.0446 82.6533 51.9113 81.96 51.9113 81.2C51.9113 80.44 52.0446 79.7533 52.3113 79.14C52.5913 78.5133 52.9646 77.98 53.4313 77.54C53.8979 77.1 54.4513 76.76 55.0913 76.52C55.7313 76.28 56.4113 76.16 57.1313 76.16C57.7979 76.16 58.4046 76.28 58.9513 76.52C59.5113 76.7467 59.9846 77.08 60.3713 77.52C60.7713 77.96 61.0779 78.5067 61.2913 79.16C61.5179 79.8 61.6313 80.54 61.6313 81.38V82.04H54.3113ZM59.2313 80.24C59.2179 79.5333 58.9979 78.98 58.5713 78.58C58.1446 78.1667 57.5513 77.96 56.7913 77.96C56.0713 77.96 55.4979 78.1667 55.0713 78.58C54.6579 78.9933 54.4046 79.5467 54.3113 80.24H59.2313ZM69.3136 81.2C69.3136 80.44 69.4469 79.7533 69.7136 79.14C69.9936 78.5133 70.3669 77.98 70.8336 77.54C71.3003 77.1 71.8536 76.76 72.4936 76.52C73.1336 76.28 73.8136 76.16 74.5336 76.16C75.2536 76.16 75.9336 76.28 76.5736 76.52C77.2136 76.76 77.7669 77.1 78.2336 77.54C78.7003 77.98 79.0669 78.5133 79.3336 79.14C79.6136 79.7533 79.7536 80.44 79.7536 81.2C79.7536 81.96 79.6136 82.6533 79.3336 83.28C79.0669 83.8933 78.7003 84.42 78.2336 84.86C77.7669 85.3 77.2136 85.64 76.5736 85.88C75.9336 86.12 75.2536 86.24 74.5336 86.24C73.8136 86.24 73.1336 86.12 72.4936 85.88C71.8536 85.64 71.3003 85.3 70.8336 84.86C70.3669 84.42 69.9936 83.8933 69.7136 83.28C69.4469 82.6533 69.3136 81.96 69.3136 81.2ZM71.7136 81.2C71.7136 81.5733 71.7736 81.9333 71.8936 82.28C72.0269 82.6267 72.2136 82.9333 72.4536 83.2C72.7069 83.4667 73.0069 83.68 73.3536 83.84C73.7003 84 74.0936 84.08 74.5336 84.08C74.9736 84.08 75.3669 84 75.7136 83.84C76.0603 83.68 76.3536 83.4667 76.5936 83.2C76.8469 82.9333 77.0336 82.6267 77.1536 82.28C77.2869 81.9333 77.3536 81.5733 77.3536 81.2C77.3536 80.8267 77.2869 80.4667 77.1536 80.12C77.0336 79.7733 76.8469 79.4667 76.5936 79.2C76.3536 78.9333 76.0603 78.72 75.7136 78.56C75.3669 78.4 74.9736 78.32 74.5336 78.32C74.0936 78.32 73.7003 78.4 73.3536 78.56C73.0069 78.72 72.7069 78.9333 72.4536 79.2C72.2136 79.4667 72.0269 79.7733 71.8936 80.12C71.7736 80.4667 71.7136 80.8267 71.7136 81.2ZM82.8606 78.44H80.8806V76.4H82.8606V75.04C82.8606 74.3733 82.9073 73.7733 83.0006 73.24C83.094 72.6933 83.2673 72.2267 83.5206 71.84C83.7873 71.4533 84.154 71.16 84.6206 70.96C85.0873 70.7467 85.694 70.64 86.4406 70.64C86.9873 70.64 87.494 70.6867 87.9606 70.78L87.8006 72.82C87.6273 72.78 87.4606 72.7467 87.3006 72.72C87.1406 72.6933 86.974 72.68 86.8006 72.68C86.4673 72.68 86.2006 72.7333 86.0006 72.84C85.8006 72.9467 85.6406 73.0933 85.5206 73.28C85.414 73.4533 85.3406 73.66 85.3006 73.9C85.274 74.14 85.2606 74.3933 85.2606 74.66V76.4H87.4806V78.44H85.2606V86H82.8606V78.44ZM35.3 107.16C34.78 106.6 34.2733 106.227 33.78 106.04C33.3 105.853 32.8133 105.76 32.32 105.76C31.5867 105.76 30.92 105.893 30.32 106.16C29.7333 106.413 29.2267 106.773 28.8 107.24C28.3733 107.693 28.04 108.227 27.8 108.84C27.5733 109.453 27.46 110.113 27.46 110.82C27.46 111.58 27.5733 112.28 27.8 112.92C28.04 113.56 28.3733 114.113 28.8 114.58C29.2267 115.047 29.7333 115.413 30.32 115.68C30.92 115.947 31.5867 116.08 32.32 116.08C32.8933 116.08 33.4467 115.947 33.98 115.68C34.5267 115.4 35.0333 114.96 35.5 114.36L37.58 115.84C36.94 116.72 36.16 117.36 35.24 117.76C34.32 118.16 33.34 118.36 32.3 118.36C31.2067 118.36 30.2 118.187 29.28 117.84C28.3733 117.48 27.5867 116.98 26.92 116.34C26.2667 115.687 25.7533 114.907 25.38 114C25.0067 113.093 24.82 112.087 24.82 110.98C24.82 109.847 25.0067 108.82 25.38 107.9C25.7533 106.967 26.2667 106.173 26.92 105.52C27.5867 104.867 28.3733 104.367 29.28 104.02C30.2 103.66 31.2067 103.48 32.3 103.48C33.26 103.48 34.1467 103.653 34.96 104C35.7867 104.333 36.5533 104.907 37.26 105.72L35.3 107.16ZM39.0514 108.4H41.4514V109.92H41.4914C41.7581 109.36 42.1381 108.927 42.6314 108.62C43.1247 108.313 43.6914 108.16 44.3314 108.16C44.4781 108.16 44.6181 108.173 44.7514 108.2C44.8981 108.227 45.0447 108.26 45.1914 108.3V110.62C44.9914 110.567 44.7914 110.527 44.5914 110.5C44.4047 110.46 44.2181 110.44 44.0314 110.44C43.4714 110.44 43.0181 110.547 42.6714 110.76C42.3381 110.96 42.0781 111.193 41.8914 111.46C41.7181 111.727 41.5981 111.993 41.5314 112.26C41.4781 112.527 41.4514 112.727 41.4514 112.86V118H39.0514V108.4ZM48.3933 114.04C48.4733 114.76 48.7533 115.32 49.2333 115.72C49.7133 116.12 50.2933 116.32 50.9733 116.32C51.5733 116.32 52.0733 116.2 52.4733 115.96C52.8866 115.707 53.2466 115.393 53.5533 115.02L55.2733 116.32C54.7133 117.013 54.0866 117.507 53.3933 117.8C52.6999 118.093 51.9733 118.24 51.2133 118.24C50.4933 118.24 49.8133 118.12 49.1733 117.88C48.5333 117.64 47.9799 117.3 47.5133 116.86C47.0466 116.42 46.6733 115.893 46.3933 115.28C46.1266 114.653 45.9933 113.96 45.9933 113.2C45.9933 112.44 46.1266 111.753 46.3933 111.14C46.6733 110.513 47.0466 109.98 47.5133 109.54C47.9799 109.1 48.5333 108.76 49.1733 108.52C49.8133 108.28 50.4933 108.16 51.2133 108.16C51.8799 108.16 52.4866 108.28 53.0333 108.52C53.5933 108.747 54.0666 109.08 54.4533 109.52C54.8533 109.96 55.1599 110.507 55.3733 111.16C55.5999 111.8 55.7133 112.54 55.7133 113.38V114.04H48.3933ZM53.3133 112.24C53.2999 111.533 53.0799 110.98 52.6533 110.58C52.2266 110.167 51.6333 109.96 50.8733 109.96C50.1533 109.96 49.5799 110.167 49.1533 110.58C48.7399 110.993 48.4866 111.547 48.3933 112.24H53.3133ZM65.5577 116.56H65.5177C65.171 117.147 64.7043 117.573 64.1177 117.84C63.531 118.107 62.8977 118.24 62.2177 118.24C61.471 118.24 60.8043 118.113 60.2177 117.86C59.6443 117.593 59.151 117.233 58.7377 116.78C58.3243 116.327 58.011 115.793 57.7977 115.18C57.5843 114.567 57.4777 113.907 57.4777 113.2C57.4777 112.493 57.591 111.833 57.8177 111.22C58.0443 110.607 58.3577 110.073 58.7577 109.62C59.171 109.167 59.6643 108.813 60.2377 108.56C60.811 108.293 61.4377 108.16 62.1177 108.16C62.571 108.16 62.971 108.207 63.3177 108.3C63.6643 108.393 63.971 108.513 64.2377 108.66C64.5043 108.807 64.731 108.967 64.9177 109.14C65.1043 109.3 65.2577 109.46 65.3777 109.62H65.4377V102.88H67.8377V118H65.5577V116.56ZM59.8777 113.2C59.8777 113.573 59.9377 113.933 60.0577 114.28C60.191 114.627 60.3777 114.933 60.6177 115.2C60.871 115.467 61.171 115.68 61.5177 115.84C61.8643 116 62.2577 116.08 62.6977 116.08C63.1377 116.08 63.531 116 63.8777 115.84C64.2243 115.68 64.5177 115.467 64.7577 115.2C65.011 114.933 65.1977 114.627 65.3177 114.28C65.451 113.933 65.5177 113.573 65.5177 113.2C65.5177 112.827 65.451 112.467 65.3177 112.12C65.1977 111.773 65.011 111.467 64.7577 111.2C64.5177 110.933 64.2243 110.72 63.8777 110.56C63.531 110.4 63.1377 110.32 62.6977 110.32C62.2577 110.32 61.8643 110.4 61.5177 110.56C61.171 110.72 60.871 110.933 60.6177 111.2C60.3777 111.467 60.191 111.773 60.0577 112.12C59.9377 112.467 59.8777 112.827 59.8777 113.2ZM70.6148 108.4H73.0148V118H70.6148V108.4ZM70.2748 105.14C70.2748 104.753 70.4148 104.42 70.6948 104.14C70.9882 103.847 71.3548 103.7 71.7948 103.7C72.2348 103.7 72.6015 103.84 72.8948 104.12C73.2015 104.387 73.3548 104.727 73.3548 105.14C73.3548 105.553 73.2015 105.9 72.8948 106.18C72.6015 106.447 72.2348 106.58 71.7948 106.58C71.3548 106.58 70.9882 106.44 70.6948 106.16C70.4148 105.867 70.2748 105.527 70.2748 105.14ZM74.6502 110.44V108.4H76.6302V105.62H79.0302V108.4H81.6702V110.44H79.0302V114.64C79.0302 115.12 79.1168 115.5 79.2902 115.78C79.4768 116.06 79.8368 116.2 80.3702 116.2C80.5835 116.2 80.8168 116.18 81.0702 116.14C81.3235 116.087 81.5235 116.007 81.6702 115.9V117.92C81.4168 118.04 81.1035 118.12 80.7302 118.16C80.3702 118.213 80.0502 118.24 79.7702 118.24C79.1302 118.24 78.6035 118.167 78.1902 118.02C77.7902 117.887 77.4702 117.68 77.2302 117.4C77.0035 117.107 76.8435 116.747 76.7502 116.32C76.6702 115.893 76.6302 115.4 76.6302 114.84V110.44H74.6502Z" fill="#221F1F" fill-opacity="0.6"/>
<path d="M25.652 41.444L33.352 33.996C33.576 33.772 33.8093 33.5387 34.052 33.296C34.2947 33.0347 34.5093 32.764 34.696 32.484C34.9013 32.204 35.0693 31.9147 35.2 31.616C35.3307 31.2987 35.396 30.972 35.396 30.636C35.396 30.2253 35.312 29.8613 35.144 29.544C34.9947 29.2267 34.7893 28.956 34.528 28.732C34.2667 28.508 33.9587 28.34 33.604 28.228C33.268 28.0973 32.904 28.032 32.512 28.032C31.672 28.032 30.9813 28.2747 30.44 28.76C29.8987 29.2453 29.572 29.8987 29.46 30.72L25.932 30.44C26.0067 29.5253 26.2213 28.7227 26.576 28.032C26.9493 27.3227 27.4253 26.7347 28.004 26.268C28.5827 25.8013 29.2547 25.4467 30.02 25.204C30.7853 24.9613 31.616 24.84 32.512 24.84C33.408 24.84 34.2387 24.9613 35.004 25.204C35.788 25.428 36.4693 25.7733 37.048 26.24C37.6267 26.688 38.084 27.2667 38.42 27.976C38.756 28.6853 38.924 29.516 38.924 30.468C38.924 31.7187 38.6347 32.8013 38.056 33.716C37.496 34.612 36.768 35.4707 35.872 36.292L29.74 41.976H38.924V45H25.652V41.444ZM46.7863 33.156H47.6543C48.1396 33.156 48.6063 33.128 49.0543 33.072C49.521 33.016 49.9316 32.8947 50.2863 32.708C50.6596 32.5213 50.9583 32.2507 51.1823 31.896C51.4063 31.5413 51.5183 31.0653 51.5183 30.468C51.5183 29.7027 51.257 29.0773 50.7343 28.592C50.2116 28.1067 49.5303 27.864 48.6903 27.864C48.0183 27.864 47.4116 28.06 46.8703 28.452C46.3476 28.8253 45.965 29.3573 45.7223 30.048L42.1663 29.096C42.3903 28.368 42.7076 27.7333 43.1183 27.192C43.529 26.6507 44.0143 26.212 44.5743 25.876C45.1343 25.5213 45.7503 25.26 46.4223 25.092C47.0943 24.924 47.7943 24.84 48.5223 24.84C49.381 24.84 50.193 24.952 50.9583 25.176C51.7236 25.4 52.3956 25.736 52.9743 26.184C53.553 26.6133 54.0103 27.164 54.3463 27.836C54.701 28.4893 54.8783 29.2547 54.8783 30.132C54.8783 31.196 54.5796 32.148 53.9823 32.988C53.385 33.8093 52.5543 34.3507 51.4903 34.612V34.668C52.7596 34.8547 53.721 35.396 54.3743 36.292C55.0276 37.188 55.3543 38.252 55.3543 39.484C55.3543 40.436 55.1676 41.276 54.7943 42.004C54.4396 42.732 53.9543 43.348 53.3383 43.852C52.7223 44.3373 52.0036 44.7107 51.1823 44.972C50.3796 45.2147 49.5396 45.336 48.6623 45.336C47.841 45.336 47.0663 45.2427 46.3383 45.056C45.6103 44.888 44.9476 44.6173 44.3503 44.244C43.7716 43.8707 43.2676 43.3947 42.8383 42.816C42.409 42.2187 42.0823 41.5093 41.8583 40.688L45.4423 39.736C45.6476 40.5573 46.0116 41.192 46.5343 41.64C47.057 42.088 47.7663 42.312 48.6623 42.312C49.1103 42.312 49.5303 42.2373 49.9223 42.088C50.333 41.9387 50.6876 41.7333 50.9863 41.472C51.3036 41.192 51.5463 40.8653 51.7143 40.492C51.901 40.1 51.9943 39.6707 51.9943 39.204C51.9943 38.5693 51.8543 38.056 51.5743 37.664C51.313 37.2533 50.9676 36.9453 50.5383 36.74C50.1276 36.516 49.661 36.3667 49.1383 36.292C48.6156 36.2173 48.1023 36.18 47.5983 36.18H46.7863V33.156ZM71.2806 40.128C71.2806 39.4 71.4113 38.728 71.6726 38.112C71.9526 37.4773 72.326 36.9267 72.7926 36.46C73.278 35.9747 73.8286 35.6013 74.4446 35.34C75.0793 35.06 75.7606 34.92 76.4886 34.92C77.2166 34.92 77.8886 35.06 78.5046 35.34C79.1393 35.6013 79.69 35.9747 80.1566 36.46C80.642 36.9267 81.0153 37.4773 81.2766 38.112C81.5566 38.728 81.6966 39.4 81.6966 40.128C81.6966 40.856 81.5566 41.5373 81.2766 42.172C81.0153 42.788 80.642 43.3387 80.1566 43.824C79.69 44.2907 79.1393 44.664 78.5046 44.944C77.8886 45.2053 77.2166 45.336 76.4886 45.336C75.7606 45.336 75.0793 45.2053 74.4446 44.944C73.8286 44.664 73.278 44.2907 72.7926 43.824C72.326 43.3387 71.9526 42.788 71.6726 42.172C71.4113 41.5373 71.2806 40.856 71.2806 40.128ZM79.0086 40.128C79.0086 39.4187 78.766 38.8213 78.2806 38.336C77.7953 37.8507 77.198 37.608 76.4886 37.608C75.7793 37.608 75.182 37.8507 74.6966 38.336C74.2113 38.8213 73.9686 39.4187 73.9686 40.128C73.9686 40.8373 74.2113 41.4347 74.6966 41.92C75.182 42.4053 75.7793 42.648 76.4886 42.648C77.198 42.648 77.7953 42.4053 78.2806 41.92C78.766 41.4347 79.0086 40.8373 79.0086 40.128ZM57.9806 30.048C57.9806 29.32 58.1113 28.648 58.3726 28.032C58.6526 27.3973 59.026 26.8467 59.4926 26.38C59.978 25.8947 60.5286 25.5213 61.1446 25.26C61.7793 24.98 62.4606 24.84 63.1886 24.84C63.9166 24.84 64.5886 24.98 65.2046 25.26C65.8393 25.5213 66.39 25.8947 66.8566 26.38C67.342 26.8467 67.7153 27.3973 67.9766 28.032C68.2566 28.648 68.3966 29.32 68.3966 30.048C68.3966 30.776 68.2566 31.4573 67.9766 32.092C67.7153 32.708 67.342 33.2587 66.8566 33.744C66.39 34.2107 65.8393 34.584 65.2046 34.864C64.5886 35.1253 63.9166 35.256 63.1886 35.256C62.4606 35.256 61.7793 35.1253 61.1446 34.864C60.5286 34.584 59.978 34.2107 59.4926 33.744C59.026 33.2587 58.6526 32.708 58.3726 32.092C58.1113 31.4573 57.9806 30.776 57.9806 30.048ZM65.7086 30.048C65.7086 29.3387 65.466 28.7413 64.9806 28.256C64.4953 27.7707 63.898 27.528 63.1886 27.528C62.4793 27.528 61.882 27.7707 61.3966 28.256C60.9113 28.7413 60.6686 29.3387 60.6686 30.048C60.6686 30.7573 60.9113 31.3547 61.3966 31.84C61.882 32.3253 62.4793 32.568 63.1886 32.568C63.898 32.568 64.4953 32.3253 64.9806 31.84C65.466 31.3547 65.7086 30.7573 65.7086 30.048ZM74.5286 24.28L76.8526 25.344L65.2046 45.896L62.8806 44.832L74.5286 24.28Z" fill="#89C142"/>
</svg>
