<svg width="168" height="140" viewBox="0 0 168 140" fill="none" xmlns="http://www.w3.org/2000/svg">
<rect width="168" height="140" rx="6" fill="white"/>
<path d="M35.3 75.16C34.78 74.6 34.2733 74.2267 33.78 74.04C33.3 73.8533 32.8133 73.76 32.32 73.76C31.5867 73.76 30.92 73.8933 30.32 74.16C29.7333 74.4133 29.2267 74.7733 28.8 75.24C28.3733 75.6933 28.04 76.2267 27.8 76.84C27.5733 77.4533 27.46 78.1133 27.46 78.82C27.46 79.58 27.5733 80.28 27.8 80.92C28.04 81.56 28.3733 82.1133 28.8 82.58C29.2267 83.0467 29.7333 83.4133 30.32 83.68C30.92 83.9467 31.5867 84.08 32.32 84.08C32.8933 84.08 33.4467 83.9467 33.98 83.68C34.5267 83.4 35.0333 82.96 35.5 82.36L37.58 83.84C36.94 84.72 36.16 85.36 35.24 85.76C34.32 86.16 33.34 86.36 32.3 86.36C31.2067 86.36 30.2 86.1867 29.28 85.84C28.3733 85.48 27.5867 84.98 26.92 84.34C26.2667 83.6867 25.7533 82.9067 25.38 82C25.0067 81.0933 24.82 80.0867 24.82 78.98C24.82 77.8467 25.0067 76.82 25.38 75.9C25.7533 74.9667 26.2667 74.1733 26.92 73.52C27.5867 72.8667 28.3733 72.3667 29.28 72.02C30.2 71.66 31.2067 71.48 32.3 71.48C33.26 71.48 34.1467 71.6533 34.96 72C35.7867 72.3333 36.5533 72.9067 37.26 73.72L35.3 75.16ZM39.0514 76.4H41.4514V77.92H41.4914C41.7581 77.36 42.1381 76.9267 42.6314 76.62C43.1247 76.3133 43.6914 76.16 44.3314 76.16C44.4781 76.16 44.6181 76.1733 44.7514 76.2C44.8981 76.2267 45.0447 76.26 45.1914 76.3V78.62C44.9914 78.5667 44.7914 78.5267 44.5914 78.5C44.4047 78.46 44.2181 78.44 44.0314 78.44C43.4714 78.44 43.0181 78.5467 42.6714 78.76C42.3381 78.96 42.0781 79.1933 41.8914 79.46C41.7181 79.7267 41.5981 79.9933 41.5314 80.26C41.4781 80.5267 41.4514 80.7267 41.4514 80.86V86H39.0514V76.4ZM48.3933 82.04C48.4733 82.76 48.7533 83.32 49.2333 83.72C49.7133 84.12 50.2933 84.32 50.9733 84.32C51.5733 84.32 52.0733 84.2 52.4733 83.96C52.8866 83.7067 53.2466 83.3933 53.5533 83.02L55.2733 84.32C54.7133 85.0133 54.0866 85.5067 53.3933 85.8C52.6999 86.0933 51.9733 86.24 51.2133 86.24C50.4933 86.24 49.8133 86.12 49.1733 85.88C48.5333 85.64 47.9799 85.3 47.5133 84.86C47.0466 84.42 46.6733 83.8933 46.3933 83.28C46.1266 82.6533 45.9933 81.96 45.9933 81.2C45.9933 80.44 46.1266 79.7533 46.3933 79.14C46.6733 78.5133 47.0466 77.98 47.5133 77.54C47.9799 77.1 48.5333 76.76 49.1733 76.52C49.8133 76.28 50.4933 76.16 51.2133 76.16C51.8799 76.16 52.4866 76.28 53.0333 76.52C53.5933 76.7467 54.0666 77.08 54.4533 77.52C54.8533 77.96 55.1599 78.5067 55.3733 79.16C55.5999 79.8 55.7133 80.54 55.7133 81.38V82.04H48.3933ZM53.3133 80.24C53.2999 79.5333 53.0799 78.98 52.6533 78.58C52.2266 78.1667 51.6333 77.96 50.8733 77.96C50.1533 77.96 49.5799 78.1667 49.1533 78.58C48.7399 78.9933 48.4866 79.5467 48.3933 80.24H53.3133ZM65.5577 84.56H65.5177C65.171 85.1467 64.7043 85.5733 64.1177 85.84C63.531 86.1067 62.8977 86.24 62.2177 86.24C61.471 86.24 60.8043 86.1133 60.2177 85.86C59.6443 85.5933 59.151 85.2333 58.7377 84.78C58.3243 84.3267 58.011 83.7933 57.7977 83.18C57.5843 82.5667 57.4777 81.9067 57.4777 81.2C57.4777 80.4933 57.591 79.8333 57.8177 79.22C58.0443 78.6067 58.3577 78.0733 58.7577 77.62C59.171 77.1667 59.6643 76.8133 60.2377 76.56C60.811 76.2933 61.4377 76.16 62.1177 76.16C62.571 76.16 62.971 76.2067 63.3177 76.3C63.6643 76.3933 63.971 76.5133 64.2377 76.66C64.5043 76.8067 64.731 76.9667 64.9177 77.14C65.1043 77.3 65.2577 77.46 65.3777 77.62H65.4377V70.88H67.8377V86H65.5577V84.56ZM59.8777 81.2C59.8777 81.5733 59.9377 81.9333 60.0577 82.28C60.191 82.6267 60.3777 82.9333 60.6177 83.2C60.871 83.4667 61.171 83.68 61.5177 83.84C61.8643 84 62.2577 84.08 62.6977 84.08C63.1377 84.08 63.531 84 63.8777 83.84C64.2243 83.68 64.5177 83.4667 64.7577 83.2C65.011 82.9333 65.1977 82.6267 65.3177 82.28C65.451 81.9333 65.5177 81.5733 65.5177 81.2C65.5177 80.8267 65.451 80.4667 65.3177 80.12C65.1977 79.7733 65.011 79.4667 64.7577 79.2C64.5177 78.9333 64.2243 78.72 63.8777 78.56C63.531 78.4 63.1377 78.32 62.6977 78.32C62.2577 78.32 61.8643 78.4 61.5177 78.56C61.171 78.72 60.871 78.9333 60.6177 79.2C60.3777 79.4667 60.191 79.7733 60.0577 80.12C59.9377 80.4667 59.8777 80.8267 59.8777 81.2ZM70.6148 76.4H73.0148V86H70.6148V76.4ZM70.2748 73.14C70.2748 72.7533 70.4148 72.42 70.6948 72.14C70.9882 71.8467 71.3548 71.7 71.7948 71.7C72.2348 71.7 72.6015 71.84 72.8948 72.12C73.2015 72.3867 73.3548 72.7267 73.3548 73.14C73.3548 73.5533 73.2015 73.9 72.8948 74.18C72.6015 74.4467 72.2348 74.58 71.7948 74.58C71.3548 74.58 70.9882 74.44 70.6948 74.16C70.4148 73.8667 70.2748 73.5267 70.2748 73.14ZM74.6502 78.44V76.4H76.6302V73.62H79.0302V76.4H81.6702V78.44H79.0302V82.64C79.0302 83.12 79.1168 83.5 79.2902 83.78C79.4768 84.06 79.8368 84.2 80.3702 84.2C80.5835 84.2 80.8168 84.18 81.0702 84.14C81.3235 84.0867 81.5235 84.0067 81.6702 83.9V85.92C81.4168 86.04 81.1035 86.12 80.7302 86.16C80.3702 86.2133 80.0502 86.24 79.7702 86.24C79.1302 86.24 78.6035 86.1667 78.1902 86.02C77.7902 85.8867 77.4702 85.68 77.2302 85.4C77.0035 85.1067 76.8435 84.7467 76.7502 84.32C76.6702 83.8933 76.6302 83.4 76.6302 82.84V78.44H74.6502ZM99.4016 75.16C98.8816 74.6 98.3749 74.2267 97.8816 74.04C97.4016 73.8533 96.9149 73.76 96.4216 73.76C95.6882 73.76 95.0216 73.8933 94.4216 74.16C93.8349 74.4133 93.3282 74.7733 92.9016 75.24C92.4749 75.6933 92.1416 76.2267 91.9016 76.84C91.6749 77.4533 91.5616 78.1133 91.5616 78.82C91.5616 79.58 91.6749 80.28 91.9016 80.92C92.1416 81.56 92.4749 82.1133 92.9016 82.58C93.3282 83.0467 93.8349 83.4133 94.4216 83.68C95.0216 83.9467 95.6882 84.08 96.4216 84.08C96.9949 84.08 97.5482 83.9467 98.0816 83.68C98.6282 83.4 99.1349 82.96 99.6016 82.36L101.682 83.84C101.042 84.72 100.262 85.36 99.3416 85.76C98.4216 86.16 97.4416 86.36 96.4016 86.36C95.3082 86.36 94.3016 86.1867 93.3816 85.84C92.4749 85.48 91.6882 84.98 91.0216 84.34C90.3682 83.6867 89.8549 82.9067 89.4816 82C89.1082 81.0933 88.9216 80.0867 88.9216 78.98C88.9216 77.8467 89.1082 76.82 89.4816 75.9C89.8549 74.9667 90.3682 74.1733 91.0216 73.52C91.6882 72.8667 92.4749 72.3667 93.3816 72.02C94.3016 71.66 95.3082 71.48 96.4016 71.48C97.3616 71.48 98.2482 71.6533 99.0616 72C99.8882 72.3333 100.655 72.9067 101.362 73.72L99.4016 75.16ZM109.153 84.68H109.093C108.746 85.2267 108.306 85.6267 107.773 85.88C107.24 86.12 106.653 86.24 106.013 86.24C105.573 86.24 105.14 86.18 104.713 86.06C104.3 85.94 103.926 85.76 103.593 85.52C103.273 85.28 103.013 84.98 102.813 84.62C102.613 84.26 102.513 83.84 102.513 83.36C102.513 82.84 102.606 82.4 102.793 82.04C102.98 81.6667 103.226 81.36 103.533 81.12C103.853 80.8667 104.22 80.6667 104.633 80.52C105.046 80.3733 105.473 80.2667 105.913 80.2C106.366 80.12 106.82 80.0733 107.273 80.06C107.726 80.0333 108.153 80.02 108.553 80.02H109.153V79.76C109.153 79.16 108.946 78.7133 108.533 78.42C108.12 78.1133 107.593 77.96 106.953 77.96C106.446 77.96 105.973 78.0533 105.533 78.24C105.093 78.4133 104.713 78.6533 104.393 78.96L103.133 77.7C103.666 77.1533 104.286 76.76 104.993 76.52C105.713 76.28 106.453 76.16 107.213 76.16C107.893 76.16 108.466 76.24 108.933 76.4C109.4 76.5467 109.786 76.74 110.093 76.98C110.4 77.22 110.633 77.5 110.793 77.82C110.966 78.1267 111.086 78.44 111.153 78.76C111.233 79.08 111.28 79.3933 111.293 79.7C111.306 79.9933 111.313 80.2533 111.313 80.48V86H109.153V84.68ZM109.013 81.7H108.513C108.18 81.7 107.806 81.7133 107.393 81.74C106.98 81.7667 106.586 81.8333 106.213 81.94C105.853 82.0333 105.546 82.18 105.293 82.38C105.04 82.5667 104.913 82.8333 104.913 83.18C104.913 83.4067 104.96 83.6 105.053 83.76C105.16 83.9067 105.293 84.0333 105.453 84.14C105.613 84.2467 105.793 84.3267 105.993 84.38C106.193 84.42 106.393 84.44 106.593 84.44C107.42 84.44 108.026 84.2467 108.413 83.86C108.813 83.46 109.013 82.92 109.013 82.24V81.7ZM113.895 76.4H116.295V77.92H116.335C116.602 77.36 116.982 76.9267 117.475 76.62C117.968 76.3133 118.535 76.16 119.175 76.16C119.322 76.16 119.462 76.1733 119.595 76.2C119.742 76.2267 119.888 76.26 120.035 76.3V78.62C119.835 78.5667 119.635 78.5267 119.435 78.5C119.248 78.46 119.062 78.44 118.875 78.44C118.315 78.44 117.862 78.5467 117.515 78.76C117.182 78.96 116.922 79.1933 116.735 79.46C116.562 79.7267 116.442 79.9933 116.375 80.26C116.322 80.5267 116.295 80.7267 116.295 80.86V86H113.895V76.4ZM128.917 84.56H128.877C128.53 85.1467 128.064 85.5733 127.477 85.84C126.89 86.1067 126.257 86.24 125.577 86.24C124.83 86.24 124.164 86.1133 123.577 85.86C123.004 85.5933 122.51 85.2333 122.097 84.78C121.684 84.3267 121.37 83.7933 121.157 83.18C120.944 82.5667 120.837 81.9067 120.837 81.2C120.837 80.4933 120.95 79.8333 121.177 79.22C121.404 78.6067 121.717 78.0733 122.117 77.62C122.53 77.1667 123.024 76.8133 123.597 76.56C124.17 76.2933 124.797 76.16 125.477 76.16C125.93 76.16 126.33 76.2067 126.677 76.3C127.024 76.3933 127.33 76.5133 127.597 76.66C127.864 76.8067 128.09 76.9667 128.277 77.14C128.464 77.3 128.617 77.46 128.737 77.62H128.797V70.88H131.197V86H128.917V84.56ZM123.237 81.2C123.237 81.5733 123.297 81.9333 123.417 82.28C123.55 82.6267 123.737 82.9333 123.977 83.2C124.23 83.4667 124.53 83.68 124.877 83.84C125.224 84 125.617 84.08 126.057 84.08C126.497 84.08 126.89 84 127.237 83.84C127.584 83.68 127.877 83.4667 128.117 83.2C128.37 82.9333 128.557 82.6267 128.677 82.28C128.81 81.9333 128.877 81.5733 128.877 81.2C128.877 80.8267 128.81 80.4667 128.677 80.12C128.557 79.7733 128.37 79.4667 128.117 79.2C127.877 78.9333 127.584 78.72 127.237 78.56C126.89 78.4 126.497 78.32 126.057 78.32C125.617 78.32 125.224 78.4 124.877 78.56C124.53 78.72 124.23 78.9333 123.977 79.2C123.737 79.4667 123.55 79.7733 123.417 80.12C123.297 80.4667 123.237 80.8267 123.237 81.2ZM36.92 112.8C36.92 113.653 36.7733 114.427 36.48 115.12C36.1867 115.8 35.7867 116.38 35.28 116.86C34.7733 117.34 34.1733 117.713 33.48 117.98C32.7867 118.233 32.0333 118.36 31.22 118.36C30.4067 118.36 29.6533 118.233 28.96 117.98C28.2667 117.713 27.66 117.34 27.14 116.86C26.6333 116.38 26.2333 115.8 25.94 115.12C25.66 114.427 25.52 113.653 25.52 112.8V103.84H28.04V112.72C28.04 113.067 28.0933 113.433 28.2 113.82C28.3067 114.193 28.48 114.54 28.72 114.86C28.9733 115.18 29.3 115.447 29.7 115.66C30.1133 115.86 30.62 115.96 31.22 115.96C31.82 115.96 32.32 115.86 32.72 115.66C33.1333 115.447 33.46 115.18 33.7 114.86C33.9533 114.54 34.1333 114.193 34.24 113.82C34.3467 113.433 34.4 113.067 34.4 112.72V103.84H36.92V112.8ZM38.6736 110.44V108.4H40.6536V105.62H43.0536V108.4H45.6936V110.44H43.0536V114.64C43.0536 115.12 43.1403 115.5 43.3136 115.78C43.5003 116.06 43.8603 116.2 44.3936 116.2C44.6069 116.2 44.8403 116.18 45.0936 116.14C45.3469 116.087 45.5469 116.007 45.6936 115.9V117.92C45.4403 118.04 45.1269 118.12 44.7536 118.16C44.3936 118.213 44.0736 118.24 43.7936 118.24C43.1536 118.24 42.6269 118.167 42.2136 118.02C41.8136 117.887 41.4936 117.68 41.2536 117.4C41.0269 117.107 40.8669 116.747 40.7736 116.32C40.6936 115.893 40.6536 115.4 40.6536 114.84V110.44H38.6736ZM47.6266 108.4H50.0266V118H47.6266V108.4ZM47.2866 105.14C47.2866 104.753 47.4266 104.42 47.7066 104.14C47.9999 103.847 48.3666 103.7 48.8066 103.7C49.2466 103.7 49.6132 103.84 49.9066 104.12C50.2132 104.387 50.3666 104.727 50.3666 105.14C50.3666 105.553 50.2132 105.9 49.9066 106.18C49.6132 106.447 49.2466 106.58 48.8066 106.58C48.3666 106.58 47.9999 106.44 47.7066 106.16C47.4266 105.867 47.2866 105.527 47.2866 105.14ZM52.8219 102.88H55.2219V118H52.8219V102.88ZM58.0367 108.4H60.4367V118H58.0367V108.4ZM57.6967 105.14C57.6967 104.753 57.8367 104.42 58.1167 104.14C58.4101 103.847 58.7767 103.7 59.2167 103.7C59.6567 103.7 60.0234 103.84 60.3167 104.12C60.6234 104.387 60.7767 104.727 60.7767 105.14C60.7767 105.553 60.6234 105.9 60.3167 106.18C60.0234 106.447 59.6567 106.58 59.2167 106.58C58.7767 106.58 58.4101 106.44 58.1167 106.16C57.8367 105.867 57.6967 105.527 57.6967 105.14ZM68.312 111.06C67.8454 110.407 67.2187 110.08 66.432 110.08C66.112 110.08 65.7987 110.16 65.492 110.32C65.1854 110.48 65.032 110.74 65.032 111.1C65.032 111.393 65.1587 111.607 65.412 111.74C65.6654 111.873 65.9854 111.987 66.372 112.08C66.7587 112.173 67.172 112.273 67.612 112.38C68.0654 112.473 68.4854 112.627 68.872 112.84C69.2587 113.04 69.5787 113.32 69.832 113.68C70.0854 114.04 70.212 114.533 70.212 115.16C70.212 115.733 70.0854 116.22 69.832 116.62C69.592 117.007 69.272 117.32 68.872 117.56C68.4854 117.8 68.0454 117.973 67.552 118.08C67.0587 118.187 66.5654 118.24 66.072 118.24C65.3254 118.24 64.6387 118.133 64.012 117.92C63.3854 117.707 62.8254 117.32 62.332 116.76L63.932 115.26C64.2387 115.607 64.5654 115.893 64.912 116.12C65.272 116.333 65.7054 116.44 66.212 116.44C66.3854 116.44 66.5654 116.42 66.752 116.38C66.9387 116.34 67.112 116.273 67.272 116.18C67.432 116.087 67.5587 115.973 67.652 115.84C67.7587 115.693 67.812 115.527 67.812 115.34C67.812 115.007 67.6854 114.76 67.432 114.6C67.1787 114.44 66.8587 114.313 66.472 114.22C66.0854 114.113 65.6654 114.02 65.212 113.94C64.772 113.847 64.3587 113.707 63.972 113.52C63.5854 113.32 63.2654 113.047 63.012 112.7C62.7587 112.353 62.632 111.873 62.632 111.26C62.632 110.727 62.7387 110.267 62.952 109.88C63.1787 109.48 63.472 109.153 63.832 108.9C64.192 108.647 64.6054 108.46 65.072 108.34C65.5387 108.22 66.012 108.16 66.492 108.16C67.132 108.16 67.7654 108.273 68.392 108.5C69.0187 108.713 69.5254 109.087 69.912 109.62L68.312 111.06ZM78.0788 116.68H78.0188C77.6721 117.227 77.2321 117.627 76.6988 117.88C76.1654 118.12 75.5788 118.24 74.9388 118.24C74.4988 118.24 74.0654 118.18 73.6388 118.06C73.2254 117.94 72.8521 117.76 72.5188 117.52C72.1988 117.28 71.9388 116.98 71.7388 116.62C71.5388 116.26 71.4388 115.84 71.4388 115.36C71.4388 114.84 71.5321 114.4 71.7188 114.04C71.9054 113.667 72.1521 113.36 72.4588 113.12C72.7788 112.867 73.1454 112.667 73.5588 112.52C73.9721 112.373 74.3988 112.267 74.8388 112.2C75.2921 112.12 75.7454 112.073 76.1988 112.06C76.6521 112.033 77.0788 112.02 77.4788 112.02H78.0788V111.76C78.0788 111.16 77.8721 110.713 77.4588 110.42C77.0454 110.113 76.5188 109.96 75.8788 109.96C75.3721 109.96 74.8988 110.053 74.4588 110.24C74.0188 110.413 73.6388 110.653 73.3188 110.96L72.0588 109.7C72.5921 109.153 73.2121 108.76 73.9188 108.52C74.6388 108.28 75.3788 108.16 76.1388 108.16C76.8188 108.16 77.3921 108.24 77.8588 108.4C78.3254 108.547 78.7121 108.74 79.0188 108.98C79.3254 109.22 79.5588 109.5 79.7188 109.82C79.8921 110.127 80.0121 110.44 80.0788 110.76C80.1588 111.08 80.2054 111.393 80.2188 111.7C80.2321 111.993 80.2388 112.253 80.2388 112.48V118H78.0788V116.68ZM77.9388 113.7H77.4388C77.1054 113.7 76.7321 113.713 76.3188 113.74C75.9054 113.767 75.5121 113.833 75.1388 113.94C74.7788 114.033 74.4721 114.18 74.2188 114.38C73.9654 114.567 73.8388 114.833 73.8388 115.18C73.8388 115.407 73.8854 115.6 73.9788 115.76C74.0854 115.907 74.2188 116.033 74.3788 116.14C74.5388 116.247 74.7188 116.327 74.9188 116.38C75.1188 116.42 75.3188 116.44 75.5188 116.44C76.3454 116.44 76.9521 116.247 77.3388 115.86C77.7388 115.46 77.9388 114.92 77.9388 114.24V113.7ZM81.7009 110.44V108.4H83.6809V105.62H86.0809V108.4H88.7209V110.44H86.0809V114.64C86.0809 115.12 86.1676 115.5 86.3409 115.78C86.5276 116.06 86.8876 116.2 87.4209 116.2C87.6343 116.2 87.8676 116.18 88.1209 116.14C88.3743 116.087 88.5743 116.007 88.7209 115.9V117.92C88.4676 118.04 88.1543 118.12 87.7809 118.16C87.4209 118.213 87.1009 118.24 86.8209 118.24C86.1809 118.24 85.6543 118.167 85.2409 118.02C84.8409 117.887 84.5209 117.68 84.2809 117.4C84.0543 117.107 83.8943 116.747 83.8009 116.32C83.7209 115.893 83.6809 115.4 83.6809 114.84V110.44H81.7009ZM90.6539 108.4H93.0539V118H90.6539V108.4ZM90.3139 105.14C90.3139 104.753 90.4539 104.42 90.7339 104.14C91.0272 103.847 91.3939 103.7 91.8339 103.7C92.2739 103.7 92.6406 103.84 92.9339 104.12C93.2406 104.387 93.3939 104.727 93.3939 105.14C93.3939 105.553 93.2406 105.9 92.9339 106.18C92.6406 106.447 92.2739 106.58 91.8339 106.58C91.3939 106.58 91.0272 106.44 90.7339 106.16C90.4539 105.867 90.3139 105.527 90.3139 105.14ZM95.3292 113.2C95.3292 112.44 95.4626 111.753 95.7292 111.14C96.0092 110.513 96.3826 109.98 96.8492 109.54C97.3159 109.1 97.8692 108.76 98.5092 108.52C99.1492 108.28 99.8292 108.16 100.549 108.16C101.269 108.16 101.949 108.28 102.589 108.52C103.229 108.76 103.783 109.1 104.249 109.54C104.716 109.98 105.083 110.513 105.349 111.14C105.629 111.753 105.769 112.44 105.769 113.2C105.769 113.96 105.629 114.653 105.349 115.28C105.083 115.893 104.716 116.42 104.249 116.86C103.783 117.3 103.229 117.64 102.589 117.88C101.949 118.12 101.269 118.24 100.549 118.24C99.8292 118.24 99.1492 118.12 98.5092 117.88C97.8692 117.64 97.3159 117.3 96.8492 116.86C96.3826 116.42 96.0092 115.893 95.7292 115.28C95.4626 114.653 95.3292 113.96 95.3292 113.2ZM97.7292 113.2C97.7292 113.573 97.7892 113.933 97.9092 114.28C98.0426 114.627 98.2292 114.933 98.4692 115.2C98.7226 115.467 99.0226 115.68 99.3692 115.84C99.7159 116 100.109 116.08 100.549 116.08C100.989 116.08 101.383 116 101.729 115.84C102.076 115.68 102.369 115.467 102.609 115.2C102.863 114.933 103.049 114.627 103.169 114.28C103.303 113.933 103.369 113.573 103.369 113.2C103.369 112.827 103.303 112.467 103.169 112.12C103.049 111.773 102.863 111.467 102.609 111.2C102.369 110.933 102.076 110.72 101.729 110.56C101.383 110.4 100.989 110.32 100.549 110.32C100.109 110.32 99.7159 110.4 99.3692 110.56C99.0226 110.72 98.7226 110.933 98.4692 111.2C98.2292 111.467 98.0426 111.773 97.9092 112.12C97.7892 112.467 97.7292 112.827 97.7292 113.2ZM108.016 108.4H110.296V109.94H110.336C110.563 109.46 110.91 109.047 111.376 108.7C111.843 108.34 112.476 108.16 113.276 108.16C113.916 108.16 114.456 108.267 114.896 108.48C115.35 108.693 115.716 108.973 115.996 109.32C116.276 109.667 116.476 110.067 116.596 110.52C116.716 110.973 116.776 111.447 116.776 111.94V118H114.376V113.14C114.376 112.873 114.363 112.58 114.336 112.26C114.31 111.927 114.236 111.62 114.116 111.34C114.01 111.047 113.836 110.807 113.596 110.62C113.356 110.42 113.03 110.32 112.616 110.32C112.216 110.32 111.876 110.387 111.596 110.52C111.33 110.653 111.103 110.833 110.916 111.06C110.743 111.287 110.616 111.547 110.536 111.84C110.456 112.133 110.416 112.44 110.416 112.76V118H108.016V108.4Z" fill="#221F1F" fill-opacity="0.6"/>
<path d="M31.504 29.04L27.78 32.484L25.82 30.16L31.812 25.176H34.864V45H31.504V29.04ZM48.8583 24.84C49.6983 24.84 50.4823 24.9613 51.2103 25.204C51.957 25.428 52.601 25.764 53.1423 26.212C53.7023 26.6413 54.141 27.1827 54.4583 27.836C54.7756 28.4707 54.9343 29.208 54.9343 30.048C54.9343 31.112 54.6823 32.0453 54.1783 32.848C53.693 33.6507 52.9463 34.2013 51.9383 34.5V34.556C52.405 34.6493 52.853 34.8453 53.2823 35.144C53.7303 35.424 54.1223 35.7787 54.4583 36.208C54.7943 36.6187 55.0556 37.0947 55.2423 37.636C55.4476 38.1773 55.5503 38.756 55.5503 39.372C55.5503 40.3613 55.373 41.2293 55.0183 41.976C54.6636 42.704 54.1876 43.32 53.5903 43.824C52.993 44.328 52.2836 44.7107 51.4623 44.972C50.641 45.2147 49.773 45.336 48.8583 45.336C47.925 45.336 47.0476 45.2147 46.2263 44.972C45.4236 44.7107 44.7236 44.328 44.1263 43.824C43.529 43.32 43.053 42.704 42.6983 41.976C42.3436 41.2293 42.1663 40.3613 42.1663 39.372C42.1663 38.756 42.2596 38.1773 42.4463 37.636C42.6516 37.0947 42.9223 36.6187 43.2583 36.208C43.5943 35.7787 43.977 35.424 44.4063 35.144C44.8543 34.8453 45.3116 34.6493 45.7783 34.556V34.5C44.7703 34.2013 44.0143 33.6507 43.5103 32.848C43.025 32.0453 42.7823 31.112 42.7823 30.048C42.7823 29.208 42.941 28.4707 43.2583 27.836C43.5756 27.1827 44.005 26.6413 44.5463 26.212C45.1063 25.764 45.7503 25.428 46.4783 25.204C47.225 24.9613 48.0183 24.84 48.8583 24.84ZM48.8583 27.696C47.9996 27.696 47.3276 27.9573 46.8423 28.48C46.3756 29.0027 46.1423 29.6373 46.1423 30.384C46.1423 31.168 46.385 31.8307 46.8703 32.372C47.3556 32.8947 48.0183 33.156 48.8583 33.156C49.2316 33.156 49.577 33.0907 49.8943 32.96C50.2303 32.8107 50.5196 32.6147 50.7623 32.372C51.0236 32.1107 51.2196 31.812 51.3503 31.476C51.4996 31.14 51.5743 30.776 51.5743 30.384C51.5743 29.6373 51.313 29.0027 50.7903 28.48C50.2863 27.9573 49.6423 27.696 48.8583 27.696ZM48.8583 35.844C48.4103 35.844 47.981 35.9187 47.5703 36.068C47.1596 36.2173 46.805 36.432 46.5063 36.712C46.2076 36.992 45.965 37.328 45.7783 37.72C45.6103 38.0933 45.5263 38.504 45.5263 38.952C45.5263 39.904 45.8343 40.6787 46.4503 41.276C47.085 41.8547 47.8876 42.144 48.8583 42.144C49.829 42.144 50.6223 41.8547 51.2383 41.276C51.873 40.6787 52.1903 39.904 52.1903 38.952C52.1903 38.504 52.097 38.0933 51.9103 37.72C51.7423 37.328 51.509 36.992 51.2103 36.712C50.9116 36.432 50.557 36.2173 50.1463 36.068C49.7356 35.9187 49.3063 35.844 48.8583 35.844ZM71.2806 40.128C71.2806 39.4 71.4113 38.728 71.6726 38.112C71.9526 37.4773 72.326 36.9267 72.7926 36.46C73.278 35.9747 73.8286 35.6013 74.4446 35.34C75.0793 35.06 75.7606 34.92 76.4886 34.92C77.2166 34.92 77.8886 35.06 78.5046 35.34C79.1393 35.6013 79.69 35.9747 80.1566 36.46C80.642 36.9267 81.0153 37.4773 81.2766 38.112C81.5566 38.728 81.6966 39.4 81.6966 40.128C81.6966 40.856 81.5566 41.5373 81.2766 42.172C81.0153 42.788 80.642 43.3387 80.1566 43.824C79.69 44.2907 79.1393 44.664 78.5046 44.944C77.8886 45.2053 77.2166 45.336 76.4886 45.336C75.7606 45.336 75.0793 45.2053 74.4446 44.944C73.8286 44.664 73.278 44.2907 72.7926 43.824C72.326 43.3387 71.9526 42.788 71.6726 42.172C71.4113 41.5373 71.2806 40.856 71.2806 40.128ZM79.0086 40.128C79.0086 39.4187 78.766 38.8213 78.2806 38.336C77.7953 37.8507 77.198 37.608 76.4886 37.608C75.7793 37.608 75.182 37.8507 74.6966 38.336C74.2113 38.8213 73.9686 39.4187 73.9686 40.128C73.9686 40.8373 74.2113 41.4347 74.6966 41.92C75.182 42.4053 75.7793 42.648 76.4886 42.648C77.198 42.648 77.7953 42.4053 78.2806 41.92C78.766 41.4347 79.0086 40.8373 79.0086 40.128ZM57.9806 30.048C57.9806 29.32 58.1113 28.648 58.3726 28.032C58.6526 27.3973 59.026 26.8467 59.4926 26.38C59.978 25.8947 60.5286 25.5213 61.1446 25.26C61.7793 24.98 62.4606 24.84 63.1886 24.84C63.9166 24.84 64.5886 24.98 65.2046 25.26C65.8393 25.5213 66.39 25.8947 66.8566 26.38C67.342 26.8467 67.7153 27.3973 67.9766 28.032C68.2566 28.648 68.3966 29.32 68.3966 30.048C68.3966 30.776 68.2566 31.4573 67.9766 32.092C67.7153 32.708 67.342 33.2587 66.8566 33.744C66.39 34.2107 65.8393 34.584 65.2046 34.864C64.5886 35.1253 63.9166 35.256 63.1886 35.256C62.4606 35.256 61.7793 35.1253 61.1446 34.864C60.5286 34.584 59.978 34.2107 59.4926 33.744C59.026 33.2587 58.6526 32.708 58.3726 32.092C58.1113 31.4573 57.9806 30.776 57.9806 30.048ZM65.7086 30.048C65.7086 29.3387 65.466 28.7413 64.9806 28.256C64.4953 27.7707 63.898 27.528 63.1886 27.528C62.4793 27.528 61.882 27.7707 61.3966 28.256C60.9113 28.7413 60.6686 29.3387 60.6686 30.048C60.6686 30.7573 60.9113 31.3547 61.3966 31.84C61.882 32.3253 62.4793 32.568 63.1886 32.568C63.898 32.568 64.4953 32.3253 64.9806 31.84C65.466 31.3547 65.7086 30.7573 65.7086 30.048ZM74.5286 24.28L76.8526 25.344L65.2046 45.896L62.8806 44.832L74.5286 24.28Z" fill="#89C142"/>
</svg>
