<svg width="168" height="140" viewBox="0 0 168 140" fill="none" xmlns="http://www.w3.org/2000/svg">
<rect width="168" height="140" rx="6" fill="white"/>
<path d="M25.58 71.84H30.34C31.02 71.84 31.6733 71.9067 32.3 72.04C32.94 72.1733 33.5 72.4 33.98 72.72C34.46 73.0267 34.84 73.4467 35.12 73.98C35.4133 74.5 35.56 75.1533 35.56 75.94C35.56 76.8333 35.4067 77.5533 35.1 78.1C34.7933 78.6467 34.38 79.0733 33.86 79.38C33.34 79.6733 32.7333 79.8733 32.04 79.98C31.36 80.0867 30.6467 80.14 29.9 80.14H28.1V86H25.58V71.84ZM29.62 77.98C29.98 77.98 30.3533 77.9667 30.74 77.94C31.1267 77.9133 31.48 77.8333 31.8 77.7C32.1333 77.5667 32.4 77.3667 32.6 77.1C32.8133 76.8333 32.92 76.46 32.92 75.98C32.92 75.54 32.8267 75.1933 32.64 74.94C32.4533 74.6733 32.2133 74.4733 31.92 74.34C31.6267 74.1933 31.3 74.1 30.94 74.06C30.58 74.02 30.2333 74 29.9 74H28.1V77.98H29.62ZM43.5866 84.68H43.5266C43.1799 85.2267 42.7399 85.6267 42.2066 85.88C41.6732 86.12 41.0866 86.24 40.4466 86.24C40.0066 86.24 39.5732 86.18 39.1466 86.06C38.7332 85.94 38.3599 85.76 38.0266 85.52C37.7066 85.28 37.4466 84.98 37.2466 84.62C37.0466 84.26 36.9466 83.84 36.9466 83.36C36.9466 82.84 37.0399 82.4 37.2266 82.04C37.4132 81.6667 37.6599 81.36 37.9666 81.12C38.2866 80.8667 38.6532 80.6667 39.0666 80.52C39.4799 80.3733 39.9066 80.2667 40.3466 80.2C40.7999 80.12 41.2532 80.0733 41.7066 80.06C42.1599 80.0333 42.5866 80.02 42.9866 80.02H43.5866V79.76C43.5866 79.16 43.3799 78.7133 42.9666 78.42C42.5532 78.1133 42.0266 77.96 41.3866 77.96C40.8799 77.96 40.4066 78.0533 39.9666 78.24C39.5266 78.4133 39.1466 78.6533 38.8266 78.96L37.5666 77.7C38.0999 77.1533 38.7199 76.76 39.4266 76.52C40.1466 76.28 40.8866 76.16 41.6466 76.16C42.3266 76.16 42.8999 76.24 43.3666 76.4C43.8332 76.5467 44.2199 76.74 44.5266 76.98C44.8332 77.22 45.0666 77.5 45.2266 77.82C45.3999 78.1267 45.5199 78.44 45.5866 78.76C45.6666 79.08 45.7132 79.3933 45.7266 79.7C45.7399 79.9933 45.7466 80.2533 45.7466 80.48V86H43.5866V84.68ZM43.4466 81.7H42.9466C42.6132 81.7 42.2399 81.7133 41.8266 81.74C41.4132 81.7667 41.0199 81.8333 40.6466 81.94C40.2866 82.0333 39.9799 82.18 39.7266 82.38C39.4732 82.5667 39.3466 82.8333 39.3466 83.18C39.3466 83.4067 39.3932 83.6 39.4866 83.76C39.5932 83.9067 39.7266 84.0333 39.8866 84.14C40.0466 84.2467 40.2266 84.3267 40.4266 84.38C40.6266 84.42 40.8266 84.44 41.0266 84.44C41.8532 84.44 42.4599 84.2467 42.8466 83.86C43.2466 83.46 43.4466 82.92 43.4466 82.24V81.7ZM47.0288 76.4H49.6688L52.3488 83.06H52.3888L54.7888 76.4H57.2888L52.7488 88.06C52.5754 88.5133 52.3821 88.9067 52.1688 89.24C51.9688 89.5867 51.7288 89.8733 51.4488 90.1C51.1688 90.34 50.8354 90.5133 50.4488 90.62C50.0754 90.74 49.6221 90.8 49.0888 90.8C48.4621 90.8 47.8488 90.72 47.2488 90.56L47.5488 88.4C47.7354 88.4667 47.9288 88.52 48.1288 88.56C48.3421 88.6133 48.5554 88.64 48.7688 88.64C49.0621 88.64 49.3088 88.6133 49.5088 88.56C49.7088 88.5067 49.8754 88.42 50.0088 88.3C50.1554 88.1933 50.2754 88.0467 50.3688 87.86C50.4621 87.6867 50.5621 87.4733 50.6688 87.22L51.1288 86.08L47.0288 76.4ZM58.5998 76.4H60.8798V77.9H60.9198C61.1332 77.4467 61.4732 77.0467 61.9398 76.7C62.4198 76.34 63.0598 76.16 63.8598 76.16C65.3665 76.16 66.3665 76.7533 66.8598 77.94C67.2065 77.3267 67.6398 76.88 68.1598 76.6C68.6798 76.3067 69.2998 76.16 70.0198 76.16C70.6598 76.16 71.1998 76.2667 71.6398 76.48C72.0798 76.6933 72.4332 76.9867 72.6998 77.36C72.9798 77.7333 73.1798 78.1733 73.2998 78.68C73.4198 79.1733 73.4798 79.7067 73.4798 80.28V86H71.0798V80.56C71.0798 80.2667 71.0532 79.9867 70.9998 79.72C70.9465 79.44 70.8532 79.2 70.7198 79C70.5865 78.7867 70.4065 78.62 70.1798 78.5C69.9532 78.38 69.6598 78.32 69.2998 78.32C68.9265 78.32 68.6065 78.3933 68.3398 78.54C68.0865 78.6733 67.8732 78.86 67.6998 79.1C67.5398 79.3267 67.4198 79.5933 67.3398 79.9C67.2732 80.1933 67.2398 80.4933 67.2398 80.8V86H64.8398V80.28C64.8398 79.68 64.7132 79.2067 64.4598 78.86C64.2065 78.5 63.7865 78.32 63.1998 78.32C62.7998 78.32 62.4598 78.3867 62.1798 78.52C61.9132 78.6533 61.6865 78.8333 61.4998 79.06C61.3265 79.2867 61.1998 79.5467 61.1198 79.84C61.0398 80.1333 60.9998 80.44 60.9998 80.76V86H58.5998V76.4ZM78.0222 82.04C78.1022 82.76 78.3822 83.32 78.8622 83.72C79.3422 84.12 79.9222 84.32 80.6022 84.32C81.2022 84.32 81.7022 84.2 82.1022 83.96C82.5155 83.7067 82.8755 83.3933 83.1822 83.02L84.9022 84.32C84.3422 85.0133 83.7155 85.5067 83.0222 85.8C82.3289 86.0933 81.6022 86.24 80.8422 86.24C80.1222 86.24 79.4422 86.12 78.8022 85.88C78.1622 85.64 77.6089 85.3 77.1422 84.86C76.6755 84.42 76.3022 83.8933 76.0222 83.28C75.7555 82.6533 75.6222 81.96 75.6222 81.2C75.6222 80.44 75.7555 79.7533 76.0222 79.14C76.3022 78.5133 76.6755 77.98 77.1422 77.54C77.6089 77.1 78.1622 76.76 78.8022 76.52C79.4422 76.28 80.1222 76.16 80.8422 76.16C81.5089 76.16 82.1155 76.28 82.6622 76.52C83.2222 76.7467 83.6955 77.08 84.0822 77.52C84.4822 77.96 84.7889 78.5067 85.0022 79.16C85.2289 79.8 85.3422 80.54 85.3422 81.38V82.04H78.0222ZM82.9422 80.24C82.9289 79.5333 82.7089 78.98 82.2822 78.58C81.8555 78.1667 81.2622 77.96 80.5022 77.96C79.7822 77.96 79.2089 78.1667 78.7822 78.58C78.3689 78.9933 78.1155 79.5467 78.0222 80.24H82.9422ZM87.5866 76.4H89.8666V77.94H89.9066C90.1332 77.46 90.4799 77.0467 90.9466 76.7C91.4132 76.34 92.0466 76.16 92.8466 76.16C93.4866 76.16 94.0266 76.2667 94.4666 76.48C94.9199 76.6933 95.2866 76.9733 95.5666 77.32C95.8466 77.6667 96.0466 78.0667 96.1666 78.52C96.2866 78.9733 96.3466 79.4467 96.3466 79.94V86H93.9466V81.14C93.9466 80.8733 93.9332 80.58 93.9066 80.26C93.8799 79.9267 93.8066 79.62 93.6866 79.34C93.5799 79.0467 93.4066 78.8067 93.1666 78.62C92.9266 78.42 92.5999 78.32 92.1866 78.32C91.7866 78.32 91.4466 78.3867 91.1666 78.52C90.8999 78.6533 90.6732 78.8333 90.4866 79.06C90.3132 79.2867 90.1866 79.5467 90.1066 79.84C90.0266 80.1333 89.9866 80.44 89.9866 80.76V86H87.5866V76.4ZM97.9509 78.44V76.4H99.9309V73.62H102.331V76.4H104.971V78.44H102.331V82.64C102.331 83.12 102.418 83.5 102.591 83.78C102.778 84.06 103.138 84.2 103.671 84.2C103.884 84.2 104.118 84.18 104.371 84.14C104.624 84.0867 104.824 84.0067 104.971 83.9V85.92C104.718 86.04 104.404 86.12 104.031 86.16C103.671 86.2133 103.351 86.24 103.071 86.24C102.431 86.24 101.904 86.1667 101.491 86.02C101.091 85.8867 100.771 85.68 100.531 85.4C100.304 85.1067 100.144 84.7467 100.051 84.32C99.9709 83.8933 99.9309 83.4 99.9309 82.84V78.44H97.9509ZM25.58 103.84H28.1V109.48H34.72V103.84H37.24V118H34.72V111.76H28.1V118H25.58V103.84ZM40.2242 108.4H42.6242V118H40.2242V108.4ZM39.8842 105.14C39.8842 104.753 40.0242 104.42 40.3042 104.14C40.5976 103.847 40.9642 103.7 41.4042 103.7C41.8442 103.7 42.2109 103.84 42.5042 104.12C42.8109 104.387 42.9642 104.727 42.9642 105.14C42.9642 105.553 42.8109 105.9 42.5042 106.18C42.2109 106.447 41.8442 106.58 41.4042 106.58C40.9642 106.58 40.5976 106.44 40.3042 106.16C40.0242 105.867 39.8842 105.527 39.8842 105.14ZM50.4995 111.06C50.0329 110.407 49.4062 110.08 48.6195 110.08C48.2995 110.08 47.9862 110.16 47.6795 110.32C47.3729 110.48 47.2195 110.74 47.2195 111.1C47.2195 111.393 47.3462 111.607 47.5995 111.74C47.8529 111.873 48.1729 111.987 48.5595 112.08C48.9462 112.173 49.3595 112.273 49.7995 112.38C50.2529 112.473 50.6729 112.627 51.0595 112.84C51.4462 113.04 51.7662 113.32 52.0195 113.68C52.2729 114.04 52.3995 114.533 52.3995 115.16C52.3995 115.733 52.2729 116.22 52.0195 116.62C51.7795 117.007 51.4595 117.32 51.0595 117.56C50.6729 117.8 50.2329 117.973 49.7395 118.08C49.2462 118.187 48.7529 118.24 48.2595 118.24C47.5129 118.24 46.8262 118.133 46.1995 117.92C45.5729 117.707 45.0129 117.32 44.5195 116.76L46.1195 115.26C46.4262 115.607 46.7529 115.893 47.0995 116.12C47.4595 116.333 47.8929 116.44 48.3995 116.44C48.5729 116.44 48.7529 116.42 48.9395 116.38C49.1262 116.34 49.2995 116.273 49.4595 116.18C49.6195 116.087 49.7462 115.973 49.8395 115.84C49.9462 115.693 49.9995 115.527 49.9995 115.34C49.9995 115.007 49.8729 114.76 49.6195 114.6C49.3662 114.44 49.0462 114.313 48.6595 114.22C48.2729 114.113 47.8529 114.02 47.3995 113.94C46.9595 113.847 46.5462 113.707 46.1595 113.52C45.7729 113.32 45.4529 113.047 45.1995 112.7C44.9462 112.353 44.8195 111.873 44.8195 111.26C44.8195 110.727 44.9262 110.267 45.1395 109.88C45.3662 109.48 45.6595 109.153 46.0195 108.9C46.3795 108.647 46.7929 108.46 47.2595 108.34C47.7262 108.22 48.1995 108.16 48.6795 108.16C49.3195 108.16 49.9529 108.273 50.5795 108.5C51.2062 108.713 51.7129 109.087 52.0995 109.62L50.4995 111.06ZM53.1463 110.44V108.4H55.1263V105.62H57.5263V108.4H60.1663V110.44H57.5263V114.64C57.5263 115.12 57.6129 115.5 57.7863 115.78C57.9729 116.06 58.3329 116.2 58.8663 116.2C59.0796 116.2 59.3129 116.18 59.5663 116.14C59.8196 116.087 60.0196 116.007 60.1663 115.9V117.92C59.9129 118.04 59.5996 118.12 59.2263 118.16C58.8663 118.213 58.5463 118.24 58.2663 118.24C57.6263 118.24 57.0996 118.167 56.6863 118.02C56.2863 117.887 55.9663 117.68 55.7263 117.4C55.4996 117.107 55.3396 116.747 55.2463 116.32C55.1663 115.893 55.1263 115.4 55.1263 114.84V110.44H53.1463ZM61.5597 113.2C61.5597 112.44 61.693 111.753 61.9597 111.14C62.2397 110.513 62.613 109.98 63.0797 109.54C63.5464 109.1 64.0997 108.76 64.7397 108.52C65.3797 108.28 66.0597 108.16 66.7797 108.16C67.4997 108.16 68.1797 108.28 68.8197 108.52C69.4597 108.76 70.013 109.1 70.4797 109.54C70.9464 109.98 71.313 110.513 71.5797 111.14C71.8597 111.753 71.9997 112.44 71.9997 113.2C71.9997 113.96 71.8597 114.653 71.5797 115.28C71.313 115.893 70.9464 116.42 70.4797 116.86C70.013 117.3 69.4597 117.64 68.8197 117.88C68.1797 118.12 67.4997 118.24 66.7797 118.24C66.0597 118.24 65.3797 118.12 64.7397 117.88C64.0997 117.64 63.5464 117.3 63.0797 116.86C62.613 116.42 62.2397 115.893 61.9597 115.28C61.693 114.653 61.5597 113.96 61.5597 113.2ZM63.9597 113.2C63.9597 113.573 64.0197 113.933 64.1397 114.28C64.273 114.627 64.4597 114.933 64.6997 115.2C64.953 115.467 65.253 115.68 65.5997 115.84C65.9464 116 66.3397 116.08 66.7797 116.08C67.2197 116.08 67.613 116 67.9597 115.84C68.3064 115.68 68.5997 115.467 68.8397 115.2C69.093 114.933 69.2797 114.627 69.3997 114.28C69.533 113.933 69.5997 113.573 69.5997 113.2C69.5997 112.827 69.533 112.467 69.3997 112.12C69.2797 111.773 69.093 111.467 68.8397 111.2C68.5997 110.933 68.3064 110.72 67.9597 110.56C67.613 110.4 67.2197 110.32 66.7797 110.32C66.3397 110.32 65.9464 110.4 65.5997 110.56C65.253 110.72 64.953 110.933 64.6997 111.2C64.4597 111.467 64.273 111.773 64.1397 112.12C64.0197 112.467 63.9597 112.827 63.9597 113.2ZM74.2467 108.4H76.6467V109.92H76.6867C76.9534 109.36 77.3334 108.927 77.8267 108.62C78.3201 108.313 78.8867 108.16 79.5267 108.16C79.6734 108.16 79.8134 108.173 79.9467 108.2C80.0934 108.227 80.2401 108.26 80.3867 108.3V110.62C80.1867 110.567 79.9867 110.527 79.7867 110.5C79.6001 110.46 79.4134 110.44 79.2267 110.44C78.6667 110.44 78.2134 110.547 77.8667 110.76C77.5334 110.96 77.2734 111.193 77.0867 111.46C76.9134 111.727 76.7934 111.993 76.7267 112.26C76.6734 112.527 76.6467 112.727 76.6467 112.86V118H74.2467V108.4ZM80.7202 108.4H83.3602L86.0402 115.06H86.0802L88.4802 108.4H90.9802L86.4402 120.06C86.2668 120.513 86.0735 120.907 85.8602 121.24C85.6602 121.587 85.4202 121.873 85.1402 122.1C84.8602 122.34 84.5268 122.513 84.1402 122.62C83.7668 122.74 83.3135 122.8 82.7802 122.8C82.1535 122.8 81.5402 122.72 80.9402 122.56L81.2402 120.4C81.4268 120.467 81.6202 120.52 81.8202 120.56C82.0335 120.613 82.2468 120.64 82.4602 120.64C82.7535 120.64 83.0002 120.613 83.2002 120.56C83.4002 120.507 83.5668 120.42 83.7002 120.3C83.8468 120.193 83.9668 120.047 84.0602 119.86C84.1535 119.687 84.2535 119.473 84.3602 119.22L84.8202 118.08L80.7202 108.4Z" fill="#221F1F" fill-opacity="0.6"/>
<path d="M32.288 24.84C33.128 24.84 33.912 24.9613 34.64 25.204C35.3867 25.428 36.0307 25.764 36.572 26.212C37.132 26.6413 37.5707 27.1827 37.888 27.836C38.2053 28.4707 38.364 29.208 38.364 30.048C38.364 31.112 38.112 32.0453 37.608 32.848C37.1227 33.6507 36.376 34.2013 35.368 34.5V34.556C35.8347 34.6493 36.2827 34.8453 36.712 35.144C37.16 35.424 37.552 35.7787 37.888 36.208C38.224 36.6187 38.4853 37.0947 38.672 37.636C38.8773 38.1773 38.98 38.756 38.98 39.372C38.98 40.3613 38.8027 41.2293 38.448 41.976C38.0933 42.704 37.6173 43.32 37.02 43.824C36.4227 44.328 35.7133 44.7107 34.892 44.972C34.0707 45.2147 33.2027 45.336 32.288 45.336C31.3547 45.336 30.4773 45.2147 29.656 44.972C28.8533 44.7107 28.1533 44.328 27.556 43.824C26.9587 43.32 26.4827 42.704 26.128 41.976C25.7733 41.2293 25.596 40.3613 25.596 39.372C25.596 38.756 25.6893 38.1773 25.876 37.636C26.0813 37.0947 26.352 36.6187 26.688 36.208C27.024 35.7787 27.4067 35.424 27.836 35.144C28.284 34.8453 28.7413 34.6493 29.208 34.556V34.5C28.2 34.2013 27.444 33.6507 26.94 32.848C26.4547 32.0453 26.212 31.112 26.212 30.048C26.212 29.208 26.3707 28.4707 26.688 27.836C27.0053 27.1827 27.4347 26.6413 27.976 26.212C28.536 25.764 29.18 25.428 29.908 25.204C30.6547 24.9613 31.448 24.84 32.288 24.84ZM32.288 27.696C31.4293 27.696 30.7573 27.9573 30.272 28.48C29.8053 29.0027 29.572 29.6373 29.572 30.384C29.572 31.168 29.8147 31.8307 30.3 32.372C30.7853 32.8947 31.448 33.156 32.288 33.156C32.6613 33.156 33.0067 33.0907 33.324 32.96C33.66 32.8107 33.9493 32.6147 34.192 32.372C34.4533 32.1107 34.6493 31.812 34.78 31.476C34.9293 31.14 35.004 30.776 35.004 30.384C35.004 29.6373 34.7427 29.0027 34.22 28.48C33.716 27.9573 33.072 27.696 32.288 27.696ZM32.288 35.844C31.84 35.844 31.4107 35.9187 31 36.068C30.5893 36.2173 30.2347 36.432 29.936 36.712C29.6373 36.992 29.3947 37.328 29.208 37.72C29.04 38.0933 28.956 38.504 28.956 38.952C28.956 39.904 29.264 40.6787 29.88 41.276C30.5147 41.8547 31.3173 42.144 32.288 42.144C33.2587 42.144 34.052 41.8547 34.668 41.276C35.3027 40.6787 35.62 39.904 35.62 38.952C35.62 38.504 35.5267 38.0933 35.34 37.72C35.172 37.328 34.9387 36.992 34.64 36.712C34.3413 36.432 33.9867 36.2173 33.576 36.068C33.1653 35.9187 32.736 35.844 32.288 35.844ZM41.6903 35.088C41.6903 33.52 41.8116 32.1853 42.0543 31.084C42.3156 29.964 42.6516 29.0307 43.0623 28.284C43.473 27.5187 43.9303 26.912 44.4343 26.464C44.957 25.9973 45.4796 25.652 46.0023 25.428C46.5436 25.1853 47.057 25.0267 47.5423 24.952C48.0463 24.8773 48.485 24.84 48.8583 24.84C49.2316 24.84 49.661 24.8773 50.1463 24.952C50.6503 25.0267 51.1636 25.1853 51.6863 25.428C52.2276 25.652 52.7503 25.9973 53.2543 26.464C53.777 26.912 54.2436 27.5187 54.6543 28.284C55.065 29.0307 55.3916 29.964 55.6343 31.084C55.8956 32.1853 56.0263 33.52 56.0263 35.088C56.0263 36.656 55.8956 38 55.6343 39.12C55.3916 40.2213 55.065 41.1547 54.6543 41.92C54.2436 42.6667 53.777 43.2733 53.2543 43.74C52.7503 44.188 52.2276 44.5333 51.6863 44.776C51.1636 45 50.6503 45.1493 50.1463 45.224C49.661 45.2987 49.2316 45.336 48.8583 45.336C48.485 45.336 48.0463 45.2987 47.5423 45.224C47.057 45.1493 46.5436 45 46.0023 44.776C45.4796 44.5333 44.957 44.188 44.4343 43.74C43.9303 43.2733 43.473 42.6667 43.0623 41.92C42.6516 41.1547 42.3156 40.2213 42.0543 39.12C41.8116 38 41.6903 36.656 41.6903 35.088ZM45.0503 35.088C45.0503 35.704 45.0876 36.4227 45.1623 37.244C45.2556 38.0467 45.433 38.812 45.6943 39.54C45.9556 40.268 46.3383 40.884 46.8423 41.388C47.3463 41.892 48.0183 42.144 48.8583 42.144C49.6983 42.144 50.3703 41.892 50.8743 41.388C51.3783 40.884 51.761 40.268 52.0223 39.54C52.2836 38.812 52.4516 38.0467 52.5263 37.244C52.6196 36.4227 52.6663 35.704 52.6663 35.088C52.6663 34.472 52.6196 33.7627 52.5263 32.96C52.4516 32.1387 52.2836 31.364 52.0223 30.636C51.761 29.908 51.3783 29.292 50.8743 28.788C50.3703 28.284 49.6983 28.032 48.8583 28.032C48.0183 28.032 47.3463 28.284 46.8423 28.788C46.3383 29.292 45.9556 29.908 45.6943 30.636C45.433 31.364 45.2556 32.1387 45.1623 32.96C45.0876 33.7627 45.0503 34.472 45.0503 35.088ZM71.2806 40.128C71.2806 39.4 71.4113 38.728 71.6726 38.112C71.9526 37.4773 72.326 36.9267 72.7926 36.46C73.278 35.9747 73.8286 35.6013 74.4446 35.34C75.0793 35.06 75.7606 34.92 76.4886 34.92C77.2166 34.92 77.8886 35.06 78.5046 35.34C79.1393 35.6013 79.69 35.9747 80.1566 36.46C80.642 36.9267 81.0153 37.4773 81.2766 38.112C81.5566 38.728 81.6966 39.4 81.6966 40.128C81.6966 40.856 81.5566 41.5373 81.2766 42.172C81.0153 42.788 80.642 43.3387 80.1566 43.824C79.69 44.2907 79.1393 44.664 78.5046 44.944C77.8886 45.2053 77.2166 45.336 76.4886 45.336C75.7606 45.336 75.0793 45.2053 74.4446 44.944C73.8286 44.664 73.278 44.2907 72.7926 43.824C72.326 43.3387 71.9526 42.788 71.6726 42.172C71.4113 41.5373 71.2806 40.856 71.2806 40.128ZM79.0086 40.128C79.0086 39.4187 78.766 38.8213 78.2806 38.336C77.7953 37.8507 77.198 37.608 76.4886 37.608C75.7793 37.608 75.182 37.8507 74.6966 38.336C74.2113 38.8213 73.9686 39.4187 73.9686 40.128C73.9686 40.8373 74.2113 41.4347 74.6966 41.92C75.182 42.4053 75.7793 42.648 76.4886 42.648C77.198 42.648 77.7953 42.4053 78.2806 41.92C78.766 41.4347 79.0086 40.8373 79.0086 40.128ZM57.9806 30.048C57.9806 29.32 58.1113 28.648 58.3726 28.032C58.6526 27.3973 59.026 26.8467 59.4926 26.38C59.978 25.8947 60.5286 25.5213 61.1446 25.26C61.7793 24.98 62.4606 24.84 63.1886 24.84C63.9166 24.84 64.5886 24.98 65.2046 25.26C65.8393 25.5213 66.39 25.8947 66.8566 26.38C67.342 26.8467 67.7153 27.3973 67.9766 28.032C68.2566 28.648 68.3966 29.32 68.3966 30.048C68.3966 30.776 68.2566 31.4573 67.9766 32.092C67.7153 32.708 67.342 33.2587 66.8566 33.744C66.39 34.2107 65.8393 34.584 65.2046 34.864C64.5886 35.1253 63.9166 35.256 63.1886 35.256C62.4606 35.256 61.7793 35.1253 61.1446 34.864C60.5286 34.584 59.978 34.2107 59.4926 33.744C59.026 33.2587 58.6526 32.708 58.3726 32.092C58.1113 31.4573 57.9806 30.776 57.9806 30.048ZM65.7086 30.048C65.7086 29.3387 65.466 28.7413 64.9806 28.256C64.4953 27.7707 63.898 27.528 63.1886 27.528C62.4793 27.528 61.882 27.7707 61.3966 28.256C60.9113 28.7413 60.6686 29.3387 60.6686 30.048C60.6686 30.7573 60.9113 31.3547 61.3966 31.84C61.882 32.3253 62.4793 32.568 63.1886 32.568C63.898 32.568 64.4953 32.3253 64.9806 31.84C65.466 31.3547 65.7086 30.7573 65.7086 30.048ZM74.5286 24.28L76.8526 25.344L65.2046 45.896L62.8806 44.832L74.5286 24.28Z" fill="#89C142"/>
</svg>
