<svg width="168" height="140" viewBox="0 0 168 140" fill="none" xmlns="http://www.w3.org/2000/svg">
<rect width="168" height="140" rx="6" fill="white"/>
<path d="M28.48 74.12H24.14V71.84H35.34V74.12H31V86H28.48V74.12ZM34.1378 81.2C34.1378 80.44 34.2711 79.7533 34.5378 79.14C34.8178 78.5133 35.1911 77.98 35.6578 77.54C36.1245 77.1 36.6778 76.76 37.3178 76.52C37.9578 76.28 38.6378 76.16 39.3578 76.16C40.0778 76.16 40.7578 76.28 41.3978 76.52C42.0378 76.76 42.5911 77.1 43.0578 77.54C43.5245 77.98 43.8911 78.5133 44.1578 79.14C44.4378 79.7533 44.5778 80.44 44.5778 81.2C44.5778 81.96 44.4378 82.6533 44.1578 83.28C43.8911 83.8933 43.5245 84.42 43.0578 84.86C42.5911 85.3 42.0378 85.64 41.3978 85.88C40.7578 86.12 40.0778 86.24 39.3578 86.24C38.6378 86.24 37.9578 86.12 37.3178 85.88C36.6778 85.64 36.1245 85.3 35.6578 84.86C35.1911 84.42 34.8178 83.8933 34.5378 83.28C34.2711 82.6533 34.1378 81.96 34.1378 81.2ZM36.5378 81.2C36.5378 81.5733 36.5978 81.9333 36.7178 82.28C36.8511 82.6267 37.0378 82.9333 37.2778 83.2C37.5311 83.4667 37.8311 83.68 38.1778 83.84C38.5245 84 38.9178 84.08 39.3578 84.08C39.7978 84.08 40.1911 84 40.5378 83.84C40.8845 83.68 41.1778 83.4667 41.4178 83.2C41.6711 82.9333 41.8578 82.6267 41.9778 82.28C42.1111 81.9333 42.1778 81.5733 42.1778 81.2C42.1778 80.8267 42.1111 80.4667 41.9778 80.12C41.8578 79.7733 41.6711 79.4667 41.4178 79.2C41.1778 78.9333 40.8845 78.72 40.5378 78.56C40.1911 78.4 39.7978 78.32 39.3578 78.32C38.9178 78.32 38.5245 78.4 38.1778 78.56C37.8311 78.72 37.5311 78.9333 37.2778 79.2C37.0378 79.4667 36.8511 79.7733 36.7178 80.12C36.5978 80.4667 36.5378 80.8267 36.5378 81.2ZM45.7048 78.44V76.4H47.6848V73.62H50.0848V76.4H52.7248V78.44H50.0848V82.64C50.0848 83.12 50.1715 83.5 50.3448 83.78C50.5315 84.06 50.8915 84.2 51.4248 84.2C51.6382 84.2 51.8715 84.18 52.1248 84.14C52.3782 84.0867 52.5782 84.0067 52.7248 83.9V85.92C52.4715 86.04 52.1582 86.12 51.7848 86.16C51.4248 86.2133 51.1048 86.24 50.8248 86.24C50.1848 86.24 49.6582 86.1667 49.2448 86.02C48.8448 85.8867 48.5248 85.68 48.2848 85.4C48.0582 85.1067 47.8982 84.7467 47.8048 84.32C47.7248 83.8933 47.6848 83.4 47.6848 82.84V78.44H45.7048ZM60.5983 84.68H60.5383C60.1916 85.2267 59.7516 85.6267 59.2183 85.88C58.6849 86.12 58.0983 86.24 57.4583 86.24C57.0183 86.24 56.5849 86.18 56.1583 86.06C55.7449 85.94 55.3716 85.76 55.0383 85.52C54.7183 85.28 54.4583 84.98 54.2583 84.62C54.0583 84.26 53.9583 83.84 53.9583 83.36C53.9583 82.84 54.0516 82.4 54.2383 82.04C54.4249 81.6667 54.6716 81.36 54.9783 81.12C55.2983 80.8667 55.6649 80.6667 56.0783 80.52C56.4916 80.3733 56.9183 80.2667 57.3583 80.2C57.8116 80.12 58.2649 80.0733 58.7183 80.06C59.1716 80.0333 59.5983 80.02 59.9983 80.02H60.5983V79.76C60.5983 79.16 60.3916 78.7133 59.9783 78.42C59.5649 78.1133 59.0383 77.96 58.3983 77.96C57.8916 77.96 57.4183 78.0533 56.9783 78.24C56.5383 78.4133 56.1583 78.6533 55.8383 78.96L54.5783 77.7C55.1116 77.1533 55.7316 76.76 56.4383 76.52C57.1583 76.28 57.8983 76.16 58.6583 76.16C59.3383 76.16 59.9116 76.24 60.3783 76.4C60.8449 76.5467 61.2316 76.74 61.5383 76.98C61.8449 77.22 62.0783 77.5 62.2383 77.82C62.4116 78.1267 62.5316 78.44 62.5983 78.76C62.6783 79.08 62.7249 79.3933 62.7383 79.7C62.7516 79.9933 62.7583 80.2533 62.7583 80.48V86H60.5983V84.68ZM60.4583 81.7H59.9583C59.6249 81.7 59.2516 81.7133 58.8383 81.74C58.4249 81.7667 58.0316 81.8333 57.6583 81.94C57.2983 82.0333 56.9916 82.18 56.7383 82.38C56.4849 82.5667 56.3583 82.8333 56.3583 83.18C56.3583 83.4067 56.4049 83.6 56.4983 83.76C56.6049 83.9067 56.7383 84.0333 56.8983 84.14C57.0583 84.2467 57.2383 84.3267 57.4383 84.38C57.6383 84.42 57.8383 84.44 58.0383 84.44C58.8649 84.44 59.4716 84.2467 59.8583 83.86C60.2583 83.46 60.4583 82.92 60.4583 82.24V81.7ZM65.3805 70.88H67.7805V86H65.3805V70.88ZM30.16 103.84H32.34L38.44 118H35.56L34.24 114.76H28.1L26.82 118H24L30.16 103.84ZM33.36 112.6L31.18 106.84L28.96 112.6H33.36ZM46.3536 111.28C46.0736 110.987 45.7803 110.753 45.4736 110.58C45.1669 110.407 44.8536 110.32 44.5336 110.32C44.0936 110.32 43.7003 110.4 43.3536 110.56C43.0069 110.72 42.7069 110.933 42.4536 111.2C42.2136 111.467 42.0269 111.773 41.8936 112.12C41.7736 112.467 41.7136 112.827 41.7136 113.2C41.7136 113.573 41.7736 113.933 41.8936 114.28C42.0269 114.627 42.2136 114.933 42.4536 115.2C42.7069 115.467 43.0069 115.68 43.3536 115.84C43.7003 116 44.0936 116.08 44.5336 116.08C44.9069 116.08 45.2536 116.007 45.5736 115.86C45.8936 115.7 46.1669 115.473 46.3936 115.18L47.9936 116.9C47.7536 117.14 47.4736 117.347 47.1536 117.52C46.8469 117.693 46.5336 117.833 46.2136 117.94C45.8936 118.047 45.5869 118.12 45.2936 118.16C45.0003 118.213 44.7469 118.24 44.5336 118.24C43.8136 118.24 43.1336 118.12 42.4936 117.88C41.8536 117.64 41.3003 117.3 40.8336 116.86C40.3669 116.42 39.9936 115.893 39.7136 115.28C39.4469 114.653 39.3136 113.96 39.3136 113.2C39.3136 112.44 39.4469 111.753 39.7136 111.14C39.9936 110.513 40.3669 109.98 40.8336 109.54C41.3003 109.1 41.8536 108.76 42.4936 108.52C43.1336 108.28 43.8136 108.16 44.5336 108.16C45.1469 108.16 45.7603 108.28 46.3736 108.52C47.0003 108.747 47.5469 109.113 48.0136 109.62L46.3536 111.28ZM56.002 111.28C55.722 110.987 55.4287 110.753 55.122 110.58C54.8154 110.407 54.502 110.32 54.182 110.32C53.742 110.32 53.3487 110.4 53.002 110.56C52.6554 110.72 52.3554 110.933 52.102 111.2C51.862 111.467 51.6754 111.773 51.542 112.12C51.422 112.467 51.362 112.827 51.362 113.2C51.362 113.573 51.422 113.933 51.542 114.28C51.6754 114.627 51.862 114.933 52.102 115.2C52.3554 115.467 52.6554 115.68 53.002 115.84C53.3487 116 53.742 116.08 54.182 116.08C54.5554 116.08 54.902 116.007 55.222 115.86C55.542 115.7 55.8154 115.473 56.042 115.18L57.642 116.9C57.402 117.14 57.122 117.347 56.802 117.52C56.4954 117.693 56.182 117.833 55.862 117.94C55.542 118.047 55.2354 118.12 54.942 118.16C54.6487 118.213 54.3954 118.24 54.182 118.24C53.462 118.24 52.782 118.12 52.142 117.88C51.502 117.64 50.9487 117.3 50.482 116.86C50.0154 116.42 49.642 115.893 49.362 115.28C49.0954 114.653 48.962 113.96 48.962 113.2C48.962 112.44 49.0954 111.753 49.362 111.14C49.642 110.513 50.0154 109.98 50.482 109.54C50.9487 109.1 51.502 108.76 52.142 108.52C52.782 108.28 53.462 108.16 54.182 108.16C54.7954 108.16 55.4087 108.28 56.022 108.52C56.6487 108.747 57.1954 109.113 57.662 109.62L56.002 111.28ZM58.6105 113.2C58.6105 112.44 58.7438 111.753 59.0105 111.14C59.2905 110.513 59.6638 109.98 60.1305 109.54C60.5971 109.1 61.1505 108.76 61.7905 108.52C62.4305 108.28 63.1105 108.16 63.8305 108.16C64.5505 108.16 65.2305 108.28 65.8705 108.52C66.5105 108.76 67.0638 109.1 67.5305 109.54C67.9971 109.98 68.3638 110.513 68.6305 111.14C68.9105 111.753 69.0505 112.44 69.0505 113.2C69.0505 113.96 68.9105 114.653 68.6305 115.28C68.3638 115.893 67.9971 116.42 67.5305 116.86C67.0638 117.3 66.5105 117.64 65.8705 117.88C65.2305 118.12 64.5505 118.24 63.8305 118.24C63.1105 118.24 62.4305 118.12 61.7905 117.88C61.1505 117.64 60.5971 117.3 60.1305 116.86C59.6638 116.42 59.2905 115.893 59.0105 115.28C58.7438 114.653 58.6105 113.96 58.6105 113.2ZM61.0105 113.2C61.0105 113.573 61.0705 113.933 61.1905 114.28C61.3238 114.627 61.5105 114.933 61.7505 115.2C62.0038 115.467 62.3038 115.68 62.6505 115.84C62.9971 116 63.3905 116.08 63.8305 116.08C64.2705 116.08 64.6638 116 65.0105 115.84C65.3571 115.68 65.6505 115.467 65.8905 115.2C66.1438 114.933 66.3305 114.627 66.4505 114.28C66.5838 113.933 66.6505 113.573 66.6505 113.2C66.6505 112.827 66.5838 112.467 66.4505 112.12C66.3305 111.773 66.1438 111.467 65.8905 111.2C65.6505 110.933 65.3571 110.72 65.0105 110.56C64.6638 110.4 64.2705 110.32 63.8305 110.32C63.3905 110.32 62.9971 110.4 62.6505 110.56C62.3038 110.72 62.0038 110.933 61.7505 111.2C61.5105 111.467 61.3238 111.773 61.1905 112.12C61.0705 112.467 61.0105 112.827 61.0105 113.2ZM80.0575 118H77.7775V116.46H77.7375C77.5108 116.94 77.1642 117.36 76.6975 117.72C76.2308 118.067 75.5975 118.24 74.7975 118.24C74.1575 118.24 73.6108 118.14 73.1575 117.94C72.7175 117.727 72.3575 117.447 72.0775 117.1C71.7975 116.74 71.5975 116.333 71.4775 115.88C71.3575 115.427 71.2975 114.953 71.2975 114.46V108.4H73.6975V113.26C73.6975 113.527 73.7108 113.827 73.7375 114.16C73.7642 114.48 73.8308 114.787 73.9375 115.08C74.0575 115.36 74.2308 115.6 74.4575 115.8C74.6975 115.987 75.0308 116.08 75.4575 116.08C75.8575 116.08 76.1908 116.013 76.4575 115.88C76.7375 115.747 76.9642 115.567 77.1375 115.34C77.3242 115.113 77.4575 114.853 77.5375 114.56C77.6175 114.267 77.6575 113.96 77.6575 113.64V108.4H80.0575V118ZM82.7819 108.4H85.0619V109.94H85.1019C85.3285 109.46 85.6752 109.047 86.1419 108.7C86.6085 108.34 87.2419 108.16 88.0419 108.16C88.6819 108.16 89.2219 108.267 89.6619 108.48C90.1152 108.693 90.4819 108.973 90.7619 109.32C91.0419 109.667 91.2419 110.067 91.3619 110.52C91.4819 110.973 91.5419 111.447 91.5419 111.94V118H89.1419V113.14C89.1419 112.873 89.1285 112.58 89.1019 112.26C89.0752 111.927 89.0019 111.62 88.8819 111.34C88.7752 111.047 88.6019 110.807 88.3619 110.62C88.1219 110.42 87.7952 110.32 87.3819 110.32C86.9819 110.32 86.6419 110.387 86.3619 110.52C86.0952 110.653 85.8685 110.833 85.6819 111.06C85.5085 111.287 85.3819 111.547 85.3019 111.84C85.2219 112.133 85.1819 112.44 85.1819 112.76V118H82.7819V108.4ZM93.1463 110.44V108.4H95.1263V105.62H97.5263V108.4H100.166V110.44H97.5263V114.64C97.5263 115.12 97.6129 115.5 97.7863 115.78C97.9729 116.06 98.3329 116.2 98.8663 116.2C99.0796 116.2 99.3129 116.18 99.5663 116.14C99.8196 116.087 100.02 116.007 100.166 115.9V117.92C99.9129 118.04 99.5996 118.12 99.2263 118.16C98.8663 118.213 98.5463 118.24 98.2663 118.24C97.6263 118.24 97.0996 118.167 96.6863 118.02C96.2863 117.887 95.9663 117.68 95.7263 117.4C95.4996 117.107 95.3396 116.747 95.2463 116.32C95.1663 115.893 95.1263 115.4 95.1263 114.84V110.44H93.1463ZM107.16 111.06C106.693 110.407 106.066 110.08 105.28 110.08C104.96 110.08 104.646 110.16 104.34 110.32C104.033 110.48 103.88 110.74 103.88 111.1C103.88 111.393 104.006 111.607 104.26 111.74C104.513 111.873 104.833 111.987 105.22 112.08C105.606 112.173 106.02 112.273 106.46 112.38C106.913 112.473 107.333 112.627 107.72 112.84C108.106 113.04 108.426 113.32 108.68 113.68C108.933 114.04 109.06 114.533 109.06 115.16C109.06 115.733 108.933 116.22 108.68 116.62C108.44 117.007 108.12 117.32 107.72 117.56C107.333 117.8 106.893 117.973 106.4 118.08C105.906 118.187 105.413 118.24 104.92 118.24C104.173 118.24 103.486 118.133 102.86 117.92C102.233 117.707 101.673 117.32 101.18 116.76L102.78 115.26C103.086 115.607 103.413 115.893 103.76 116.12C104.12 116.333 104.553 116.44 105.06 116.44C105.233 116.44 105.413 116.42 105.6 116.38C105.786 116.34 105.96 116.273 106.12 116.18C106.28 116.087 106.406 115.973 106.5 115.84C106.606 115.693 106.66 115.527 106.66 115.34C106.66 115.007 106.533 114.76 106.28 114.6C106.026 114.44 105.706 114.313 105.32 114.22C104.933 114.113 104.513 114.02 104.06 113.94C103.62 113.847 103.206 113.707 102.82 113.52C102.433 113.32 102.113 113.047 101.86 112.7C101.606 112.353 101.48 111.873 101.48 111.26C101.48 110.727 101.586 110.267 101.8 109.88C102.026 109.48 102.32 109.153 102.68 108.9C103.04 108.647 103.453 108.46 103.92 108.34C104.386 108.22 104.86 108.16 105.34 108.16C105.98 108.16 106.613 108.273 107.24 108.5C107.866 108.713 108.373 109.087 108.76 109.62L107.16 111.06Z" fill="#221F1F" fill-opacity="0.6"/>
<path d="M33.38 40.968H24.952V37.636L32.932 25.176H36.74V37.944H39.624V40.968H36.74V45H33.38V40.968ZM33.38 29.936H33.324L28.368 37.944H33.38V29.936ZM54.7103 28.2H46.7303L46.6463 32.148C46.9076 32.0547 47.2343 31.9893 47.6263 31.952C48.037 31.9147 48.4196 31.896 48.7743 31.896C49.745 31.896 50.6316 32.0547 51.4343 32.372C52.2556 32.6707 52.9556 33.1093 53.5343 33.688C54.113 34.2667 54.561 34.9573 54.8783 35.76C55.2143 36.5627 55.3823 37.468 55.3823 38.476C55.3823 39.54 55.1956 40.5013 54.8223 41.36C54.4676 42.2 53.9636 42.9187 53.3103 43.516C52.6756 44.0947 51.9196 44.5427 51.0423 44.86C50.165 45.1773 49.2223 45.336 48.2143 45.336C46.6276 45.336 45.2743 44.9627 44.1543 44.216C43.053 43.4693 42.269 42.3307 41.8023 40.8L45.3303 39.848C45.5543 40.5573 45.937 41.1173 46.4783 41.528C47.0196 41.9387 47.7196 42.144 48.5783 42.144C49.0823 42.144 49.5396 42.06 49.9503 41.892C50.3796 41.724 50.7436 41.4907 51.0423 41.192C51.3596 40.8747 51.6023 40.5107 51.7703 40.1C51.9383 39.6893 52.0223 39.2413 52.0223 38.756C52.0223 38.0653 51.8916 37.4773 51.6303 36.992C51.3876 36.5067 51.0516 36.1147 50.6223 35.816C50.193 35.4987 49.6983 35.2747 49.1383 35.144C48.5783 34.9947 47.9903 34.92 47.3743 34.92C46.6463 34.92 45.9183 35.004 45.1903 35.172C44.481 35.34 43.8276 35.5733 43.2303 35.872L43.4263 25.176H54.7103V28.2ZM71.2806 40.128C71.2806 39.4 71.4113 38.728 71.6726 38.112C71.9526 37.4773 72.326 36.9267 72.7926 36.46C73.278 35.9747 73.8286 35.6013 74.4446 35.34C75.0793 35.06 75.7606 34.92 76.4886 34.92C77.2166 34.92 77.8886 35.06 78.5046 35.34C79.1393 35.6013 79.69 35.9747 80.1566 36.46C80.642 36.9267 81.0153 37.4773 81.2766 38.112C81.5566 38.728 81.6966 39.4 81.6966 40.128C81.6966 40.856 81.5566 41.5373 81.2766 42.172C81.0153 42.788 80.642 43.3387 80.1566 43.824C79.69 44.2907 79.1393 44.664 78.5046 44.944C77.8886 45.2053 77.2166 45.336 76.4886 45.336C75.7606 45.336 75.0793 45.2053 74.4446 44.944C73.8286 44.664 73.278 44.2907 72.7926 43.824C72.326 43.3387 71.9526 42.788 71.6726 42.172C71.4113 41.5373 71.2806 40.856 71.2806 40.128ZM79.0086 40.128C79.0086 39.4187 78.766 38.8213 78.2806 38.336C77.7953 37.8507 77.198 37.608 76.4886 37.608C75.7793 37.608 75.182 37.8507 74.6966 38.336C74.2113 38.8213 73.9686 39.4187 73.9686 40.128C73.9686 40.8373 74.2113 41.4347 74.6966 41.92C75.182 42.4053 75.7793 42.648 76.4886 42.648C77.198 42.648 77.7953 42.4053 78.2806 41.92C78.766 41.4347 79.0086 40.8373 79.0086 40.128ZM57.9806 30.048C57.9806 29.32 58.1113 28.648 58.3726 28.032C58.6526 27.3973 59.026 26.8467 59.4926 26.38C59.978 25.8947 60.5286 25.5213 61.1446 25.26C61.7793 24.98 62.4606 24.84 63.1886 24.84C63.9166 24.84 64.5886 24.98 65.2046 25.26C65.8393 25.5213 66.39 25.8947 66.8566 26.38C67.342 26.8467 67.7153 27.3973 67.9766 28.032C68.2566 28.648 68.3966 29.32 68.3966 30.048C68.3966 30.776 68.2566 31.4573 67.9766 32.092C67.7153 32.708 67.342 33.2587 66.8566 33.744C66.39 34.2107 65.8393 34.584 65.2046 34.864C64.5886 35.1253 63.9166 35.256 63.1886 35.256C62.4606 35.256 61.7793 35.1253 61.1446 34.864C60.5286 34.584 59.978 34.2107 59.4926 33.744C59.026 33.2587 58.6526 32.708 58.3726 32.092C58.1113 31.4573 57.9806 30.776 57.9806 30.048ZM65.7086 30.048C65.7086 29.3387 65.466 28.7413 64.9806 28.256C64.4953 27.7707 63.898 27.528 63.1886 27.528C62.4793 27.528 61.882 27.7707 61.3966 28.256C60.9113 28.7413 60.6686 29.3387 60.6686 30.048C60.6686 30.7573 60.9113 31.3547 61.3966 31.84C61.882 32.3253 62.4793 32.568 63.1886 32.568C63.898 32.568 64.4953 32.3253 64.9806 31.84C65.466 31.3547 65.7086 30.7573 65.7086 30.048ZM74.5286 24.28L76.8526 25.344L65.2046 45.896L62.8806 44.832L74.5286 24.28Z" fill="#89C142"/>
</svg>
