<svg width="32" height="32" viewBox="0 0 32 32" fill="none" xmlns="http://www.w3.org/2000/svg">
<path fill-rule="evenodd" clip-rule="evenodd" d="M30.1876 30.3593C30.5762 30.381 30.9471 30.5277 31.2436 30.7771C31.4684 30.9994 31.3628 31.1813 30.9983 31.1948C30.7183 31.2056 30.4379 31.2165 30.157 31.2274C20.8304 31.5885 11.0487 31.9673 1.26385 32C0.934685 32.0009 0.618592 31.8727 0.38488 31.6434C0.151167 31.4142 0.0189106 31.1026 0.0171082 30.7771L7.61968e-05 25.3867C-0.0035781 25.0578 0.124338 24.7409 0.355952 24.5049C0.587567 24.2688 0.904107 24.1329 1.2366 24.1267C1.78333 24.1267 2.33005 24.1335 2.87678 24.1402C3.42351 24.1469 3.97024 24.1537 4.51696 24.1537C3.92427 20.9404 3.92427 17.6475 4.51696 14.4342C4.12815 14.439 3.73934 14.446 3.35038 14.4529C2.64886 14.4655 1.94684 14.478 1.24341 14.478C0.91515 14.4789 0.599923 14.351 0.36685 14.1224C0.133777 13.8938 0.00187859 13.5831 7.61968e-05 13.2585V9.2157C0.000438651 8.9888 0.0642726 8.76642 0.184513 8.57317C0.304754 8.37993 0.476712 8.22336 0.681356 8.12078C5.65924 5.41438 10.6667 2.75178 15.7036 0.132973H15.7376C15.9015 0.0456907 16.0847 0 16.2707 0C16.4568 0 16.64 0.0456907 16.8038 0.132973C21.7568 2.909 26.6858 5.7277 31.591 8.58907L31.6183 8.59918C31.7253 8.66021 31.8136 8.74888 31.8736 8.8557C31.9336 8.96252 31.9631 9.08346 31.9589 9.20559C31.9249 10.442 31.8295 11.6885 31.7171 12.8575V12.9654C31.6694 13.3562 31.465 13.4741 31.2436 13.2483C30.9953 12.9606 30.8315 12.611 30.7701 12.2377C30.6713 11.3516 30.593 10.5026 30.5453 9.66714C25.7672 7.2909 21.0108 4.87423 16.2759 2.41713C11.7136 4.95957 7.12854 7.47282 2.52081 9.95687V12.049C10.1305 12.1143 17.7546 12.3925 25.6338 12.68C27.1048 12.7337 28.5848 12.7877 30.0752 12.8407H30.1808C30.5738 12.8609 30.9494 13.0076 31.2504 13.2585C31.4752 13.4808 31.3628 13.6762 30.9983 13.6762L27.8099 13.784C28.5584 17.3256 28.5839 20.9795 27.8849 24.531C28.349 24.5436 28.8131 24.5533 29.2773 24.5631C29.927 24.5767 30.5768 24.5902 31.2265 24.6119H31.2708C31.4696 24.6189 31.6576 24.7031 31.794 24.8463C31.9305 24.9894 32.0044 25.1799 31.9998 25.3766C31.9521 27.0847 31.8295 28.7995 31.6966 30.4098V30.5109C31.6592 30.8849 31.4582 30.9927 31.2368 30.767C30.9885 30.4804 30.8278 30.1298 30.7735 29.7563C30.6645 28.5098 30.5691 27.3374 30.5078 26.1717C21.1811 26.4771 11.8509 26.6299 2.51741 26.6299V29.5642C9.98223 29.6227 17.4587 29.8974 25.1812 30.1811C26.8044 30.2408 28.4384 30.3008 30.0854 30.3593H30.1876ZM13.7393 24.2404C14.31 24.2414 14.8808 24.2424 15.4515 24.2514C14.8316 20.934 14.8443 17.5313 15.489 14.2186C14.1911 14.2557 12.8865 14.286 11.5818 14.3163H11.5818C12.2061 17.5885 12.2119 20.9468 11.5989 24.2211C12.3123 24.2379 13.0258 24.2392 13.7393 24.2404ZM20.9699 14.0434L17.0014 14.1782C17.6587 17.5108 17.6761 20.936 17.0525 24.275C17.7589 24.2878 18.4662 24.3067 19.1735 24.3256C19.7623 24.3413 20.3511 24.357 20.9392 24.3693C20.2783 20.9574 20.2887 17.4514 20.9699 14.0434ZM25.8654 24.4886C26.0446 24.4938 26.2238 24.499 26.4031 24.5041C25.7095 20.9771 25.7338 17.3487 26.4746 13.8312L22.4312 13.9794C23.1316 17.4246 23.149 20.9715 22.4823 24.4232C23.6002 24.4232 24.7309 24.4559 25.8654 24.4886ZM7.11398 14.4095C6.79691 14.4143 6.47969 14.4191 6.16225 14.4241C6.76008 17.6483 6.76008 20.9531 6.16225 24.1773C6.69572 24.1801 7.22979 24.1858 7.76395 24.1915C8.51225 24.1996 9.26075 24.2076 10.0081 24.2076C9.4 20.9526 9.4 17.6151 10.0081 14.3601C9.04386 14.3804 8.07965 14.395 7.11398 14.4095ZM17.618 7.8681C17.618 8.61236 17.008 9.21569 16.2554 9.21569C15.5029 9.21569 14.8929 8.61236 14.8929 7.8681C14.8929 7.12385 15.5029 6.52052 16.2554 6.52052C17.008 6.52052 17.618 7.12385 17.618 7.8681Z" fill="url(#paint0_linear)"/>
<defs>
<linearGradient id="paint0_linear" x1="0" y1="16" x2="32" y2="16" gradientUnits="userSpaceOnUse">
<stop stop-color="#56AB2F"/>
<stop offset="1" stop-color="#93D642"/>
</linearGradient>
</defs>
</svg>
