<svg width="552" height="389" viewBox="0 0 552 389" fill="none" xmlns="http://www.w3.org/2000/svg">
<g clip-path="url(#clip0)">
<mask id="mask0" mask-type="alpha" maskUnits="userSpaceOnUse" x="0" y="0" width="552" height="388">
<rect width="552" height="388" fill="url(#paint0_linear)"/>
</mask>
<g mask="url(#mask0)">
<path d="M287.631 217.075H249.506V218.305H255.452V229.988H256.682V218.305H279.84V229.988H281.07V218.305H287.631V217.075Z" fill="white" fill-opacity="0.5"/>
<path d="M301.775 186.944H291.936V196.782H296.497V229.934H297.727V196.782H301.775V186.944Z" fill="white" fill-opacity="0.5"/>
<path d="M287.706 213.395H249.581V214.625H287.706V213.395Z" fill="white" fill-opacity="0.5"/>
<path d="M287.706 210.321H249.581V211.551H287.706V210.321Z" fill="white" fill-opacity="0.5"/>
<path d="M287.706 207.246H249.581V208.476H287.706V207.246Z" fill="white" fill-opacity="0.5"/>
<path d="M385.405 233.533H384.175C384.175 175.212 336.728 127.765 278.407 127.765C220.087 127.765 172.64 175.212 172.64 233.533H171.41C171.41 174.535 219.409 126.535 278.407 126.535C337.406 126.535 385.405 174.535 385.405 233.533Z" fill="white" fill-opacity="0.5"/>
<path d="M100.541 201.082C156.068 201.082 201.082 156.068 201.082 100.541C201.082 45.0137 156.068 0 100.541 0C45.0137 0 0 45.0137 0 100.541C0 156.068 45.0137 201.082 100.541 201.082Z" fill="url(#paint1_linear)"/>
<path opacity="0.2" d="M175.33 33.3875C184.708 55.3248 185.98 79.8821 178.919 102.671C171.858 125.46 156.924 144.996 136.785 157.787C116.646 170.579 92.6147 175.792 68.9856 172.497C45.3565 169.201 23.6691 157.611 7.79883 139.797C13.5277 153.2 22.1021 165.197 32.9278 174.957C43.7536 184.717 56.5718 192.007 70.4945 196.321C84.4172 200.635 99.1115 201.871 113.559 199.943C128.007 198.014 141.863 192.968 154.166 185.153C166.47 177.338 176.928 166.941 184.815 154.684C192.702 142.426 197.829 128.6 199.842 114.164C201.855 99.7278 200.706 85.0266 196.473 71.0788C192.241 57.1311 185.026 44.2703 175.33 33.3875Z" fill="white" fill-opacity="0.5"/>
<path d="M100.817 100.541H101.093L106.065 385.591H95.5693L100.817 100.541Z" fill="white" fill-opacity="0.5"/>
<path d="M119.124 255.806L116.808 251.407L100.188 260.157L102.504 264.556L119.124 255.806Z" fill="white" fill-opacity="0.5"/>
<path d="M470.625 224.571C515.567 224.571 552 188.138 552 143.196C552 98.2539 515.567 61.8211 470.625 61.8211C425.683 61.8211 389.25 98.2539 389.25 143.196C389.25 188.138 425.683 224.571 470.625 224.571Z" fill="url(#paint2_linear)"/>
<path opacity="0.2" d="M531.157 88.844C538.747 106.599 539.777 126.475 534.062 144.92C528.347 163.365 516.259 179.176 499.959 189.53C483.66 199.883 464.21 204.102 445.085 201.435C425.96 198.768 408.407 189.387 395.562 174.969C400.199 185.817 407.139 195.527 415.901 203.426C424.663 211.326 435.037 217.226 446.306 220.718C457.575 224.21 469.468 225.21 481.161 223.649C492.855 222.088 504.069 218.004 514.028 211.678C523.986 205.353 532.45 196.939 538.833 187.018C545.217 177.097 549.367 165.906 550.996 154.222C552.626 142.538 551.695 130.639 548.27 119.35C544.844 108.061 539.005 97.6522 531.157 88.844Z" fill="white" fill-opacity="0.5"/>
<path d="M470.849 143.196H471.072L475.097 373.907H466.602L470.849 143.196Z" fill="white" fill-opacity="0.5"/>
<path d="M485.666 268.863L483.791 265.302L470.339 272.384L472.214 275.945L485.666 268.863Z" fill="white" fill-opacity="0.5"/>
<path d="M230.495 213.269C237.57 213.269 243.306 207.534 243.306 200.459C243.306 193.384 237.57 187.648 230.495 187.648C223.42 187.648 217.685 193.384 217.685 200.459C217.685 207.534 223.42 213.269 230.495 213.269Z" fill="url(#paint3_linear)"/>
<path opacity="0.2" d="M240.024 191.903C241.219 194.698 241.381 197.827 240.482 200.73C239.582 203.634 237.679 206.123 235.113 207.753C232.547 209.383 229.485 210.047 226.475 209.627C223.464 209.207 220.701 207.73 218.679 205.461C219.409 207.168 220.501 208.697 221.88 209.94C223.26 211.184 224.893 212.113 226.667 212.663C228.441 213.212 230.313 213.37 232.154 213.124C233.995 212.878 235.76 212.235 237.328 211.24C238.896 210.244 240.228 208.919 241.233 207.357C242.238 205.796 242.891 204.034 243.148 202.195C243.404 200.355 243.258 198.482 242.718 196.705C242.179 194.928 241.26 193.289 240.024 191.903Z" fill="white" fill-opacity="0.5"/>
<path d="M230.53 200.459H230.565L231.199 236.778H229.862L230.53 200.459Z" fill="white" fill-opacity="0.5"/>
<path d="M232.863 220.242L232.568 219.681L230.45 220.796L230.745 221.357L232.863 220.242Z" fill="white" fill-opacity="0.5"/>
<path d="M348.869 191.966C366.982 191.966 381.665 177.283 381.665 159.171C381.665 141.058 366.982 126.375 348.869 126.375C330.757 126.375 316.074 141.058 316.074 159.171C316.074 177.283 330.757 191.966 348.869 191.966Z" fill="url(#paint4_linear)"/>
<path opacity="0.2" d="M373.265 137.266C376.324 144.422 376.739 152.432 374.436 159.866C372.132 167.299 367.261 173.671 360.692 177.844C354.123 182.016 346.284 183.717 338.576 182.642C330.869 181.567 323.794 177.786 318.618 171.976C320.486 176.348 323.283 180.261 326.815 183.445C330.346 186.628 334.527 189.006 339.068 190.413C343.61 191.821 348.403 192.224 353.116 191.595C357.828 190.966 362.348 189.32 366.361 186.77C370.375 184.221 373.786 180.83 376.359 176.832C378.931 172.833 380.604 168.323 381.261 163.614C381.917 158.905 381.542 154.11 380.162 149.56C378.781 145.011 376.428 140.816 373.265 137.266Z" fill="white" fill-opacity="0.5"/>
<path d="M348.959 159.171H349.049L350.671 252.152H347.247L348.959 159.171Z" fill="white" fill-opacity="0.5"/>
<path d="M354.931 209.817L354.175 208.382L348.754 211.236L349.51 212.671L354.931 209.817Z" fill="white" fill-opacity="0.5"/>
<path d="M123.08 371.401C123.08 371.401 123.505 362.503 132.21 363.537L123.08 371.401Z" fill="white" fill-opacity="0.5"/>
<path d="M120.62 362.933C123.026 362.933 124.977 360.983 124.977 358.576C124.977 356.17 123.026 354.219 120.62 354.219C118.214 354.219 116.263 356.17 116.263 358.576C116.263 360.983 118.214 362.933 120.62 362.933Z" fill="url(#paint5_linear)"/>
<path d="M121.141 365.913H119.911V374.522H121.141V365.913Z" fill="white" fill-opacity="0.5"/>
<path d="M153.826 351.108C153.826 351.108 154.251 342.21 162.956 343.245L153.826 351.108Z" fill="white" fill-opacity="0.5"/>
<path d="M151.367 342.641C153.773 342.641 155.724 340.69 155.724 338.284C155.724 335.877 153.773 333.927 151.367 333.927C148.96 333.927 147.01 335.877 147.01 338.284C147.01 340.69 148.96 342.641 151.367 342.641Z" fill="url(#paint6_linear)"/>
<path d="M151.888 345.621H150.658V354.23H151.888V345.621Z" fill="white" fill-opacity="0.5"/>
<path d="M246.508 282.263C246.508 282.263 246.845 275.196 253.759 276.018L246.508 282.263Z" fill="white" fill-opacity="0.5"/>
<path d="M244.554 275.538C246.465 275.538 248.015 273.989 248.015 272.078C248.015 270.167 246.465 268.617 244.554 268.617C242.643 268.617 241.094 270.167 241.094 272.078C241.094 273.989 242.643 275.538 244.554 275.538Z" fill="url(#paint7_linear)"/>
<path d="M244.968 277.905H243.991V284.743H244.968V277.905Z" fill="white" fill-opacity="0.5"/>
<path d="M381.792 260.126C381.792 260.126 382.129 253.059 389.043 253.88L381.792 260.126Z" fill="white" fill-opacity="0.5"/>
<path d="M379.838 253.401C381.75 253.401 383.299 251.851 383.299 249.94C383.299 248.029 381.75 246.48 379.838 246.48C377.927 246.48 376.378 248.029 376.378 249.94C376.378 251.851 377.927 253.401 379.838 253.401Z" fill="url(#paint8_linear)"/>
<path d="M380.252 255.768H379.275V262.605H380.252V255.768Z" fill="white" fill-opacity="0.5"/>
<path d="M252.657 300.711C252.657 300.711 252.994 293.644 259.909 294.466L252.657 300.711Z" fill="white" fill-opacity="0.5"/>
<path d="M250.704 293.986C252.615 293.986 254.164 292.437 254.164 290.526C254.164 288.614 252.615 287.065 250.704 287.065C248.792 287.065 247.243 288.614 247.243 290.526C247.243 292.437 248.792 293.986 250.704 293.986Z" fill="url(#paint9_linear)"/>
<path d="M251.117 296.353H250.141V303.191H251.117V296.353Z" fill="white" fill-opacity="0.5"/>
<path d="M237.899 314.24C237.899 314.24 238.236 307.173 245.15 307.994L237.899 314.24Z" fill="white" fill-opacity="0.5"/>
<path d="M235.945 307.515C237.857 307.515 239.406 305.965 239.406 304.054C239.406 302.143 237.857 300.594 235.945 300.594C234.034 300.594 232.485 302.143 232.485 304.054C232.485 305.965 234.034 307.515 235.945 307.515Z" fill="url(#paint10_linear)"/>
<path d="M236.359 309.881H235.382V316.719H236.359V309.881Z" fill="white" fill-opacity="0.5"/>
<path d="M402.7 271.81C402.7 271.81 403.037 264.743 409.951 265.564L402.7 271.81Z" fill="white" fill-opacity="0.5"/>
<path d="M400.746 265.084C402.657 265.084 404.207 263.535 404.207 261.624C404.207 259.713 402.657 258.163 400.746 258.163C398.835 258.163 397.286 259.713 397.286 261.624C397.286 263.535 398.835 265.084 400.746 265.084Z" fill="url(#paint11_linear)"/>
<path d="M401.16 267.451H400.183V274.289H401.16V267.451Z" fill="white" fill-opacity="0.5"/>
<path d="M203.463 287.183C203.463 287.183 203.8 280.116 210.714 280.937L203.463 287.183Z" fill="white" fill-opacity="0.5"/>
<path d="M201.509 280.458C203.42 280.458 204.97 278.908 204.97 276.997C204.97 275.086 203.42 273.537 201.509 273.537C199.598 273.537 198.049 275.086 198.049 276.997C198.049 278.908 199.598 280.458 201.509 280.458Z" fill="url(#paint12_linear)"/>
<path d="M201.923 282.824H200.946V289.662H201.923V282.824Z" fill="white" fill-opacity="0.5"/>
<path d="M363.344 252.132C363.344 252.132 363.681 245.065 370.596 245.886L363.344 252.132Z" fill="white" fill-opacity="0.5"/>
<path d="M361.391 245.407C363.302 245.407 364.851 243.857 364.851 241.946C364.851 240.035 363.302 238.486 361.391 238.486C359.479 238.486 357.93 240.035 357.93 241.946C357.93 243.857 359.479 245.407 361.391 245.407Z" fill="url(#paint13_linear)"/>
<path d="M361.804 247.773H360.828V254.611H361.804V247.773Z" fill="white" fill-opacity="0.5"/>
<path d="M69.5811 373.246C69.5811 373.246 70.0057 364.348 78.7109 365.382L69.5811 373.246Z" fill="white" fill-opacity="0.5"/>
<path d="M67.1211 364.778C69.5274 364.778 71.478 362.828 71.478 360.421C71.478 358.015 69.5274 356.064 67.1211 356.064C64.7148 356.064 62.7642 358.015 62.7642 360.421C62.7642 362.828 64.7148 364.778 67.1211 364.778Z" fill="url(#paint14_linear)"/>
<path d="M67.642 367.758H66.4121V376.367H67.642V367.758Z" fill="white" fill-opacity="0.5"/>
<path d="M493.267 370.786C493.267 370.786 493.692 361.888 502.397 362.922L493.267 370.786Z" fill="white" fill-opacity="0.5"/>
<path d="M490.808 362.318C493.214 362.318 495.165 360.368 495.165 357.961C495.165 355.555 493.214 353.605 490.808 353.605C488.401 353.605 486.451 355.555 486.451 357.961C486.451 360.368 488.401 362.318 490.808 362.318Z" fill="url(#paint15_linear)"/>
<path d="M491.329 365.298H490.099V373.907H491.329V365.298Z" fill="white" fill-opacity="0.5"/>
<path d="M457.602 349.878C457.602 349.878 458.026 340.98 466.731 342.015L457.602 349.878Z" fill="white" fill-opacity="0.5"/>
<path d="M455.142 341.411C457.548 341.411 459.499 339.46 459.499 337.054C459.499 334.648 457.548 332.697 455.142 332.697C452.735 332.697 450.785 334.648 450.785 337.054C450.785 339.46 452.735 341.411 455.142 341.411Z" fill="url(#paint16_linear)"/>
<path d="M455.662 344.391H454.433V353H455.662V344.391Z" fill="white" fill-opacity="0.5"/>
<path d="M452.682 381.24C452.682 381.24 453.107 372.342 461.812 373.376L452.682 381.24Z" fill="white" fill-opacity="0.5"/>
<path d="M450.222 372.772C452.628 372.772 454.579 370.822 454.579 368.415C454.579 366.009 452.628 364.058 450.222 364.058C447.816 364.058 445.865 366.009 445.865 368.415C445.865 370.822 447.816 372.772 450.222 372.772Z" fill="url(#paint17_linear)"/>
<path d="M450.743 375.752H449.513V384.361H450.743V375.752Z" fill="white" fill-opacity="0.5"/>
<path d="M76.6597 387.88C76.6597 387.88 270.362 336.841 268.518 284.572C265.135 270.121 241.768 266.432 241.768 266.432C241.768 266.432 186.424 259.053 216.556 241.22C246.688 223.387 329.088 227.691 329.088 227.691C329.088 227.691 244.228 241.22 281.739 248.599C311.87 250.444 350.611 258.438 350.611 258.438C350.611 258.438 429.322 275.041 440.39 315.626C451.459 356.212 442.235 387.573 442.235 387.573L76.6597 387.88Z" fill="url(#paint18_linear)"/>
<path d="M287.636 388.08L286.91 387.066C287.935 386.333 288.944 385.605 289.938 384.88L290.672 385.888C289.674 386.614 288.662 387.344 287.636 388.08Z" fill="white"/>
<path d="M296.677 381.428L295.924 380.435C297.938 378.91 299.921 377.376 301.819 375.876L302.592 376.853C300.687 378.359 298.697 379.899 296.677 381.428ZM308.406 372.144L307.61 371.185C309.559 369.566 311.465 367.939 313.274 366.35L314.097 367.285C312.279 368.883 310.364 370.518 308.406 372.144ZM319.642 362.256L318.789 361.347C320.649 359.602 322.442 357.856 324.119 356.155L325.006 357.03C323.318 358.742 321.513 360.501 319.642 362.256ZM330.147 351.576L329.219 350.743C330.928 348.84 332.544 346.933 334.023 345.077L334.998 345.854C333.504 347.728 331.872 349.654 330.147 351.576ZM339.464 339.819L338.435 339.117C339.883 336.994 341.19 334.874 342.319 332.818L343.412 333.417C342.264 335.509 340.936 337.663 339.464 339.819ZM346.63 326.6L345.47 326.145C346.374 323.865 347.082 321.511 347.586 319.11L348.807 319.361C348.288 321.832 347.56 324.254 346.63 326.6V326.6ZM348.294 311.835C348.257 309.413 347.92 307.004 347.291 304.665L348.495 304.34C349.15 306.779 349.501 309.289 349.54 311.814L348.294 311.835ZM344.565 297.938C343.382 295.8 341.993 293.784 340.418 291.916L341.373 291.116C343 293.046 344.436 295.13 345.658 297.339L344.565 297.938ZM335.268 286.656C333.416 285.025 331.476 283.497 329.457 282.078L330.176 281.061C332.233 282.505 334.209 284.062 336.095 285.724L335.268 286.656ZM323.212 278.067C321.173 276.869 318.974 275.673 316.677 274.514L317.238 273.401C319.56 274.573 321.782 275.781 323.844 276.993L323.212 278.067ZM309.942 271.329C307.772 270.365 305.462 269.395 303.074 268.445L303.535 267.287C305.938 268.243 308.263 269.22 310.448 270.189L309.942 271.329ZM296.086 265.796C293.866 264.991 291.492 264.165 289.032 263.34L289.427 262.158C291.897 262.986 294.281 263.816 296.511 264.624L296.086 265.796ZM281.922 261.031C279.75 260.346 277.412 259.625 274.774 258.826L275.136 257.633C277.778 258.434 280.121 259.156 282.297 259.842L281.922 261.031ZM267.603 256.674C265.082 255.92 262.679 255.199 260.428 254.506L260.795 253.315C263.043 254.008 265.443 254.727 267.961 255.48L267.603 256.674ZM253.282 252.195C250.884 251.404 248.54 250.46 246.263 249.37L246.823 248.256C249.051 249.322 251.344 250.244 253.689 251.017L253.282 252.195ZM243.871 244.026L242.982 243.152C244.119 241.998 246.366 240.868 249.853 239.699L250.249 240.88C246.998 241.97 244.852 243.029 243.871 244.026L243.871 244.026ZM257.378 238.85L257.077 237.641C259.232 237.104 261.687 236.542 264.375 235.972L264.633 237.191C261.96 237.758 259.519 238.317 257.378 238.85V238.85ZM271.94 235.723L271.706 234.499C274.003 234.06 276.476 233.606 279.057 233.148L279.275 234.375C276.699 234.832 274.231 235.285 271.94 235.723V235.723ZM286.626 233.109L286.421 231.88C288.769 231.486 291.226 231.084 293.793 230.672L293.99 231.902C291.426 232.314 288.971 232.716 286.626 233.109Z" fill="url(#paint19_linear)"/>
<path d="M301.505 230.719L301.313 229.488C302.525 229.3 303.758 229.111 305.012 228.92L305.199 230.152C303.946 230.343 302.714 230.532 301.505 230.719Z" fill="white"/>
<path d="M329.086 104.134L334.747 99.6068C330.349 99.1216 328.542 101.52 327.803 103.418C324.367 101.992 320.627 103.861 320.627 103.861L331.953 107.973C331.382 106.447 330.387 105.115 329.086 104.134Z" fill="white" fill-opacity="0.5"/>
<path d="M223.933 139.185L229.594 134.658C225.196 134.173 223.389 136.571 222.65 138.469C219.214 137.043 215.474 138.912 215.474 138.912L226.8 143.024C226.229 141.498 225.234 140.166 223.933 139.185Z" fill="white" fill-opacity="0.5"/>
<path d="M251.604 66.6237L257.265 62.0961C252.868 61.6109 251.061 64.0093 250.321 65.9077C246.886 64.4811 243.146 66.3507 243.146 66.3507L254.472 70.4626C253.9 68.9364 252.906 67.6047 251.604 66.6237Z" fill="white" fill-opacity="0.5"/>
<path d="M333.226 244.872C331.298 244.419 329.619 243.241 328.536 241.583C327.453 239.925 327.051 237.913 327.411 235.966C327.378 236.083 327.347 236.201 327.318 236.321C326.852 238.31 327.195 240.403 328.272 242.14C329.348 243.877 331.07 245.115 333.059 245.582C335.048 246.049 337.142 245.708 338.879 244.632C340.616 243.557 341.855 241.836 342.324 239.847C342.352 239.727 342.376 239.607 342.399 239.487C341.854 241.392 340.598 243.013 338.89 244.016C337.182 245.018 335.154 245.325 333.226 244.872Z" fill="#0D2333"/>
</g>
</g>
<path d="M313.143 268.215C313.143 268.215 308.24 268.215 307.695 271.212C307.15 274.208 306.333 306.896 306.878 310.982C307.423 315.068 307.423 314.25 307.423 314.25C307.423 314.25 306.337 322.015 308.786 322.355C311.236 322.695 311.236 313.433 311.236 313.433L313.143 280.201V268.215Z" fill="#9E616A"/>
<path d="M334.39 268.215C334.39 268.215 339.293 268.215 339.838 271.212C340.383 274.208 341.2 306.896 340.655 310.982C340.11 315.068 340.11 314.25 340.11 314.25C340.11 314.25 341.197 322.015 338.747 322.355C336.297 322.695 336.297 313.433 336.297 313.433L334.39 280.201V268.215Z" fill="#9E616A"/>
<path d="M312.326 382.077H310.147C309.503 382.077 308.865 382.204 308.27 382.451C307.676 382.697 307.135 383.058 306.68 383.513C306.224 383.969 305.863 384.509 305.617 385.104C305.37 385.699 305.244 386.336 305.244 386.98V386.98H318.591V380.715H312.326V382.077Z" fill="url(#paint20_linear)"/>
<path d="M333.301 382.077H335.48C336.78 382.077 338.027 382.594 338.947 383.513C339.867 384.433 340.383 385.68 340.383 386.98V386.98H327.036V380.715H333.301V382.077Z" fill="url(#paint21_linear)"/>
<path d="M321.588 261.95C325.499 261.95 328.67 258.779 328.67 254.868C328.67 250.956 325.499 247.786 321.588 247.786C317.676 247.786 314.505 250.956 314.505 254.868C314.505 258.779 317.676 261.95 321.588 261.95Z" fill="#9E616A"/>
<path d="M319.953 258.681C319.953 258.681 319.136 267.671 318.046 268.488C316.957 269.305 329.487 267.943 329.487 267.943C329.487 267.943 325.128 261.405 325.946 259.226C326.763 257.047 319.953 258.681 319.953 258.681Z" fill="#9E616A"/>
<path d="M336.025 268.215C336.025 268.215 321.043 261.95 311.237 268.215C311.237 268.215 308.785 274.48 310.692 278.022C312.598 281.563 315.595 290.007 312.599 295.727C309.602 301.448 312.871 298.996 312.871 298.996C312.871 298.996 309.057 314.25 308.513 326.236C307.968 338.221 310.147 381.26 311.781 381.532C313.416 381.805 318.591 382.35 319.136 381.532C319.681 380.715 323.494 323.784 323.494 323.784C323.494 323.784 325.129 382.077 326.763 382.077C328.398 382.077 332.756 382.077 333.573 380.715C334.39 379.353 341.2 326.781 338.749 315.885C336.297 304.989 334.663 299.541 334.663 299.541C334.663 299.541 337.659 297.634 336.842 296.545C336.025 295.455 331.939 283.742 333.845 281.835C335.752 279.928 336.025 268.215 336.025 268.215Z" fill="url(#paint22_linear)"/>
<path d="M326.082 262.04C332.401 262.04 337.523 256.918 337.523 250.599C337.523 244.281 332.401 239.159 326.082 239.159C319.764 239.159 314.642 244.281 314.642 250.599C314.642 256.918 319.764 262.04 326.082 262.04Z" fill="url(#paint23_linear)"/>
<path d="M333.692 246.363C336.784 246.363 339.291 243.856 339.291 240.764C339.291 237.672 336.784 235.165 333.692 235.165C330.6 235.165 328.093 237.672 328.093 240.764C328.093 243.856 330.6 246.363 333.692 246.363Z" fill="url(#paint24_linear)"/>
<defs>
<linearGradient id="paint0_linear" x1="276" y1="0" x2="276" y2="388" gradientUnits="userSpaceOnUse">
<stop stop-color="white"/>
<stop offset="1" stop-color="white" stop-opacity="0"/>
</linearGradient>
<linearGradient id="paint1_linear" x1="0" y1="100.541" x2="201.082" y2="100.541" gradientUnits="userSpaceOnUse">
<stop stop-color="#56AB2F"/>
<stop offset="1" stop-color="#93D642"/>
</linearGradient>
<linearGradient id="paint2_linear" x1="389.25" y1="143.196" x2="552" y2="143.196" gradientUnits="userSpaceOnUse">
<stop stop-color="#56AB2F"/>
<stop offset="1" stop-color="#93D642"/>
</linearGradient>
<linearGradient id="paint3_linear" x1="217.685" y1="200.459" x2="243.306" y2="200.459" gradientUnits="userSpaceOnUse">
<stop stop-color="#56AB2F"/>
<stop offset="1" stop-color="#93D642"/>
</linearGradient>
<linearGradient id="paint4_linear" x1="316.074" y1="159.171" x2="381.665" y2="159.171" gradientUnits="userSpaceOnUse">
<stop stop-color="#56AB2F"/>
<stop offset="1" stop-color="#93D642"/>
</linearGradient>
<linearGradient id="paint5_linear" x1="116.263" y1="358.576" x2="124.977" y2="358.576" gradientUnits="userSpaceOnUse">
<stop stop-color="#56AB2F"/>
<stop offset="1" stop-color="#93D642"/>
</linearGradient>
<linearGradient id="paint6_linear" x1="147.01" y1="338.284" x2="155.724" y2="338.284" gradientUnits="userSpaceOnUse">
<stop stop-color="#56AB2F"/>
<stop offset="1" stop-color="#93D642"/>
</linearGradient>
<linearGradient id="paint7_linear" x1="241.094" y1="272.078" x2="248.015" y2="272.078" gradientUnits="userSpaceOnUse">
<stop stop-color="#56AB2F"/>
<stop offset="1" stop-color="#93D642"/>
</linearGradient>
<linearGradient id="paint8_linear" x1="376.378" y1="249.94" x2="383.299" y2="249.94" gradientUnits="userSpaceOnUse">
<stop stop-color="#56AB2F"/>
<stop offset="1" stop-color="#93D642"/>
</linearGradient>
<linearGradient id="paint9_linear" x1="247.243" y1="290.526" x2="254.164" y2="290.526" gradientUnits="userSpaceOnUse">
<stop stop-color="#56AB2F"/>
<stop offset="1" stop-color="#93D642"/>
</linearGradient>
<linearGradient id="paint10_linear" x1="232.485" y1="304.054" x2="239.406" y2="304.054" gradientUnits="userSpaceOnUse">
<stop stop-color="#56AB2F"/>
<stop offset="1" stop-color="#93D642"/>
</linearGradient>
<linearGradient id="paint11_linear" x1="397.286" y1="261.624" x2="404.207" y2="261.624" gradientUnits="userSpaceOnUse">
<stop stop-color="#56AB2F"/>
<stop offset="1" stop-color="#93D642"/>
</linearGradient>
<linearGradient id="paint12_linear" x1="198.049" y1="276.997" x2="204.97" y2="276.997" gradientUnits="userSpaceOnUse">
<stop stop-color="#56AB2F"/>
<stop offset="1" stop-color="#93D642"/>
</linearGradient>
<linearGradient id="paint13_linear" x1="357.93" y1="241.946" x2="364.851" y2="241.946" gradientUnits="userSpaceOnUse">
<stop stop-color="#56AB2F"/>
<stop offset="1" stop-color="#93D642"/>
</linearGradient>
<linearGradient id="paint14_linear" x1="62.7642" y1="360.421" x2="71.478" y2="360.421" gradientUnits="userSpaceOnUse">
<stop stop-color="#56AB2F"/>
<stop offset="1" stop-color="#93D642"/>
</linearGradient>
<linearGradient id="paint15_linear" x1="486.451" y1="357.961" x2="495.165" y2="357.961" gradientUnits="userSpaceOnUse">
<stop stop-color="#56AB2F"/>
<stop offset="1" stop-color="#93D642"/>
</linearGradient>
<linearGradient id="paint16_linear" x1="450.785" y1="337.054" x2="459.499" y2="337.054" gradientUnits="userSpaceOnUse">
<stop stop-color="#56AB2F"/>
<stop offset="1" stop-color="#93D642"/>
</linearGradient>
<linearGradient id="paint17_linear" x1="445.865" y1="368.415" x2="454.579" y2="368.415" gradientUnits="userSpaceOnUse">
<stop stop-color="#56AB2F"/>
<stop offset="1" stop-color="#93D642"/>
</linearGradient>
<linearGradient id="paint18_linear" x1="76.6597" y1="307.558" x2="445.838" y2="307.558" gradientUnits="userSpaceOnUse">
<stop stop-color="#3080CF"/>
<stop offset="1" stop-color="#263A73"/>
</linearGradient>
<linearGradient id="paint19_linear" x1="296.261" y1="230.672" x2="296.261" y2="381.428" gradientUnits="userSpaceOnUse">
<stop stop-color="white" stop-opacity="0.25"/>
<stop offset="1" stop-color="white"/>
</linearGradient>
<linearGradient id="paint20_linear" x1="305.244" y1="383.848" x2="318.591" y2="383.848" gradientUnits="userSpaceOnUse">
<stop stop-color="#191F31"/>
<stop offset="1" stop-color="#323F4B"/>
</linearGradient>
<linearGradient id="paint21_linear" x1="327.036" y1="383.848" x2="340.383" y2="383.848" gradientUnits="userSpaceOnUse">
<stop stop-color="#191F31"/>
<stop offset="1" stop-color="#323F4B"/>
</linearGradient>
<linearGradient id="paint22_linear" x1="308.427" y1="323.754" x2="339.278" y2="323.754" gradientUnits="userSpaceOnUse">
<stop stop-color="#191F31"/>
<stop offset="1" stop-color="#323F4B"/>
</linearGradient>
<linearGradient id="paint23_linear" x1="314.642" y1="250.599" x2="337.523" y2="250.599" gradientUnits="userSpaceOnUse">
<stop stop-color="#191F31"/>
<stop offset="1" stop-color="#323F4B"/>
</linearGradient>
<linearGradient id="paint24_linear" x1="328.093" y1="240.764" x2="339.291" y2="240.764" gradientUnits="userSpaceOnUse">
<stop stop-color="#191F31"/>
<stop offset="1" stop-color="#323F4B"/>
</linearGradient>
<clipPath id="clip0">
<rect width="552" height="388.08" fill="white"/>
</clipPath>
</defs>
</svg>
