<svg width="64" height="64" viewBox="0 0 64 64" fill="none" xmlns="http://www.w3.org/2000/svg">
<path d="M59.3111 13.6565C58.8255 13.1061 58.1552 12.7783 57.4238 12.7335L12.9284 10.0052C11.4191 9.91363 10.1148 11.0692 10.0225 12.5833L9.41908 22.4793H6.74356C5.23069 22.4793 4 23.7135 4 25.2305V31.4211V51.2489C4 52.766 5.23069 54.0001 6.74356 54.0001H51.322C52.8349 54.0001 54.0655 52.766 54.0655 51.2489V44.1073L55.5054 44.1956C55.5621 44.1991 55.6185 44.2007 55.6746 44.2007C57.1115 44.2007 58.3224 43.0745 58.4112 41.6173L59.9948 15.6474C60.0395 14.914 59.7967 14.2069 59.3111 13.6565ZM51.8781 51.2489C51.8781 51.5564 51.6286 51.8065 51.322 51.8065H6.74356C6.43698 51.8065 6.1875 51.5564 6.1875 51.2489V32.5179H45.5179C46.122 32.5179 46.6117 32.0268 46.6117 31.4211C46.6117 30.8153 46.122 30.3243 45.5179 30.3243H6.1875V25.2305C6.1875 24.923 6.43698 24.6729 6.74356 24.6729H51.322C51.6286 24.6729 51.8781 24.923 51.8781 25.2305V51.2489ZM57.6872 17.5495L20.1835 15.2594C19.5783 15.2218 19.062 15.6829 19.0254 16.2875C18.9886 16.8922 19.4477 17.4122 20.0506 17.4489L57.5537 19.739L56.2278 41.4835C56.2091 41.7905 55.9441 42.0245 55.6388 42.006L54.0655 41.9095V25.2305C54.0655 23.7134 52.8349 22.4793 51.322 22.4793H11.6107L12.206 12.7173C12.2247 12.4104 12.4895 12.1757 12.7949 12.1946L57.2902 14.923C57.4903 14.9353 57.6157 15.0454 57.6727 15.1101C57.7297 15.1747 57.8234 15.313 57.8113 15.5136L57.6872 17.5495Z" fill="url(#paint0_linear)"/>
<path d="M44.4448 40.0789C43.3121 40.0789 42.2632 40.4411 41.405 41.0543C40.547 40.4412 39.498 40.0789 38.3653 40.0789C35.4747 40.0789 33.123 42.4305 33.123 45.3211C33.123 48.2116 35.4747 50.5633 38.3653 50.5633C39.498 50.5633 40.5469 50.2011 41.405 49.5879C42.2631 50.2009 43.3121 50.5633 44.4448 50.5633C47.3353 50.5633 49.687 48.2116 49.687 45.3211C49.687 42.4305 47.3353 40.0789 44.4448 40.0789ZM39.9139 47.9526C39.4595 48.221 38.9303 48.3758 38.3654 48.3758C36.681 48.3758 35.3107 47.0055 35.3107 45.3211C35.3107 43.6367 36.681 42.2664 38.3654 42.2664C38.9303 42.2664 39.4595 42.4211 39.9139 42.6895C39.4626 43.4636 39.2026 44.3623 39.2026 45.3211C39.2026 46.2799 39.4626 47.1786 39.9139 47.9526ZM44.4448 48.3758C42.7604 48.3758 41.39 47.0055 41.39 45.3211C41.39 43.6367 42.7604 42.2664 44.4448 42.2664C46.1291 42.2664 47.4995 43.6367 47.4995 45.3211C47.4995 47.0055 46.1291 48.3758 44.4448 48.3758Z" fill="url(#paint1_linear)"/>
<path d="M11.523 45.4901C11.5088 45.4211 11.488 45.3522 11.4607 45.2855C11.4334 45.2199 11.3995 45.1565 11.3601 45.0974C11.3207 45.0372 11.2748 44.9815 11.2245 44.9311C10.9707 44.6763 10.5923 44.5604 10.2368 44.6315C10.1679 44.6457 10.099 44.6665 10.0323 44.6938C9.96664 44.7211 9.9032 44.755 9.84414 44.7944C9.78398 44.8349 9.7282 44.8808 9.67789 44.9311C9.62648 44.9815 9.58164 45.0372 9.54117 45.0974C9.5018 45.1565 9.46789 45.2199 9.44055 45.2855C9.4132 45.3522 9.39242 45.4211 9.3782 45.4901C9.36398 45.5611 9.35742 45.6333 9.35742 45.7044C9.35742 45.7755 9.36398 45.8477 9.3782 45.9177C9.39242 45.9877 9.4132 46.0566 9.44055 46.1222C9.46789 46.189 9.5018 46.2524 9.54117 46.3115C9.58164 46.3716 9.62648 46.4274 9.67789 46.4777C9.7282 46.528 9.78398 46.574 9.84414 46.6133C9.9032 46.6527 9.96664 46.6866 10.0323 46.714C10.099 46.7413 10.1679 46.7621 10.2368 46.7763C10.3079 46.7905 10.3801 46.7982 10.4512 46.7982C10.7388 46.7982 11.021 46.6812 11.2245 46.4777C11.2748 46.4274 11.3207 46.3716 11.3601 46.3115C11.3995 46.2524 11.4334 46.189 11.4607 46.1222C11.488 46.0566 11.5088 45.9877 11.523 45.9177C11.5373 45.8477 11.5449 45.7755 11.5449 45.7044C11.5449 45.6333 11.5373 45.5611 11.523 45.4901Z" fill="url(#paint2_linear)"/>
<path d="M21.4063 44.6106H14.8257C14.2216 44.6106 13.7319 45.1003 13.7319 45.7043C13.7319 46.3084 14.2216 46.7981 14.8257 46.7981H21.4063C22.0104 46.7981 22.5001 46.3084 22.5001 45.7043C22.5001 45.1003 22.0104 44.6106 21.4063 44.6106Z" fill="url(#paint3_linear)"/>
<defs>
<linearGradient id="paint0_linear" x1="4" y1="32.0001" x2="60" y2="32.0001" gradientUnits="userSpaceOnUse">
<stop stop-color="#56AB2F"/>
<stop offset="1" stop-color="#93D642"/>
</linearGradient>
<linearGradient id="paint1_linear" x1="33.123" y1="45.3211" x2="49.687" y2="45.3211" gradientUnits="userSpaceOnUse">
<stop stop-color="#56AB2F"/>
<stop offset="1" stop-color="#93D642"/>
</linearGradient>
<linearGradient id="paint2_linear" x1="9.35742" y1="45.7045" x2="11.5449" y2="45.7045" gradientUnits="userSpaceOnUse">
<stop stop-color="#56AB2F"/>
<stop offset="1" stop-color="#93D642"/>
</linearGradient>
<linearGradient id="paint3_linear" x1="13.7319" y1="45.7043" x2="22.5001" y2="45.7043" gradientUnits="userSpaceOnUse">
<stop stop-color="#56AB2F"/>
<stop offset="1" stop-color="#93D642"/>
</linearGradient>
</defs>
</svg>
