<svg width="64" height="64" viewBox="0 0 64 64" fill="none" xmlns="http://www.w3.org/2000/svg">
<path d="M54.1251 31.6252H52.2499V10.8125C52.2499 9.26169 50.9882 8 49.4374 8H14.5627C13.0119 8 11.7502 9.26169 11.7502 10.8125V31.6252H9.875C8.84113 31.6252 8 32.4663 8 33.5002V53.1878C8 54.7386 9.26169 56.0003 10.8125 56.0003H53.1875C54.7383 56.0003 56 54.7386 56 53.1878V33.5001C56.0001 32.4663 55.1591 31.6252 54.1251 31.6252ZM54.1251 33.5001V46.6774C53.4807 46.7486 52.8526 46.894 52.2499 47.1066V33.5001H54.1251ZM13.6252 39.1254H16.2498C16.7676 39.1254 17.1873 38.7057 17.1873 38.1879C17.1873 37.6701 16.7676 37.2504 16.2498 37.2504H13.6252V33.5002H27.3126V37.2504H24.6874C24.1696 37.2504 23.7499 37.6701 23.7499 38.1879C23.7499 38.7057 24.1696 39.1254 24.6874 39.1254H27.3126V40.0627C27.3126 42.6474 29.4154 44.7502 32.0001 44.7502C34.5849 44.7502 36.6876 42.6474 36.6876 40.0627V39.1254H50.3749V48.0456C49.9198 48.3506 49.4914 48.7014 49.0962 49.0964C47.7297 50.463 46.8871 52.2255 46.6773 54.1252H17.3228C17.1129 52.2256 16.2703 50.463 14.9037 49.0964C14.5087 48.7014 14.0802 48.3506 13.6252 48.0456V39.1254ZM50.3749 37.2504H36.6876V33.5002H50.3749V37.2504ZM29.1876 33.5002H34.8126V40.0627C34.8126 41.6135 33.5509 42.8752 32.0001 42.8752C30.4493 42.8752 29.1876 41.6135 29.1876 40.0627V33.5002ZM18.5509 31.6252C19.2335 30.8071 20.161 30.325 20.7372 30.0257C21.0822 29.8466 21.3102 29.7282 21.4881 29.5503C21.5463 29.492 21.5967 29.4263 21.6378 29.3549L22.5479 27.7726C23.7157 25.7413 25.5627 25.6565 27.2018 25.7366C27.6097 25.7564 27.879 25.7697 28.1365 25.7006C28.3813 25.635 28.5989 25.4954 28.9285 25.2843C29.9521 24.6281 31.8578 23.4067 34.0625 24.6943L35.6362 25.6063C35.779 25.689 35.9412 25.7326 36.1062 25.7326H36.1078L37.9258 25.7296C40.443 25.7296 41.4799 27.7268 42.037 28.7997C42.216 29.1447 42.3343 29.3726 42.5122 29.5504C42.5704 29.6087 42.6361 29.6591 42.7077 29.7001L44.2901 30.6104C44.7824 30.8935 45.1808 31.23 45.4919 31.6254H18.5509V31.6252ZM46.6249 30.074C46.2293 29.6585 45.7627 29.2942 45.2245 28.9848L43.8313 28.1833C43.7922 28.1115 43.7434 28.0174 43.7008 27.9355C43.0667 26.7143 41.5819 23.8543 37.924 23.8543L36.3574 23.857L35.0052 23.0733C31.812 21.2085 29.0822 22.9584 27.9165 23.7056C27.8247 23.7643 27.717 23.8334 27.6436 23.8773C27.5526 23.8763 27.4121 23.8694 27.293 23.8636C25.9363 23.7975 22.7593 23.6426 20.9224 26.8378L20.121 28.2311C20.0491 28.2703 19.955 28.3191 19.8731 28.3617C19.2643 28.6778 18.2442 29.2075 17.3751 30.1223V13.625H46.6248V30.074H46.6249ZM13.6252 10.8125C13.6252 10.2956 14.0457 9.875 14.5627 9.875H49.4375C49.9544 9.875 50.375 10.2956 50.375 10.8125V31.6252H48.5V12.6875C48.5 12.1697 48.0802 11.75 47.5625 11.75H16.4377C15.9199 11.75 15.5002 12.1697 15.5002 12.6875V31.6251H13.6252V10.8125ZM11.7502 33.5002V47.1066C11.1475 46.894 10.5193 46.7486 9.875 46.6774L9.87481 33.5002H11.7502ZM9.87509 53.1877L9.875 48.5681C12.7632 48.9767 15.0236 51.2369 15.4321 54.1252H10.8126C10.2957 54.1252 9.87509 53.7046 9.87509 53.1877ZM53.1876 54.1252H48.5679C48.9765 51.237 51.2368 48.9767 54.1251 48.5681V53.1877C54.1251 53.7046 53.7045 54.1252 53.1876 54.1252Z" fill="url(#paint0_linear)"/>
<path d="M32 20.5408C32.5178 20.5408 32.9375 20.1211 32.9375 19.6033V16.438C32.9375 15.9202 32.5177 15.5005 32 15.5005C31.4823 15.5005 31.0625 15.9202 31.0625 16.438V19.6033C31.0625 20.1211 31.4822 20.5408 32 20.5408Z" fill="url(#paint1_linear)"/>
<path d="M23.3021 22.1847C23.4758 22.4855 23.7909 22.6537 24.1149 22.6537C24.2739 22.6537 24.4351 22.6131 24.5828 22.5278C25.0312 22.269 25.1848 21.6956 24.9259 21.2472L23.3433 18.506C23.0844 18.0575 22.5111 17.904 22.0627 18.1629C21.6143 18.4218 21.4606 18.9951 21.7195 19.4435L23.3021 22.1847Z" fill="url(#paint2_linear)"/>
<path d="M39.4176 22.5278C39.5653 22.6132 39.7264 22.6537 39.8854 22.6537C40.2094 22.6537 40.5246 22.4855 40.6982 22.1847L42.2808 19.4436C42.5398 18.9951 42.3861 18.4218 41.9377 18.1629C41.4891 17.9039 40.9158 18.0577 40.6571 18.506L39.0745 21.2472C38.8156 21.6956 38.9692 22.269 39.4176 22.5278Z" fill="url(#paint3_linear)"/>
<path d="M32.0004 41.0005C32.5182 41.0005 32.9379 40.5808 32.9379 40.063C32.9379 39.5452 32.5181 39.1255 32.0004 39.1255H31.9997C31.4819 39.1255 31.0625 39.5452 31.0625 40.063C31.0625 40.5808 31.4826 41.0005 32.0004 41.0005Z" fill="url(#paint4_linear)"/>
<path d="M20.469 39.1251C20.9868 39.1251 21.4065 38.7054 21.4065 38.1876C21.4065 37.6698 20.9868 37.2501 20.469 37.2501H20.4684C19.9506 37.2501 19.5312 37.6698 19.5312 38.1876C19.5312 38.7054 19.9513 39.1251 20.469 39.1251Z" fill="url(#paint5_linear)"/>
<defs>
<linearGradient id="paint0_linear" x1="8" y1="32.0001" x2="56" y2="32.0001" gradientUnits="userSpaceOnUse">
<stop stop-color="#56AB2F"/>
<stop offset="1" stop-color="#93D642"/>
</linearGradient>
<linearGradient id="paint1_linear" x1="31.0625" y1="18.0206" x2="32.9375" y2="18.0206" gradientUnits="userSpaceOnUse">
<stop stop-color="#56AB2F"/>
<stop offset="1" stop-color="#93D642"/>
</linearGradient>
<linearGradient id="paint2_linear" x1="21.5938" y1="20.3454" x2="25.0517" y2="20.3454" gradientUnits="userSpaceOnUse">
<stop stop-color="#56AB2F"/>
<stop offset="1" stop-color="#93D642"/>
</linearGradient>
<linearGradient id="paint3_linear" x1="38.9487" y1="20.3454" x2="42.4066" y2="20.3454" gradientUnits="userSpaceOnUse">
<stop stop-color="#56AB2F"/>
<stop offset="1" stop-color="#93D642"/>
</linearGradient>
<linearGradient id="paint4_linear" x1="31.0625" y1="40.063" x2="32.9379" y2="40.063" gradientUnits="userSpaceOnUse">
<stop stop-color="#56AB2F"/>
<stop offset="1" stop-color="#93D642"/>
</linearGradient>
<linearGradient id="paint5_linear" x1="19.5312" y1="38.1876" x2="21.4065" y2="38.1876" gradientUnits="userSpaceOnUse">
<stop stop-color="#56AB2F"/>
<stop offset="1" stop-color="#93D642"/>
</linearGradient>
</defs>
</svg>
