<svg width="64" height="64" viewBox="0 0 64 64" fill="none" xmlns="http://www.w3.org/2000/svg">
<path d="M15.7998 40.0701H19.2665V41.8034H15.7998V40.0701Z" fill="url(#paint0_linear)"/>
<path d="M15.7998 45.2688H19.2665V47.0021H15.7998V45.2688Z" fill="url(#paint1_linear)"/>
<path d="M15.7998 50.4686H19.2665V52.202H15.7998V50.4686Z" fill="url(#paint2_linear)"/>
<path d="M59.1333 36.6036H58.2667C55.455 36.5966 52.7202 35.6851 50.4667 34.004L48.3867 32.4442C48.2372 32.3304 48.0545 32.2687 47.8667 32.2687C47.6788 32.2687 47.4961 32.3304 47.3467 32.4442L46.1333 33.3541V15.8067C46.1313 15.1179 45.8567 14.4578 45.3695 13.9708C44.8824 13.4837 44.2223 13.2091 43.5333 13.2071H36.444C36.2641 12.7021 35.933 12.2648 35.4957 11.9547C35.0584 11.6446 34.5361 11.4768 34 11.474H31.972C31.6147 10.4584 30.9509 9.57882 30.0722 8.95656C29.1936 8.33431 28.1434 8.00012 27.0667 8.00012C25.9899 8.00012 24.9398 8.33431 24.0611 8.95656C23.1824 9.57882 22.5186 10.4584 22.1613 11.474H20.1333C19.5972 11.4768 19.075 11.6446 18.6377 11.9547C18.2003 12.2648 17.8692 12.7021 17.6893 13.2071H10.6C9.91107 13.2091 9.25094 13.4837 8.7638 13.9708C8.27665 14.4578 8.00206 15.1179 8 15.8067V57.4005C8.00206 58.0893 8.27665 58.7494 8.7638 59.2364C9.25094 59.7235 9.91107 59.9981 10.6 60.0001H43.5333C43.9258 59.9976 44.3128 59.9067 44.6654 59.7342C45.0179 59.5616 45.3271 59.3119 45.57 59.0036L47.494 59.9135C47.61 59.9704 47.7374 60.0001 47.8667 60.0001C47.9959 60.0001 48.1234 59.9704 48.2393 59.9135L55.8486 56.3C57.1037 55.6401 58.1541 54.6492 58.8859 53.4348C59.6177 52.2204 60.003 50.8288 60 49.411V37.4701C60 37.2403 59.9087 37.0199 59.7461 36.8574C59.5836 36.6949 59.3632 36.6036 59.1333 36.6036ZM36.6 14.9402H43.5333C43.7632 14.9402 43.9836 15.0314 44.1461 15.194C44.3087 15.3565 44.4 15.5769 44.4 15.8067V34.6019C43.8455 34.9476 43.2662 35.2518 42.6667 35.5118V17.5398C42.6667 17.3099 42.5753 17.0895 42.4128 16.927C42.2503 16.7645 42.0298 16.6732 41.8 16.6732H36.6V14.9402ZM19.2667 14.0736C19.2667 13.8438 19.358 13.6234 19.5205 13.4609C19.683 13.2984 19.9035 13.2071 20.1333 13.2071H22.82C23.0203 13.2091 23.215 13.1409 23.3702 13.0142C23.5254 12.8875 23.6312 12.7105 23.6693 12.5138C23.8285 11.7303 24.2536 11.0258 24.8728 10.5199C25.4919 10.0139 26.267 9.73745 27.0667 9.73745C27.8663 9.73745 28.6414 10.0139 29.2605 10.5199C29.8797 11.0258 30.3049 11.7303 30.464 12.5138C30.5021 12.7105 30.608 12.8875 30.7631 13.0142C30.9183 13.1409 31.113 13.2091 31.3133 13.2071H34C34.2298 13.2071 34.4503 13.2984 34.6128 13.4609C34.7753 13.6234 34.8667 13.8438 34.8667 14.0736V17.5398H19.2667V14.0736ZM18.4 19.2728H35.7333C35.9632 19.2728 36.1836 19.1815 36.3461 19.019C36.5087 18.8565 36.6 18.6361 36.6 18.4063H40.9333V36.1183C39.8049 36.4353 38.6388 36.5985 37.4667 36.6036H36.6C36.3701 36.6036 36.1497 36.6949 35.9872 36.8574C35.8246 37.0199 35.7333 37.2403 35.7333 37.4701V40.0697H21V41.8028H35.7333V45.269H21V47.002H35.7333V49.411C35.7346 49.7645 35.7577 50.1176 35.8027 50.4682H21V52.2013H36.262C36.6359 53.169 37.1986 54.0527 37.9173 54.8009H13.2V18.4063H17.5333C17.5333 18.6361 17.6246 18.8565 17.7872 19.019C17.9497 19.1815 18.1701 19.2728 18.4 19.2728ZM43.5333 58.267H10.6C10.3701 58.267 10.1497 58.1757 9.98717 58.0132C9.82464 57.8507 9.73333 57.6303 9.73333 57.4005V15.8067C9.73333 15.5769 9.82464 15.3565 9.98717 15.194C10.1497 15.0314 10.3701 14.9402 10.6 14.9402H17.5333V16.6732H12.3333C12.1035 16.6732 11.883 16.7645 11.7205 16.927C11.558 17.0895 11.4667 17.3099 11.4667 17.5398V55.6674C11.4667 55.8972 11.558 56.1176 11.7205 56.2802C11.883 56.4427 12.1035 56.534 12.3333 56.534H40.3787L43.8627 58.189C43.759 58.2363 43.6471 58.2628 43.5333 58.267ZM58.2667 49.411C58.2698 50.5075 57.9737 51.584 57.4102 52.5247C56.8466 53.4653 56.037 54.2343 55.0687 54.7489L47.8667 58.1717L40.682 54.7576C39.7104 54.243 38.8976 53.4732 38.3311 52.5311C37.7645 51.589 37.4657 50.5103 37.4667 49.411V38.3367C40.6535 38.3305 43.7535 37.2973 46.3067 35.3904L47.8667 34.2206L49.4267 35.3904C51.9799 37.2973 55.0798 38.3305 58.2667 38.3367V49.411Z" fill="url(#paint3_linear)"/>
<path d="M32.2667 26.6392H29.6667V24.0396C29.6667 23.8098 29.5754 23.5894 29.4128 23.4269C29.2503 23.2644 29.0299 23.1731 28.8 23.1731H25.3333C25.1035 23.1731 24.883 23.2644 24.7205 23.4269C24.558 23.5894 24.4667 23.8098 24.4667 24.0396V26.6392H21.8667C21.6368 26.6392 21.4164 26.7305 21.2538 26.893C21.0913 27.0556 21 27.276 21 27.5058V30.9719C21 31.2018 21.0913 31.4222 21.2538 31.5847C21.4164 31.7472 21.6368 31.8385 21.8667 31.8385H24.4667V34.4381C24.4667 34.6679 24.558 34.8883 24.7205 35.0508C24.883 35.2133 25.1035 35.3046 25.3333 35.3046H28.8C29.0299 35.3046 29.2503 35.2133 29.4128 35.0508C29.5754 34.8883 29.6667 34.6679 29.6667 34.4381V31.8385H32.2667C32.4965 31.8385 32.717 31.7472 32.8795 31.5847C33.042 31.4222 33.1333 31.2018 33.1333 30.9719V27.5058C33.1333 27.276 33.042 27.0556 32.8795 26.893C32.717 26.7305 32.4965 26.6392 32.2667 26.6392ZM31.4 30.1054H28.8C28.5701 30.1054 28.3497 30.1967 28.1872 30.3592C28.0246 30.5217 27.9333 30.7421 27.9333 30.9719V33.5715H26.2V30.9719C26.2 30.7421 26.1087 30.5217 25.9462 30.3592C25.7836 30.1967 25.5632 30.1054 25.3333 30.1054H22.7333V28.3723H25.3333C25.5632 28.3723 25.7836 28.281 25.9462 28.1185C26.1087 27.956 26.2 27.7356 26.2 27.5058V24.9062H27.9333V27.5058C27.9333 27.7356 28.0246 27.956 28.1872 28.1185C28.3497 28.281 28.5701 28.3723 28.8 28.3723H31.4V30.1054Z" fill="url(#paint4_linear)"/>
<path d="M44.1459 47.2555L42.9204 48.4808L45.5204 51.0804C45.6829 51.2429 45.9033 51.3341 46.1331 51.3341C46.363 51.3341 46.5834 51.2429 46.7459 51.0804L53.6792 44.1481L52.4537 42.9229L46.1331 49.2425L44.1459 47.2555Z" fill="url(#paint5_linear)"/>
<defs>
<linearGradient id="paint0_linear" x1="15.7998" y1="40.9367" x2="19.2665" y2="40.9367" gradientUnits="userSpaceOnUse">
<stop stop-color="#56AB2F"/>
<stop offset="1" stop-color="#93D642"/>
</linearGradient>
<linearGradient id="paint1_linear" x1="15.7998" y1="46.1355" x2="19.2665" y2="46.1355" gradientUnits="userSpaceOnUse">
<stop stop-color="#56AB2F"/>
<stop offset="1" stop-color="#93D642"/>
</linearGradient>
<linearGradient id="paint2_linear" x1="15.7998" y1="51.3353" x2="19.2665" y2="51.3353" gradientUnits="userSpaceOnUse">
<stop stop-color="#56AB2F"/>
<stop offset="1" stop-color="#93D642"/>
</linearGradient>
<linearGradient id="paint3_linear" x1="8" y1="34.0001" x2="60" y2="34.0001" gradientUnits="userSpaceOnUse">
<stop stop-color="#56AB2F"/>
<stop offset="1" stop-color="#93D642"/>
</linearGradient>
<linearGradient id="paint4_linear" x1="21" y1="29.2389" x2="33.1333" y2="29.2389" gradientUnits="userSpaceOnUse">
<stop stop-color="#56AB2F"/>
<stop offset="1" stop-color="#93D642"/>
</linearGradient>
<linearGradient id="paint5_linear" x1="42.9204" y1="47.1285" x2="53.6792" y2="47.1285" gradientUnits="userSpaceOnUse">
<stop stop-color="#56AB2F"/>
<stop offset="1" stop-color="#93D642"/>
</linearGradient>
</defs>
</svg>
