<svg width="64" height="64" viewBox="0 0 64 64" fill="none" xmlns="http://www.w3.org/2000/svg">
<path d="M17.5546 32.9238C16.8897 32.9238 16.3506 33.451 16.3506 34.1013V48.2278C16.3506 48.8781 16.8897 49.4053 17.5546 49.4053H46.4451C47.11 49.4053 47.6492 48.8781 47.6492 48.2278V34.1013C47.6492 33.451 47.11 32.9238 46.4451 32.9238H17.5546ZM18.7583 35.2784H20.9597C20.5941 36.2833 19.7854 37.0737 18.7583 37.4317V35.2784ZM18.7583 47.0507V44.8974C19.7854 45.2554 20.5941 46.0458 20.9597 47.0507H18.7583ZM45.2415 47.0507H43.04C43.4052 46.0458 44.2139 45.255 45.2415 44.8974V47.0507ZM45.2415 35.2784V37.4317C44.2139 37.0741 43.4052 36.2833 43.04 35.2784H45.2415ZM45.2415 39.8696V42.4595C42.8792 42.9359 41.0338 44.7406 40.5467 47.0507H23.4531C22.9659 44.7406 21.1201 42.9359 18.7583 42.4595V39.8696C21.1201 39.3936 22.9659 37.5885 23.4531 35.2784H40.5467C41.0338 37.5885 42.8792 39.3936 45.2415 39.8696Z" fill="url(#paint0_linear)"/>
<path d="M31.9999 45.8733C34.6593 45.8733 36.8153 43.7648 36.8153 41.1642C36.8153 38.5635 34.6593 36.4551 31.9999 36.4551C29.3406 36.4551 27.1846 38.5635 27.1846 41.1642C27.1846 43.7648 29.3406 45.8733 31.9999 45.8733ZM31.9999 38.8096C33.3298 38.8096 34.4076 39.8636 34.4076 41.1642C34.4076 42.4647 33.3298 43.5187 31.9999 43.5187C30.6701 43.5187 29.5923 42.4647 29.5923 41.1642C29.5923 39.8636 30.6705 38.8096 31.9999 38.8096Z" fill="url(#paint1_linear)"/>
<path d="M59.5537 25.4754L52.4644 19.8635V10.5564C52.4644 9.90657 51.9257 9.37935 51.2607 9.37935H44.0381C43.3732 9.37935 42.8341 9.90657 42.8341 10.5564V12.2398L32.7573 4.2618C32.3156 3.91273 31.6847 3.91273 31.243 4.2618L4.44655 25.4754C3.92972 25.8847 3.84976 26.6256 4.2683 27.131C4.26874 27.1319 4.26918 27.1323 4.26961 27.1331L7.30336 30.7822C7.72189 31.286 8.47858 31.3629 8.99454 30.9544L11.5355 28.9425V57.6453H7.92417V59.9999H56.0757V57.6453H52.4644V28.9425L55.0057 30.9544C55.5213 31.3629 56.2779 31.286 56.6969 30.7822L59.7302 27.1331C60.1496 26.6286 60.0714 25.8869 59.5555 25.4771C59.555 25.4767 59.5542 25.4758 59.5537 25.4754ZM45.2417 11.7339H50.0571V17.9567L45.2417 14.1461V11.7339ZM50.0567 57.6453H13.9432V27.0374L32.0001 12.7413L50.0567 27.0374V57.6453ZM55.5872 28.3854L32.7573 10.3116C32.3156 9.96211 31.6847 9.96211 31.243 10.3116L8.41305 28.3854L6.8988 26.5666L32.0001 6.69154L57.1015 26.5666L55.5872 28.3854Z" fill="url(#paint2_linear)"/>
<defs>
<linearGradient id="paint0_linear" x1="16.3506" y1="41.1646" x2="47.6492" y2="41.1646" gradientUnits="userSpaceOnUse">
<stop stop-color="#56AB2F"/>
<stop offset="1" stop-color="#93D642"/>
</linearGradient>
<linearGradient id="paint1_linear" x1="27.1846" y1="41.1642" x2="36.8153" y2="41.1642" gradientUnits="userSpaceOnUse">
<stop stop-color="#56AB2F"/>
<stop offset="1" stop-color="#93D642"/>
</linearGradient>
<linearGradient id="paint2_linear" x1="4" y1="31.9999" x2="60" y2="31.9999" gradientUnits="userSpaceOnUse">
<stop stop-color="#56AB2F"/>
<stop offset="1" stop-color="#93D642"/>
</linearGradient>
</defs>
</svg>
