<svg width="64" height="64" viewBox="0 0 64 64" fill="none" xmlns="http://www.w3.org/2000/svg">
<path d="M37.2418 15.3928H34.6208V12.7842C34.6208 12.5536 34.5288 12.3324 34.3649 12.1694C34.2011 12.0063 33.9789 11.9147 33.7472 11.9147H30.2526C30.0208 11.9147 29.7986 12.0063 29.6348 12.1694C29.4709 12.3324 29.3789 12.5536 29.3789 12.7842V15.3928H26.7579C26.5262 15.3928 26.304 15.4845 26.1402 15.6475C25.9763 15.8106 25.8843 16.0318 25.8843 16.2624V19.7406C25.8843 19.9712 25.9763 20.1923 26.1402 20.3554C26.304 20.5185 26.5262 20.6101 26.7579 20.6101H29.3789V23.2187C29.3789 23.4493 29.4709 23.6705 29.6348 23.8336C29.7986 23.9967 30.0208 24.0883 30.2526 24.0883H33.7472C33.9789 24.0883 34.2011 23.9967 34.3649 23.8336C34.5288 23.6705 34.6208 23.4493 34.6208 23.2187V20.6101H37.2418C37.4735 20.6101 37.6957 20.5185 37.8596 20.3554C38.0234 20.1923 38.1154 19.9712 38.1154 19.7406V16.2624C38.1154 16.0318 38.0234 15.8106 37.8596 15.6475C37.6957 15.4845 37.4735 15.3928 37.2418 15.3928ZM36.3681 18.871H33.7472C33.5155 18.871 33.2932 18.9626 33.1294 19.1257C32.9656 19.2888 32.8735 19.5099 32.8735 19.7406V22.3492H31.1262V19.7406C31.1262 19.5099 31.0342 19.2888 30.8703 19.1257C30.7065 18.9626 30.4843 18.871 30.2526 18.871H27.6316V17.1319H30.2526C30.4843 17.1319 30.7065 17.0403 30.8703 16.8772C31.0342 16.7142 31.1262 16.493 31.1262 16.2624V13.6538H32.8735V16.2624C32.8735 16.493 32.9656 16.7142 33.1294 16.8772C33.2932 17.0403 33.5155 17.1319 33.7472 17.1319H36.3681V18.871Z" fill="url(#paint0_linear)"/>
<path d="M56.2263 20.0532C56.244 19.9002 56.2528 19.7464 56.2525 19.5924C56.2483 18.7953 55.9705 18.0236 55.4652 17.4053C54.9599 16.7869 54.2575 16.359 53.4743 16.1925C52.5885 16.0246 51.6716 16.198 50.9093 16.6774C50.147 17.1569 49.5961 17.9066 49.3681 18.775L45.5241 29.7834C45.4671 29.8059 45.4117 29.8321 45.3581 29.8617L37.635 34.3659C36.4532 35.0568 35.4729 36.0427 34.7911 37.226C34.1093 38.4094 33.7495 39.7494 33.7472 41.1135V49.3046C33.5155 49.3046 33.2933 49.3962 33.1294 49.5593C32.9656 49.7224 32.8735 49.9436 32.8735 50.1742V57.1305C32.8735 57.3611 32.9656 57.5823 33.1294 57.7454C33.2933 57.9084 33.5155 58.0001 33.7472 58.0001H45.9784C46.2101 58.0001 46.4323 57.9084 46.5961 57.7454C46.76 57.5823 46.852 57.3611 46.852 57.1305V50.1742C46.852 49.9436 46.76 49.7224 46.5961 49.5593C46.4323 49.3962 46.2101 49.3046 45.9784 49.3046V47.3916C45.98 47.0244 46.0585 46.6615 46.209 46.3261C46.3594 45.9907 46.5784 45.6903 46.852 45.4439L52.7579 40.2179C53.4039 39.6553 53.8664 38.9135 54.0859 38.0875L57.8775 23.9749C57.9585 23.6802 57.9996 23.376 57.9999 23.0705C57.9964 22.4569 57.8307 21.855 57.5194 21.3253C57.2081 20.7956 56.7621 20.3569 56.2263 20.0532ZM51.0368 19.288C51.1441 18.8383 51.4177 18.4454 51.803 18.1875C52.1884 17.9297 52.6573 17.8259 53.1161 17.8968C53.5077 17.9784 53.8593 18.1913 54.1121 18.4999C54.365 18.8085 54.5037 19.1942 54.5052 19.5924V19.6098C53.7248 19.6242 52.9706 19.8919 52.3571 20.3722C51.7436 20.8525 51.3046 21.5191 51.1067 22.2706L48.6692 29.7573C48.3002 29.5831 47.9045 29.4714 47.4985 29.4269L51.0368 19.288ZM45.1047 56.261H34.6208V51.0437H45.1047V56.261ZM56.1914 23.5227L52.391 37.6441C52.2595 38.1348 51.9861 38.5762 51.6047 38.9136L45.6901 44.1395C45.2324 44.5503 44.8661 45.0519 44.6149 45.612C44.3636 46.172 44.2329 46.7783 44.2311 47.3916V49.3046H35.4945V41.1135C35.4988 40.0526 35.7796 39.011 36.3095 38.0904C36.8393 37.1699 37.6001 36.4019 38.5173 35.8615L46.2317 31.366C46.4306 31.2506 46.6505 31.1755 46.8786 31.145C47.1068 31.1145 47.3387 31.1292 47.5612 31.1881C47.7836 31.2471 47.9922 31.3493 48.1748 31.4887C48.3575 31.6282 48.5107 31.8022 48.6255 32.0007C48.8525 32.4025 48.915 32.8759 48.8003 33.3224C48.7396 33.5429 48.6358 33.7494 48.4949 33.9299C48.354 34.1104 48.1787 34.2615 47.979 34.3746L42.973 37.2528C42.7828 37.3731 42.6467 37.5619 42.5931 37.7797C42.5395 37.9976 42.5725 38.2276 42.6853 38.4217C42.7981 38.6159 42.9819 38.7592 43.1983 38.8217C43.4147 38.8842 43.647 38.861 43.8466 38.7571L48.8527 35.8789C49.2528 35.6529 49.6035 35.3496 49.8841 34.9867C50.1646 34.6238 50.3695 34.2088 50.4864 33.7659C50.7242 32.8762 50.5986 31.929 50.137 31.1312L50.0845 31.0529L52.7841 22.7662C52.8914 22.3165 53.165 21.9236 53.5503 21.6657C53.9357 21.4079 54.4046 21.304 54.8634 21.3749C55.255 21.4566 55.6066 21.6695 55.8594 21.9781C56.1123 22.2867 56.251 22.6723 56.2525 23.0705C56.2555 23.2235 56.2349 23.376 56.1914 23.5227Z" fill="url(#paint1_linear)"/>
<path d="M30.2527 49.3047V41.1136C30.2504 39.7495 29.8906 38.4095 29.2088 37.2261C28.5269 36.0427 27.5467 35.0569 26.3649 34.366L18.6418 29.853C18.5894 29.8269 18.5282 29.8096 18.4758 29.7835L14.6579 18.8359C14.436 17.9549 13.8852 17.1911 13.1175 16.7C12.3498 16.209 11.4229 16.0275 10.5255 16.1925C9.74238 16.3591 9.03993 16.787 8.53464 17.4053C8.02934 18.0237 7.75155 18.7954 7.74731 19.5924C7.74708 19.7464 7.75583 19.9003 7.77352 20.0533C7.23776 20.357 6.7918 20.7957 6.48047 21.3254C6.16914 21.855 6.00343 22.457 6 23.0706C6.0017 23.3755 6.03982 23.679 6.11358 23.9749L9.91398 38.0789C10.1312 38.9083 10.5938 39.6536 11.2419 40.218L17.1391 45.4439C17.4155 45.6886 17.6369 45.9886 17.7889 46.3242C17.941 46.6598 18.0202 47.0236 18.0215 47.3917V49.3047C17.7898 49.3047 17.5676 49.3963 17.4037 49.5594C17.2399 49.7225 17.1478 49.9436 17.1478 50.1742V57.1306C17.1478 57.3612 17.2399 57.5824 17.4037 57.7454C17.5676 57.9085 17.7898 58.0001 18.0215 58.0001H30.2527C30.4844 58.0001 30.7066 57.9085 30.8704 57.7454C31.0343 57.5824 31.1263 57.3612 31.1263 57.1306V50.1742C31.1263 49.9436 31.0343 49.7225 30.8704 49.5594C30.7066 49.3963 30.4844 49.3047 30.2527 49.3047ZM9.49462 19.5924C9.4957 19.1954 9.63322 18.8108 9.88432 18.5023C10.1354 18.1938 10.485 17.9802 10.875 17.8968C11.3465 17.8287 11.8264 17.9405 12.2185 18.2098C12.6106 18.4792 12.8859 18.8861 12.9892 19.349L16.5013 29.427C16.0953 29.4715 15.6997 29.5832 15.3306 29.7574L12.9106 22.3141C12.7137 21.5552 12.2738 20.8808 11.6574 20.3929C11.0411 19.9049 10.2819 19.6301 9.49462 19.6098V19.5924ZM18.3011 44.1396L12.3952 38.9137C12.0117 38.5745 11.738 38.1296 11.6089 37.6354L7.79973 23.5228C7.76357 23.3748 7.74596 23.2229 7.74731 23.0706C7.74839 22.6736 7.8859 22.2889 8.13701 21.9805C8.38812 21.672 8.73771 21.4584 9.12769 21.375C9.59585 21.3051 10.0732 21.4142 10.4639 21.6803C10.8545 21.9465 11.1294 22.35 11.2332 22.8097L13.9153 31.053L13.8629 31.1313C13.4013 31.9291 13.2756 32.8763 13.5134 33.766C13.6304 34.2088 13.8352 34.6239 14.1158 34.9868C14.3964 35.3497 14.747 35.653 15.1472 35.879L20.1532 38.7572C20.3529 38.8611 20.5852 38.8843 20.8016 38.8218C21.018 38.7593 21.2018 38.616 21.3146 38.4218C21.4273 38.2277 21.4604 37.9976 21.4067 37.7798C21.3531 37.562 21.217 37.3732 21.0269 37.2528L16.0208 34.3747C15.8212 34.2616 15.6459 34.1105 15.505 33.93C15.364 33.7494 15.2603 33.543 15.1996 33.3225C15.0848 32.876 15.1474 32.4026 15.3743 32.0008C15.4885 31.8027 15.6407 31.6289 15.8224 31.4893C16.004 31.3497 16.2115 31.2472 16.433 31.1874C16.6544 31.1277 16.8856 31.1119 17.1132 31.1411C17.3408 31.1702 17.5603 31.2437 17.7594 31.3573L25.4825 35.8616C26.3998 36.402 27.1605 37.17 27.6904 38.0905C28.2202 39.0111 28.501 40.0527 28.5054 41.1136V49.3047H19.7688V47.3917C19.7673 46.7775 19.6358 46.1704 19.383 45.6101C19.1301 45.0497 18.7614 44.5487 18.3011 44.1396ZM29.379 56.261H18.8952V51.0438H29.379V56.261Z" fill="url(#paint2_linear)"/>
<path d="M44.3597 8.5508C43.5487 7.74216 42.5854 7.10064 41.5249 6.66296C40.4645 6.22529 39.3278 6.00004 38.1798 6.00012C37.0318 6.0002 35.895 6.22561 34.8347 6.66343C33.7743 7.10126 32.8111 7.74291 32.0001 8.55167C31.1893 7.74289 30.2261 7.10123 29.1658 6.66343C28.1054 6.22562 26.9687 6.00027 25.8208 6.00027C24.6728 6.00027 23.5361 6.22562 22.4758 6.66343C21.4154 7.10123 20.4523 7.74289 19.6414 8.55167C18.0062 10.1827 17.0879 12.3926 17.0879 14.6967C17.0879 17.0008 18.0062 19.2108 19.6414 20.8418L31.3833 32.5285C31.5472 32.6915 31.7693 32.783 32.001 32.783C32.2327 32.783 32.4549 32.6915 32.6187 32.5285L44.3606 20.8418C45.9957 19.2105 46.9139 17.0003 46.9138 14.6961C46.9136 12.3919 45.9951 10.1818 44.3597 8.5508ZM32.0001 30.6841L20.8759 19.6123C19.8993 18.6389 19.2345 17.3992 18.9657 16.0499C18.6968 14.7005 18.8359 13.3022 19.3655 12.0315C19.895 10.7609 20.7911 9.67506 21.9406 8.91125C23.0901 8.14745 24.4413 7.73999 25.8234 7.74039C26.7415 7.73725 27.651 7.91609 28.499 8.26648C29.3469 8.61686 30.1163 9.13178 30.7622 9.7812L31.3825 10.3986C31.5463 10.5616 31.7685 10.6532 32.0001 10.6532C32.2318 10.6532 32.454 10.5616 32.6178 10.3986L33.2399 9.77947C33.8885 9.13275 34.6588 8.61967 35.5069 8.2696C36.3549 7.91954 37.264 7.73935 38.1821 7.73935C39.1002 7.73935 40.0093 7.91954 40.8574 8.2696C41.7054 8.61967 42.4758 9.13275 43.1244 9.77947C44.4331 11.0838 45.1681 12.8517 45.1681 14.695C45.1681 16.5383 44.4331 18.3062 43.1244 19.6105L32.0001 30.6841Z" fill="url(#paint3_linear)"/>
<defs>
<linearGradient id="paint0_linear" x1="25.8843" y1="18.0015" x2="38.1154" y2="18.0015" gradientUnits="userSpaceOnUse">
<stop stop-color="#56AB2F"/>
<stop offset="1" stop-color="#93D642"/>
</linearGradient>
<linearGradient id="paint1_linear" x1="32.8735" y1="37.065" x2="57.9999" y2="37.065" gradientUnits="userSpaceOnUse">
<stop stop-color="#56AB2F"/>
<stop offset="1" stop-color="#93D642"/>
</linearGradient>
<linearGradient id="paint2_linear" x1="6" y1="37.0666" x2="31.1263" y2="37.0666" gradientUnits="userSpaceOnUse">
<stop stop-color="#56AB2F"/>
<stop offset="1" stop-color="#93D642"/>
</linearGradient>
<linearGradient id="paint3_linear" x1="17.0879" y1="19.3916" x2="46.9138" y2="19.3916" gradientUnits="userSpaceOnUse">
<stop stop-color="#56AB2F"/>
<stop offset="1" stop-color="#93D642"/>
</linearGradient>
</defs>
</svg>
