<svg width="64" height="64" viewBox="0 0 64 64" fill="none" xmlns="http://www.w3.org/2000/svg">
<path d="M55.1949 13.6965C47.4112 11.577 39.5812 8.27546 32.5512 4.15001C32.2111 3.95 31.7895 3.95 31.4488 4.15001C27.5816 6.41933 23.5795 8.40576 19.5522 10.0543L19.5338 10.0619C19.4749 10.0863 19.4157 10.1103 19.357 10.1346C18.7976 10.3599 18.5272 10.9971 18.7521 11.5571C18.9775 12.1177 19.6126 12.3888 20.1711 12.1633C20.2349 12.1382 20.2981 12.1122 20.3608 12.0862L20.3778 12.0792C24.3086 10.4702 28.2153 8.5473 32.0004 6.35893C38.8069 10.29 46.3205 13.4667 53.818 15.5843V26.8262C53.818 38.4673 48.4216 46.1668 43.8944 50.5761C38.7493 55.5873 33.2294 57.8122 31.9997 57.8122C30.7705 57.8122 25.2507 55.5873 20.1054 50.5761C15.5782 46.1668 10.1818 38.4673 10.1818 26.8262V15.5843C11.1335 15.3163 12.0818 15.0337 13.0099 14.741C13.5846 14.5603 13.9038 13.9466 13.7234 13.3701C13.5427 12.7937 12.9306 12.4734 12.3557 12.6545C11.1929 13.0203 9.9986 13.3713 8.80515 13.6965C8.32998 13.8259 8 14.2583 8 14.7515V26.8262C8 39.2317 13.7564 47.4417 18.5852 52.1449C23.7784 57.2026 29.8135 60 31.9997 60C34.1867 60 40.2214 57.2026 45.4145 52.1449C50.2442 47.4417 56 39.2317 56 26.8262V14.7515C56 14.2583 55.67 13.8259 55.1949 13.6965Z" fill="url(#paint0_linear)"/>
<path d="M15.7237 13.7764C15.8406 13.7764 15.9598 13.7572 16.0758 13.7174C16.088 13.7135 16.101 13.7091 16.1133 13.704C16.659 13.5124 16.964 12.9214 16.7967 12.3593C16.6243 11.7808 16.0161 11.4516 15.4388 11.6244C15.4101 11.633 15.3805 11.6431 15.3496 11.6551C14.7935 11.8583 14.4993 12.4715 14.6918 13.0359C14.8463 13.49 15.2701 13.7764 15.7237 13.7764Z" fill="url(#paint1_linear)"/>
<path d="M44.5933 46.2949C44.7924 46.4508 45.0288 46.5265 45.2634 46.5265C45.5881 46.5265 45.9088 46.382 46.1242 46.1061L46.1505 46.0722C46.5155 45.5914 46.4232 44.9058 45.9435 44.5392C45.4643 44.1728 44.7796 44.2659 44.4144 44.7466L44.4043 44.7594C44.0337 45.2356 44.1181 45.9231 44.5933 46.2949V46.2949Z" fill="url(#paint2_linear)"/>
<path d="M47.9402 43.4704C50.9721 38.5433 52.5098 32.9432 52.5098 26.8255V17.3873C52.5098 16.9051 52.195 16.48 51.7351 16.34C45.0914 14.3237 38.6311 11.5745 32.5323 8.16814C32.2022 7.98376 31.8 7.98393 31.4697 8.16902C25.3646 11.5885 18.9041 14.3381 12.2675 16.3421C11.8067 16.4814 11.4912 16.9067 11.4912 17.3893V26.8255C11.4912 31.1188 12.2598 35.1981 13.7748 38.9481C15.3054 42.7364 17.5991 46.1896 20.5918 49.2105C22.7067 51.3461 25.1483 53.2276 27.652 54.6513C28.1 54.9066 30.4076 56.192 31.7918 56.4624C31.861 56.4756 31.9309 56.4825 32.0007 56.4825C32.0706 56.4825 32.1403 56.4756 32.209 56.4624C33.5941 56.192 35.9007 54.9066 36.3488 54.6513C38.7584 53.281 41.1196 51.4806 43.177 49.4432C43.6056 49.0188 43.6102 48.3264 43.1869 47.8967C42.7635 47.4668 42.0731 47.4624 41.6443 47.8868C39.7207 49.7911 37.5177 51.4723 35.2725 52.7491C34.1953 53.3618 32.7896 54.0424 32.0007 54.2646C31.2121 54.0424 29.8056 53.3609 28.7285 52.7491C26.395 51.4217 24.1167 49.6655 22.1398 47.6698C16.6009 42.0779 13.6735 34.8699 13.6735 26.8255V18.1988C19.9963 16.2312 26.1557 13.6015 32.0028 10.3742C37.8424 13.5892 44.0008 16.2173 50.3283 18.1953V26.8255C50.3283 32.5315 48.9 37.7454 46.084 42.3218C45.7675 42.836 45.9267 43.5101 46.439 43.8272C46.9518 44.144 47.6242 43.9842 47.9402 43.4704Z" fill="url(#paint3_linear)"/>
<path d="M32.0001 14.757C23.5789 14.757 16.7275 21.6257 16.7275 30.0696C16.7275 38.5124 23.5789 45.3815 32.0001 45.3815C40.4213 45.3815 47.2725 38.5124 47.2725 30.0696C47.2725 21.6257 40.4213 14.757 32.0001 14.757V14.757ZM23.7041 40.2151C23.7644 37.1678 25.471 34.4186 28.1394 33.0136C29.217 33.8217 30.5538 34.3013 32.0001 34.3013C33.4461 34.3013 34.7832 33.8217 35.8603 33.0136C38.5285 34.4186 40.236 37.1678 40.2959 40.2151C38.036 42.0758 35.1459 43.1944 32.0001 43.1944C28.854 43.1944 25.9642 42.0758 23.7041 40.2151ZM27.7253 26.6975C28.0231 26.7479 28.3247 26.7716 28.6279 26.7716C30.2863 26.7716 31.9791 26.0811 33.1944 25.3643C34.0877 26.0743 35.1981 26.4571 36.2747 26.4469V27.828C36.2747 29.0204 35.7861 30.1 34.9997 30.8774C34.9597 30.9102 34.9223 30.946 34.8871 30.9854C34.1259 31.685 33.1118 32.1141 31.9994 32.1141C30.8871 32.1141 29.8723 31.6848 29.1113 30.984C29.0768 30.946 29.0407 30.9114 29.0018 30.8789C28.2143 30.1015 27.7253 29.0207 27.7253 27.8275V26.6975ZM27.7786 24.4657C28.101 22.421 29.8709 20.8523 32.0001 20.8523C34.0534 20.8523 35.7724 22.3116 36.1817 24.2499C35.5015 24.2297 34.7068 23.9203 34.1588 23.2709C33.7917 22.8354 33.1524 22.7555 32.6904 23.0881C31.5235 23.9266 29.3129 24.9181 27.7786 24.4657V24.4657ZM42.2553 38.2169C41.66 35.3679 39.9066 32.8824 37.3983 31.3727C38.0667 30.3537 38.4565 29.1359 38.4565 27.828V25.1509C38.4565 25.1478 38.4565 25.1443 38.4565 25.1409V25.1383C38.4565 21.5693 35.5598 18.665 32.0001 18.665C28.4397 18.665 25.5432 21.5693 25.5432 25.1383V27.828C25.5432 29.1359 25.9338 30.3537 26.6012 31.3727C24.0931 32.8824 22.3399 35.3677 21.7444 38.2169C19.9705 35.9771 18.9092 33.1449 18.9092 30.0696C18.9092 22.8328 24.782 16.9445 32.0001 16.9445C39.2184 16.9445 45.0907 22.8328 45.0907 30.0696C45.0907 33.1449 44.0297 35.9771 42.2553 38.2169V38.2169Z" fill="url(#paint4_linear)"/>
<defs>
<linearGradient id="paint0_linear" x1="8" y1="32" x2="56" y2="32" gradientUnits="userSpaceOnUse">
<stop stop-color="#56AB2F"/>
<stop offset="1" stop-color="#93D642"/>
</linearGradient>
<linearGradient id="paint1_linear" x1="14.6328" y1="12.6774" x2="16.8425" y2="12.6774" gradientUnits="userSpaceOnUse">
<stop stop-color="#56AB2F"/>
<stop offset="1" stop-color="#93D642"/>
</linearGradient>
<linearGradient id="paint2_linear" x1="44.1733" y1="45.4209" x2="46.3736" y2="45.4209" gradientUnits="userSpaceOnUse">
<stop stop-color="#56AB2F"/>
<stop offset="1" stop-color="#93D642"/>
</linearGradient>
<linearGradient id="paint3_linear" x1="11.4912" y1="32.2562" x2="52.5098" y2="32.2562" gradientUnits="userSpaceOnUse">
<stop stop-color="#56AB2F"/>
<stop offset="1" stop-color="#93D642"/>
</linearGradient>
<linearGradient id="paint4_linear" x1="16.7275" y1="30.0692" x2="47.2725" y2="30.0692" gradientUnits="userSpaceOnUse">
<stop stop-color="#56AB2F"/>
<stop offset="1" stop-color="#93D642"/>
</linearGradient>
</defs>
</svg>
