<svg width="410" height="321" fill="none" xmlns="http://www.w3.org/2000/svg"><path opacity=".25" d="M230.667 77.761c9.841 0 17.819-8.005 17.819-17.88 0-9.876-7.978-17.882-17.819-17.882s-17.819 8.006-17.819 17.881c0 9.876 7.978 17.881 17.819 17.881z" fill="url(#paint0_linear)"/><path opacity=".25" d="M326.099 77.29c-3.81-7.31-8.837-8.867-16.008-5.222-1.572-7.98-6.245-13.828-15.03-11.813-4.829 1.108-10.023 6.643-10.408 11.813-4.652-2.851-6.245-6.496-12.49-3.373-3.622 1.806-4.402 5.222-5.37 9.045l59.306-.45z" fill="url(#paint1_linear)"/><path opacity=".25" d="M368.251 27.324c-3.913-7.51-9.076-9.118-16.455-5.348-1.613-8.198-6.411-14.214-15.435-12.136-4.955 1.139-10.294 6.82-10.69 12.137-4.777-2.925-6.453-6.675-12.864-3.468-3.716 1.86-4.517 5.337-5.517 9.296l60.961-.48z" fill="url(#paint2_linear)"/><path d="M398.687 185.037H171.183a11.257 11.257 0 01-8.382-3.76 11.338 11.338 0 01-2.807-8.773l8.025-72.433h222.737c2.737 0 5.381 1.001 7.437 2.816a11.321 11.321 0 013.731 7.043l7.983 62.354a11.332 11.332 0 01-2.726 8.932 11.238 11.238 0 01-8.494 3.821z" fill="#162D3D"/><path d="M172.4 185.036h224.339v127.34a7.641 7.641 0 01-2.225 5.391 7.598 7.598 0 01-5.373 2.233H183.807a11.42 11.42 0 01-8.096-3.365 11.514 11.514 0 01-3.353-8.124V185.036h.042z" fill="#0D2333" stroke="url(#paint3_linear)" stroke-width=".3" stroke-miterlimit="10"/><path opacity=".27" d="M173.337 194.792c.416-.282 111.566 1.128 111.566 1.128m-111.566 13.212c.416-.282 111.566 1.128 111.566 1.128m-111.566 13.212c.416-.282 112.534 1.128 112.534 1.128m-112.534 13.212c.427-.282 112.544 1.128 112.544 1.128m-112.544 13.214c.427-.283 112.544 1.128 112.544 1.128m-112.544 13.211c.427-.282 111.993 1.128 111.993 1.128m-111.993 13.213c.416-.282 111.993 1.128 111.993 1.128m-111.993 13.212c.427-.282 112.534 1.128 112.534 1.128m-112.534 13.212c.416-.282 112.534 1.128 112.534 1.128" stroke="#fff" stroke-width=".3" stroke-miterlimit="10"/><path d="M210.818 215.503h-16.851c-3.484 0-6.308 2.834-6.308 6.33v51.805c0 3.495 2.824 6.329 6.308 6.329h16.851c3.483 0 6.307-2.834 6.307-6.329v-51.805c0-3.496-2.824-6.33-6.307-6.33z" fill="#0D2333"/><path opacity=".25" d="M202.022 215.409l.396 64.735" stroke="#fff" stroke-width="1.2" stroke-miterlimit="10"/><path opacity=".25" d="M187.481 266.702l29.757.407" stroke="#fff" stroke-width=".6" stroke-miterlimit="10"/><path d="M253.543 215.91h-16.289c-3.639 0-6.589 2.96-6.589 6.612v51.24c0 3.652 2.95 6.612 6.589 6.612h16.289c3.638 0 6.588-2.96 6.588-6.612v-51.24c0-3.652-2.95-6.612-6.588-6.612z" fill="#0D2333"/><path opacity=".25" d="M245.029 215.806l.396 64.735" stroke="#fff" stroke-width="1.2" stroke-miterlimit="10"/><path opacity=".25" d="M230.477 267.078l29.757.397" stroke="#fff" stroke-width=".6" stroke-miterlimit="10"/><path d="M356.626 274.421a2.8 2.8 0 01-1.67 2.638 2.782 2.782 0 01-3.065-.56 2.803 2.803 0 01.389-4.327 2.78 2.78 0 011.557-.477 2.752 2.752 0 011.955.785c.523.511.823 1.209.834 1.941z" fill="#86BC43"/><path d="M381.314 249.511a315.592 315.592 0 012.727 32.973m-2.247-21.317c-.759-2.089-5.308-3.134-6.796-4.805m8.065 6.799c1.509-3.133 4.018-6.194 5.829-9.17" stroke="#fff" stroke-width=".888" stroke-miterlimit="10"/><path d="M381.502 282.483h5.412a4.85 4.85 0 013.437 1.429 4.899 4.899 0 011.424 3.449v31.887h-15.113v-31.887c0-1.29.509-2.527 1.416-3.442a4.855 4.855 0 013.424-1.436z" fill="#162D3D"/><path d="M379.962 282.483h8.534c1.455 0 2.85.58 3.879 1.613a5.512 5.512 0 011.607 3.892v1.754h-19.495v-1.754c0-1.458.576-2.857 1.603-3.889a5.476 5.476 0 013.872-1.616zm17.057-97.019c0-5.493-1.176-8.794-3.341-11.426l-48.086-58.489a2.849 2.849 0 00-2.14-1.041 2.833 2.833 0 00-2.179.957l-52.041 58.49c-2.394 2.684-3.716 6.172-3.716 11.865l111.503-.356zM73.137 29.747c15.83-30.821 61.117-39.02 101.147-18.32 40.03 20.702 59.65 62.532 43.808 93.312-15.841 30.78-61.107 39.021-101.137 18.309-40.03-20.711-59.65-62.479-43.818-93.3z" fill="#0D2333"/><path d="M59.064 301.482l98.879-194.268-55.695-28.545-24.771 48.661-16.935 5.505-5.464 10.726 5.485 16.993-5.985 11.761-11.345 3.687-3.31 6.517 1.957 6.079-2.498 4.919-12.177 3.959-11.45 22.591 4.82 14.936-4.465 8.773-8.14 2.643-5.828 11.489 3.466 10.758-2.186 4.303a31.484 31.484 0 00-1.9 23.94 31.397 31.397 0 005.95 10.687 31.281 31.281 0 009.574 7.589 31.17 31.17 0 0023.857 1.908 31.25 31.25 0 0010.65-5.972 31.368 31.368 0 007.564-9.607l-.053-.032z" fill="#0D2333"/><path opacity=".25" d="M125.552 57.05c-4.257 8.553 1.197 20.042 12.271 25.63 11.075 5.588 23.533 3.27 27.832-5.222 4.298-8.492-1.187-20.002-12.261-25.62-11.074-5.62-23.544-3.312-27.842 5.211z" fill="#0D2333"/><path opacity=".25" d="M126.219 57.593c-4.298 8.533 1.197 20 12.272 25.62 11.074 5.619 23.543 3.28 27.842-5.222 4.298-8.502-1.197-20.002-12.272-25.62-11.074-5.62-23.543-3.301-27.842 5.221z" fill="#000"/><path d="M237.463 150.141c7.662 0 13.874-6.233 13.874-13.922 0-7.689-6.212-13.923-13.874-13.923-7.663 0-13.874 6.234-13.874 13.923s6.211 13.922 13.874 13.922z" fill="url(#paint4_linear)"/><path d="M155.476 53.07s-19.609 14.623-6.078 47.439c0 0 15.966 40.431 61.044 49.58 0 0 27.988 6.267 40.478-17.452 0 0-1.343-9.16-11.762-10.246 0 0-4.475 21.379-33.91 11.165a69.733 69.733 0 01-21.857-12.461c-9.086-7.593-21.639-20.889-23.773-37.6 0 0-2.57-12.888 6.141-19.938-.041.02-4.225-7.426-10.283-10.487zm63.999 5.578s4.507 8.606 4.112 22.977a82.24 82.24 0 0112.552 19.083h15.612s-5.974-23.459-32.276-42.06z" fill="#86BC43"/><path d="M332.583 140.459h19.203c2.181 0 4.272.869 5.814 2.417a8.265 8.265 0 012.409 5.834v12.032c0 4.743-1.878 9.291-5.219 12.644a17.79 17.79 0 01-12.6 5.237 17.788 17.788 0 01-12.6-5.237 17.91 17.91 0 01-5.219-12.644V148.71c0-2.188.866-4.287 2.408-5.834a8.207 8.207 0 015.814-2.417h-.01zm-12.012 80.12h43.163c1.317 0 2.58.525 3.511 1.459a4.993 4.993 0 011.454 3.523v94.21h-53.082v-94.21c0-1.319.522-2.585 1.45-3.519a4.958 4.958 0 013.504-1.463z" fill="#162D3D"/><path d="M323.8 226.449h37.376c.692 0 1.357.276 1.847.768.49.491.765 1.158.765 1.853v90.68h-42.653v-90.721a2.622 2.622 0 012.665-2.58z" fill="#0D2333"/><path d="M382.679 270.358c10.444 0 18.911-8.562 18.911-19.124s-8.467-19.124-18.911-19.124c-10.445 0-18.912 8.562-18.912 19.124s8.467 19.124 18.912 19.124z" fill="#86BC43"/><defs><linearGradient id="paint0_linear" x1="212.838" y1="59.88" x2="248.486" y2="59.88" gradientUnits="userSpaceOnUse"><stop stop-color="#fff" stop-opacity="0"/><stop offset="1" stop-color="#fff"/></linearGradient><linearGradient id="paint1_linear" x1="18519.5" y1="2118.02" x2="21899.9" y2="2118.02" gradientUnits="userSpaceOnUse"><stop stop-color="#fff" stop-opacity="0"/><stop offset="1" stop-color="#fff"/></linearGradient><linearGradient id="paint2_linear" x1="21442.5" y1="1240.96" x2="25013" y2="1240.96" gradientUnits="userSpaceOnUse"><stop stop-color="#fff" stop-opacity="0"/><stop offset="1" stop-color="#fff"/></linearGradient><linearGradient id="paint3_linear" x1="172.275" y1="252.518" x2="396.864" y2="252.518" gradientUnits="userSpaceOnUse"><stop stop-color="#0F2333"/><stop offset="1" stop-color="#0A0E11"/></linearGradient><linearGradient id="paint4_linear" x1="223.589" y1="136.219" x2="251.347" y2="136.219" gradientUnits="userSpaceOnUse"><stop stop-color="#102332"/><stop offset="1" stop-color="#0D1113"/></linearGradient></defs></svg>