<svg width="24" height="24" fill="none" xmlns="http://www.w3.org/2000/svg"><path d="M18.284 9.385l1.4 1.4a1.764 1.764 0 010 2.492l-1.4 1.4a.823.823 0 01-1.166 0l1.166-5.292zm0 0a.825.825 0 00-1.166 0m1.166 0h-1.166m0 0s0 0 0 0a.825.825 0 000 1.167s0 0 0 0l.654.654H10.75a.825.825 0 100 1.65h7.022l-.654.654s0 0 0 0a.825.825 0 000 1.167V9.385zM15.48 17.5v-1.25a.825.825 0 10-1.65 0v1.25c0 .579-.471 1.05-1.05 1.05H6.5c-.579 0-1.05-.471-1.05-1.05v-11c0-.579.471-1.05 1.05-1.05h6.281c.579 0 1.05.471 1.05 1.05v1.25a.825.825 0 101.65 0V6.5c0-1.489-1.21-2.7-2.7-2.7H6.5a2.703 2.703 0 00-2.7 2.7v11c0 1.489 1.211 2.7 2.7 2.7h6.281c1.49 0 2.7-1.211 2.7-2.7z" fill="#89C142" stroke="#89C142" stroke-width=".4"/></svg>