<svg width="24" height="24" fill="none" xmlns="http://www.w3.org/2000/svg"><path fill-rule="evenodd" clip-rule="evenodd" d="M6.904 6.904A6.5 6.5 0 0118 11.5v.667h-1.5a2.667 2.667 0 00-2.667 2.666v2.5A2.667 2.667 0 0016.5 20h.833A2.667 2.667 0 0020 17.333V11.5a8.5 8.5 0 10-17 0v5.833A2.667 2.667 0 005.667 20H6.5a2.667 2.667 0 002.667-2.667v-2.5A2.667 2.667 0 006.5 12.167H5V11.5a6.5 6.5 0 011.904-4.596zM5 14.167v3.166a.667.667 0 00.667.667H6.5a.667.667 0 00.667-.667v-2.5a.667.667 0 00-.667-.666H5zm13 0h-1.5a.667.667 0 00-.667.666v2.5A.667.667 0 0016.5 18h.833a.667.667 0 00.667-.667v-3.166z" fill="#89C142"/></svg>