<svg xmlns="http://www.w3.org/2000/svg" width="120" height="120" fill="none"><g clip-path="url(#clip0)"><path d="M72.538 47.439c-.264 0-.53-.045-.786-.136l-11.751-4.179-11.753 4.18a2.344 2.344 0 01-3.128-2.274l.343-12.468-7.606-9.886a2.342 2.342 0 011.194-3.677l11.965-3.527 7.05-10.29a2.346 2.346 0 013.868 0l7.052 10.29L80.95 19a2.344 2.344 0 011.194 3.677l-7.606 9.886.344 12.468a2.346 2.346 0 01-2.344 2.409zm-28.88-24.91l6.028 7.835c.329.427.5.954.485 1.493l-.271 9.884 9.315-3.313a2.35 2.35 0 011.571 0l9.315 3.313-.271-9.884a2.337 2.337 0 01.485-1.493l6.029-7.836-9.483-2.796a2.34 2.34 0 01-1.271-.923L60 10.654l-5.589 8.155a2.34 2.34 0 01-1.27.923l-9.484 2.796z" fill="url(#paint0_linear)"/><path d="M94.164 25.859a2.345 2.345 0 01-2.342-2.408l.143-5.253-3.204-4.166a2.346 2.346 0 011.195-3.677l5.04-1.486 2.972-4.335a2.345 2.345 0 013.867 0l2.971 4.335 5.04 1.486a2.344 2.344 0 011.195 3.677l-3.205 4.166.145 5.253a2.341 2.341 0 01-3.128 2.272l-4.952-1.76-4.951 1.76a2.347 2.347 0 01-.786.136zm5.737-6.728c.266 0 .531.045.785.136l2.515.893-.074-2.667a2.339 2.339 0 01.486-1.493l1.627-2.116-2.56-.755a2.342 2.342 0 01-1.271-.923L99.9 10.005l-1.509 2.201c-.304.445-.753.77-1.27.923l-2.56.755 1.628 2.115c.327.427.5.954.484 1.494L96.6 20.16l2.515-.894c.255-.09.52-.136.786-.136z" fill="url(#paint1_linear)"/><path d="M25.836 25.859c-.263 0-.529-.045-.785-.136l-4.951-1.76-4.952 1.76a2.345 2.345 0 01-3.128-2.272l.145-5.253-3.206-4.166a2.343 2.343 0 011.196-3.678l5.04-1.486 2.971-4.335a2.346 2.346 0 013.867 0l2.971 4.335 5.04 1.487a2.342 2.342 0 011.196 3.677l-3.205 4.165.144 5.253a2.344 2.344 0 01-2.343 2.409zM20.1 19.13c.265 0 .531.045.785.136l2.515.893-.073-2.667A2.342 2.342 0 0123.81 16l1.628-2.116-2.56-.755a2.34 2.34 0 01-1.27-.923l-1.51-2.201-1.508 2.201c-.305.445-.754.77-1.271.923l-2.56.755 1.628 2.115c.329.427.5.954.485 1.494L16.8 20.16l2.515-.894c.254-.09.52-.136.785-.136z" fill="url(#paint2_linear)"/><path d="M60 100.431a2.346 2.346 0 01-.895-.18 2.306 2.306 0 01-.406-.217 2.22 2.22 0 01-.646-.646 2.26 2.26 0 01-.216-.406 2.332 2.332 0 01-.18-.895 2.33 2.33 0 01.18-.897c.058-.141.13-.278.216-.404a2.225 2.225 0 01.646-.646 2.353 2.353 0 011.758-.35 2.355 2.355 0 011.706 1.4c.059.143.106.29.133.44a2.265 2.265 0 01-.133 1.353 2.325 2.325 0 01-1.268 1.268 2.348 2.348 0 01-.895.18z" fill="url(#paint3_linear)"/><path d="M60 92.696a2.344 2.344 0 01-2.344-2.343V51.68a2.344 2.344 0 014.688 0v38.673A2.344 2.344 0 0160 92.696z" fill="url(#paint4_linear)"/><path d="M99.785 77.761a2.344 2.344 0 01-2.118-1.338l-4.212-8.86-8.86-4.213a2.342 2.342 0 01-.606-3.819l7.126-6.744 1.268-9.729a2.343 2.343 0 013.445-1.755l8.616 4.692 9.644-1.8a2.346 2.346 0 012.735 2.734l-1.801 9.644 4.693 8.616a2.343 2.343 0 01-1.756 3.445l-9.729 1.268-6.744 7.126a2.34 2.34 0 01-1.701.733zm-10.09-17.176l6.526 3.102c.486.231.878.623 1.11 1.11l3.102 6.525 4.966-5.247a2.344 2.344 0 011.4-.713l7.164-.934-3.457-6.344a2.347 2.347 0 01-.245-1.551l1.326-7.103-7.102 1.327a2.347 2.347 0 01-1.551-.246l-6.346-3.456-.932 7.164a2.338 2.338 0 01-.714 1.4l-5.247 4.966z" fill="url(#paint5_linear)"/><path d="M64.136 116.805a2.345 2.345 0 01-2.335-2.585c1.537-14.86 8.692-26.15 14.424-33.004 6.19-7.402 12.044-11.337 12.29-11.5a2.344 2.344 0 012.597 3.902c-.223.148-5.531 3.717-11.292 10.605-5.311 6.353-11.942 16.797-13.355 30.48a2.344 2.344 0 01-2.329 2.102z" fill="url(#paint6_linear)"/><path d="M20.216 77.761c-.638 0-1.256-.26-1.702-.732l-6.744-7.126-9.73-1.268A2.342 2.342 0 01.287 65.19l4.692-8.616-1.8-9.645a2.341 2.341 0 012.733-2.734l9.645 1.801 8.616-4.693a2.344 2.344 0 013.445 1.755l1.268 9.73 7.126 6.743a2.345 2.345 0 01-.605 3.82l-8.861 4.212-4.212 8.86a2.346 2.346 0 01-2.117 1.338zM6.038 64.428l7.164.934a2.34 2.34 0 011.399.713l4.966 5.247 3.102-6.525a2.343 2.343 0 011.11-1.11l6.526-3.102-5.247-4.967a2.338 2.338 0 01-.713-1.399l-.934-7.164-6.345 3.456a2.348 2.348 0 01-1.55.246L8.412 49.43l1.325 7.102c.1.53.013 1.078-.245 1.55l-3.455 6.345z" fill="url(#paint7_linear)"/><path d="M55.864 116.805a2.343 2.343 0 01-2.328-2.103C52.12 101.02 45.492 90.576 40.18 84.223c-5.758-6.885-11.069-10.457-11.292-10.605a2.344 2.344 0 112.598-3.902c.246.163 6.103 4.102 12.29 11.5 5.731 6.854 12.886 18.144 14.422 33.005a2.343 2.343 0 01-2.334 2.584z" fill="url(#paint8_linear)"/><path d="M78.412 116.368a2.344 2.344 0 01-2.129-3.321c3.579-7.801 9.543-12.615 13.915-15.28 4.634-2.825 8.398-3.873 8.812-3.984a2.343 2.343 0 111.208 4.53c-.034.008-3.44.933-7.58 3.456-3.815 2.325-9.01 6.508-12.094 13.232a2.342 2.342 0 01-2.132 1.367z" fill="url(#paint9_linear)"/><path d="M43.81 116.368a2.345 2.345 0 01-2.132-1.367c-3.084-6.724-8.278-10.907-12.093-13.232-4.14-2.523-7.547-3.448-7.581-3.457a2.343 2.343 0 111.208-4.529c.415.11 4.18 1.161 8.813 3.984 4.372 2.665 10.336 7.479 13.914 15.28a2.343 2.343 0 01-2.129 3.321z" fill="url(#paint10_linear)"/><path d="M109.183 86.599a2.344 2.344 0 01-2.344-2.344v-1.95a2.344 2.344 0 014.688 0v1.95a2.344 2.344 0 01-2.344 2.344z" fill="url(#paint11_linear)"/><path d="M109.183 97.181a2.345 2.345 0 01-2.344-2.343v-1.952a2.345 2.345 0 014.688 0v1.952a2.345 2.345 0 01-2.344 2.344z" fill="url(#paint12_linear)"/><path d="M115.449 90.915h-1.951a2.344 2.344 0 010-4.688h1.951a2.344 2.344 0 110 4.688z" fill="url(#paint13_linear)"/><path d="M104.868 90.915h-1.951a2.344 2.344 0 010-4.688h1.951a2.344 2.344 0 010 4.688z" fill="url(#paint14_linear)"/><path d="M10.817 86.599a2.344 2.344 0 01-2.344-2.344v-1.95a2.344 2.344 0 114.688 0v1.95a2.344 2.344 0 01-2.344 2.344z" fill="url(#paint15_linear)"/><path d="M10.817 97.181a2.344 2.344 0 01-2.344-2.343v-1.952a2.344 2.344 0 014.688 0v1.952a2.344 2.344 0 01-2.344 2.344z" fill="url(#paint16_linear)"/><path d="M17.084 90.915h-1.95a2.344 2.344 0 010-4.688h1.95a2.344 2.344 0 110 4.688z" fill="url(#paint17_linear)"/><path d="M6.502 90.915H4.551a2.345 2.345 0 010-4.688h1.951a2.344 2.344 0 110 4.688z" fill="url(#paint18_linear)"/></g><defs><linearGradient id="paint0_linear" x1="37.37" y1="25.802" x2="82.631" y2="25.802" gradientUnits="userSpaceOnUse"><stop stop-color="#3080CF"/><stop offset="1" stop-color="#263A73"/></linearGradient><linearGradient id="paint1_linear" x1="88.275" y1="14.687" x2="111.527" y2="14.687" gradientUnits="userSpaceOnUse"><stop stop-color="#3080CF"/><stop offset="1" stop-color="#263A73"/></linearGradient><linearGradient id="paint2_linear" x1="8.474" y1="14.687" x2="31.725" y2="14.687" gradientUnits="userSpaceOnUse"><stop stop-color="#3080CF"/><stop offset="1" stop-color="#263A73"/></linearGradient><linearGradient id="paint3_linear" x1="57.656" y1="98.088" x2="62.344" y2="98.088" gradientUnits="userSpaceOnUse"><stop stop-color="#3080CF"/><stop offset="1" stop-color="#263A73"/></linearGradient><linearGradient id="paint4_linear" x1="57.656" y1="71.016" x2="62.344" y2="71.016" gradientUnits="userSpaceOnUse"><stop stop-color="#3080CF"/><stop offset="1" stop-color="#263A73"/></linearGradient><linearGradient id="paint5_linear" x1="83.256" y1="59.389" x2="120" y2="59.389" gradientUnits="userSpaceOnUse"><stop stop-color="#3080CF"/><stop offset="1" stop-color="#263A73"/></linearGradient><linearGradient id="paint6_linear" x1="61.789" y1="93.064" x2="92.157" y2="93.064" gradientUnits="userSpaceOnUse"><stop stop-color="#3080CF"/><stop offset="1" stop-color="#263A73"/></linearGradient><linearGradient id="paint7_linear" x1="0" y1="59.389" x2="36.743" y2="59.389" gradientUnits="userSpaceOnUse"><stop stop-color="#3080CF"/><stop offset="1" stop-color="#263A73"/></linearGradient><linearGradient id="paint8_linear" x1="27.843" y1="93.064" x2="58.211" y2="93.064" gradientUnits="userSpaceOnUse"><stop stop-color="#3080CF"/><stop offset="1" stop-color="#263A73"/></linearGradient><linearGradient id="paint9_linear" x1="76.07" y1="105.036" x2="101.958" y2="105.036" gradientUnits="userSpaceOnUse"><stop stop-color="#3080CF"/><stop offset="1" stop-color="#263A73"/></linearGradient><linearGradient id="paint10_linear" x1="20.264" y1="105.036" x2="46.153" y2="105.036" gradientUnits="userSpaceOnUse"><stop stop-color="#3080CF"/><stop offset="1" stop-color="#263A73"/></linearGradient><linearGradient id="paint11_linear" x1="106.839" y1="83.28" x2="111.527" y2="83.28" gradientUnits="userSpaceOnUse"><stop stop-color="#3080CF"/><stop offset="1" stop-color="#263A73"/></linearGradient><linearGradient id="paint12_linear" x1="106.839" y1="93.862" x2="111.527" y2="93.862" gradientUnits="userSpaceOnUse"><stop stop-color="#3080CF"/><stop offset="1" stop-color="#263A73"/></linearGradient><linearGradient id="paint13_linear" x1="111.155" y1="88.571" x2="117.793" y2="88.571" gradientUnits="userSpaceOnUse"><stop stop-color="#3080CF"/><stop offset="1" stop-color="#263A73"/></linearGradient><linearGradient id="paint14_linear" x1="100.573" y1="88.571" x2="107.212" y2="88.571" gradientUnits="userSpaceOnUse"><stop stop-color="#3080CF"/><stop offset="1" stop-color="#263A73"/></linearGradient><linearGradient id="paint15_linear" x1="8.473" y1="83.28" x2="13.161" y2="83.28" gradientUnits="userSpaceOnUse"><stop stop-color="#3080CF"/><stop offset="1" stop-color="#263A73"/></linearGradient><linearGradient id="paint16_linear" x1="8.473" y1="93.862" x2="13.161" y2="93.862" gradientUnits="userSpaceOnUse"><stop stop-color="#3080CF"/><stop offset="1" stop-color="#263A73"/></linearGradient><linearGradient id="paint17_linear" x1="12.789" y1="88.571" x2="19.428" y2="88.571" gradientUnits="userSpaceOnUse"><stop stop-color="#3080CF"/><stop offset="1" stop-color="#263A73"/></linearGradient><linearGradient id="paint18_linear" x1="2.207" y1="88.571" x2="8.846" y2="88.571" gradientUnits="userSpaceOnUse"><stop stop-color="#3080CF"/><stop offset="1" stop-color="#263A73"/></linearGradient><clipPath id="clip0"><path fill="#fff" d="M0 0h120v120H0z"/></clipPath></defs></svg>