<svg width="338" height="317" fill="none" xmlns="http://www.w3.org/2000/svg"><g clip-path="url(#clip0)"><path d="M269.205 224.76s41.815 2.162 32.076 15.325c-9.74 13.164-35.332-7.721-35.332-7.721l3.256-7.604z" fill="#E09191"/><path d="M192.147 99.382l8.511 2.128s4.965 14.894 8.511 28.37c3.547 13.477 10.639 53.905 10.639 53.905l54.988 38.537-6.558 14.671-73.254-28.87-16.313-64.057 13.476-44.684z" fill="url(#paint0_linear)"/><path opacity=".2" d="M200.155 125.82l-3.172 66.43 6.619 19.751-19.391-14.22 15.944-71.961z" fill="#000"/><path d="M211.652 243.718s9.22 24.825 10.639 41.847a1566.211 1566.211 0 002.837 30.499h-43.266l-8.511-12.767v12.767h-50.358s-14.186-46.103-8.511-51.777c5.674-5.674 59.578-29.789 59.578-29.789l37.592 9.22z" fill="#0D2333"/><path d="M294.092 315.418H43.737v.862h250.355v-.862z" fill="#3F3D56"/><path d="M157.392 72.43c14.886 0 26.953-12.068 26.953-26.953s-12.067-26.952-26.953-26.952c-14.885 0-26.952 12.067-26.952 26.952 0 14.886 12.067 26.953 26.952 26.953z" fill="#E09191"/><path d="M136.824 56.825l-2.128 31.208 26.952 36.173 13.476-34.045s-12.057-7.802-4.965-24.115l-33.335-9.22z" fill="#E09191"/><path d="M215.551 249.747c0 6.386-17.732 16.314-17.732 16.314v3.546l-7.092 3.546-15.603-31.206-4.253 34.042s-31.211 4.968-41.139 0c-9.932-4.964-14.896-2.836-29.082-7.8-14.185-4.964 5.675-71.638 5.675-71.638L92.14 93.708l30.991-15.496 1.633-.818 4.262-.785 6.532-1.206 21.834 14.758 1.758 9.222 1.082 5.675 5.67-6.386 4.283-14.087 30.474 16.926-8.51 68.087s23.402 73.767 23.402 80.149z" fill="url(#paint1_linear)"/><path d="M111.29 271.734s32.626 26.243 17.022 31.208-24.115-26.952-24.115-26.952l7.093-4.256z" fill="#E09191"/><path d="M99.232 95.126l-7.092-1.419S81.5 99.382 80.79 110.73c-.709 11.348-9.93 90.787-9.93 90.787l29.79 80.147 24.115-9.22-23.406-75.183 17.732-65.253-19.86-36.882z" fill="url(#paint2_linear)"/><path d="M160.512 116.771a2.585 2.585 0 100-5.17 2.585 2.585 0 000 5.17zm0 16.805a2.585 2.585 0 100-5.171 2.586 2.586 0 000 5.171zm14.65 110.743a2.586 2.586 0 100-5.173 2.586 2.586 0 000 5.173zM134.637 17.866l-4.982-1.995S140.072 4.402 154.566 5.4L150.49.911s9.964-3.989 19.023 6.483c4.762 5.505 10.271 11.975 13.706 19.264h5.336l-2.227 4.904 7.794 4.903-8-.88a27.38 27.38 0 01.217 8.133 10.524 10.524 0 01-3.853 6.884s-6.179-12.79-6.179-14.785v4.987s-4.983-4.488-4.983-7.48l-2.717 3.49H150.49l2.717-4.487-10.417 1.496 4.076-5.486-16.129 22.65s-9.235-25.641 3.9-33.121z" fill="#2F2E41"/><path d="M294.91 208.527c23.798 0 43.09-19.292 43.09-43.09 0-23.799-19.292-43.091-43.09-43.091-23.799 0-43.091 19.292-43.091 43.091 0 23.798 19.292 43.09 43.091 43.09z" fill="#3F3D56"/><path opacity=".1" d="M294.91 202.494c20.466 0 37.057-16.591 37.057-37.057 0-20.467-16.591-37.058-37.057-37.058-20.467 0-37.058 16.591-37.058 37.058 0 20.466 16.591 37.057 37.058 37.057z" fill="#000"/><path d="M293.134 187.304v-5.394c-2.727-.053-5.547-1.014-7.192-2.349l1.128-3.578a11.5 11.5 0 006.769 2.296c3.338 0 5.594-2.19 5.594-5.234 0-2.937-1.833-4.752-5.312-6.355-4.795-2.135-7.756-4.592-7.756-9.238 0-4.433 2.773-7.797 7.098-8.598v-5.394h2.914v5.181c2.174.029 4.293.678 6.112 1.869l-1.176 3.524a10.393 10.393 0 00-5.923-1.816c-3.619 0-4.983 2.457-4.983 4.593 0 2.777 1.74 4.165 5.829 6.088 4.842 2.243 7.287 5.02 7.287 9.773 0 4.218-2.586 8.17-7.428 9.078v5.554h-2.961z" fill="url(#paint3_linear)"/><path opacity=".2" d="M107.728 217.716l17.234 53.834-13.789-56.017-3.445 2.183z" fill="#000"/><path d="M19.862 112.547H8.922a1.8 1.8 0 01-1.798-1.799V95.023a1.8 1.8 0 011.799-1.798h10.939a1.8 1.8 0 011.798 1.798v15.725a1.8 1.8 0 01-1.798 1.799zm-10.94-18.46a.938.938 0 00-.936.936v15.725a.936.936 0 00.937.937h10.939a.935.935 0 00.936-.937V95.023a.938.938 0 00-.936-.936H8.922zm30.921 18.46h-9.88a2.33 2.33 0 01-2.328-2.329V78.461a2.33 2.33 0 012.329-2.328h9.879a2.331 2.331 0 012.328 2.328v31.757a2.33 2.33 0 01-2.328 2.329zm-9.88-35.553a1.469 1.469 0 00-1.466 1.467v31.757a1.47 1.47 0 001.467 1.467h9.879a1.466 1.466 0 001.466-1.467V78.461a1.468 1.468 0 00-1.466-1.467h-9.88zm30.009 35.553h-9.116a2.714 2.714 0 01-2.71-2.71v-46.72a2.713 2.713 0 012.71-2.71h9.116a2.713 2.713 0 012.71 2.71v46.72a2.713 2.713 0 01-2.71 2.71zm-9.116-51.278a1.85 1.85 0 00-1.848 1.849v46.719a1.849 1.849 0 001.848 1.848h9.116a1.85 1.85 0 001.848-1.848v-46.72a1.85 1.85 0 00-1.848-1.848h-9.116z" fill="#3F3D56"/><path opacity=".5" d="M18.494 96.22H10.29v13.332h8.204V96.22z" fill="url(#paint4_linear)"/><path opacity=".5" d="M39.005 79.298h-8.204v30.254h8.204V79.298z" fill="url(#paint5_linear)"/><path opacity=".5" d="M59.516 63.573h-8.204v45.979h8.204V63.573z" fill="url(#paint6_linear)"/><path d="M311.543 62.993h-57.31a.435.435 0 01-.398-.266.425.425 0 01-.033-.165V4.39a.43.43 0 01.862 0v57.74h56.879a.43.43 0 110 .863zM68.514 118.579H.43a.443.443 0 01-.165-.032.438.438 0 01-.233-.234.429.429 0 01-.033-.165V50.497a.43.43 0 11.862 0v67.221h67.652a.43.43 0 110 .861z" fill="#3F3D56"/><path d="M274.011 57.592h-10.939a1.8 1.8 0 01-1.799-1.798V40.07a1.803 1.803 0 011.799-1.798h10.939a1.8 1.8 0 011.798 1.798v15.725a1.798 1.798 0 01-1.798 1.798zm-10.939-18.46a.937.937 0 00-.937.937v15.725a.935.935 0 00.937.937h10.939a.94.94 0 00.936-.937V40.07a.938.938 0 00-.936-.936h-10.939zm33.342 18.46h-10.069a2.238 2.238 0 01-2.234-2.233V26.875a2.238 2.238 0 012.234-2.234h10.069a2.235 2.235 0 012.233 2.234v28.482a2.232 2.232 0 01-2.233 2.234zm-10.069-32.088a1.375 1.375 0 00-1.372 1.372v28.482a1.373 1.373 0 001.372 1.373h10.069a1.373 1.373 0 001.371-1.373V26.877a1.372 1.372 0 00-1.371-1.372h-10.069z" fill="#3F3D56"/><path opacity=".5" d="M272.447 41.415h-8.205v13.332h8.205V41.415z" fill="url(#paint7_linear)"/><path opacity=".5" d="M295.482 28.22h-8.205v25.795h8.205V28.219z" fill="url(#paint8_linear)"/><path opacity=".5" d="M268.453 33.691a3.878 3.878 0 100-7.756 3.878 3.878 0 000 7.756z" fill="url(#paint9_linear)"/><path opacity=".5" d="M291.291 19.04a3.878 3.878 0 100-7.755 3.878 3.878 0 000 7.755z" fill="url(#paint10_linear)"/></g><defs><linearGradient id="paint0_linear" x1="178.671" y1="99.382" x2="274.796" y2="99.382" gradientUnits="userSpaceOnUse"><stop stop-color="#0D2333"/><stop offset="1" stop-color="#040A0F"/></linearGradient><linearGradient id="paint1_linear" x1="92.14" y1="75.403" x2="215.551" y2="75.403" gradientUnits="userSpaceOnUse"><stop stop-color="#0D2333"/><stop offset="1" stop-color="#040A0F"/></linearGradient><linearGradient id="paint2_linear" x1="70.862" y1="93.707" x2="124.766" y2="93.707" gradientUnits="userSpaceOnUse"><stop stop-color="#0D2333"/><stop offset="1" stop-color="#040A0F"/></linearGradient><linearGradient id="paint3_linear" x1="285.942" y1="165.382" x2="303.523" y2="165.382" gradientUnits="userSpaceOnUse"><stop stop-color="#3080CF"/><stop offset="1" stop-color="#263A73"/></linearGradient><linearGradient id="paint4_linear" x1="10.29" y1="102.886" x2="18.494" y2="102.886" gradientUnits="userSpaceOnUse"><stop stop-color="#56AB2F"/><stop offset="1" stop-color="#93D642"/></linearGradient><linearGradient id="paint5_linear" x1="30.801" y1="94.425" x2="39.005" y2="94.425" gradientUnits="userSpaceOnUse"><stop stop-color="#56AB2F"/><stop offset="1" stop-color="#93D642"/></linearGradient><linearGradient id="paint6_linear" x1="51.312" y1="86.562" x2="59.516" y2="86.562" gradientUnits="userSpaceOnUse"><stop stop-color="#56AB2F"/><stop offset="1" stop-color="#93D642"/></linearGradient><linearGradient id="paint7_linear" x1="264.242" y1="48.081" x2="272.447" y2="48.081" gradientUnits="userSpaceOnUse"><stop stop-color="#56AB2F"/><stop offset="1" stop-color="#93D642"/></linearGradient><linearGradient id="paint8_linear" x1="287.277" y1="41.117" x2="295.482" y2="41.117" gradientUnits="userSpaceOnUse"><stop stop-color="#56AB2F"/><stop offset="1" stop-color="#93D642"/></linearGradient><linearGradient id="paint9_linear" x1="264.575" y1="29.813" x2="272.331" y2="29.813" gradientUnits="userSpaceOnUse"><stop stop-color="#56AB2F"/><stop offset="1" stop-color="#93D642"/></linearGradient><linearGradient id="paint10_linear" x1="287.413" y1="15.162" x2="295.169" y2="15.162" gradientUnits="userSpaceOnUse"><stop stop-color="#56AB2F"/><stop offset="1" stop-color="#93D642"/></linearGradient><clipPath id="clip0"><path fill="#fff" transform="translate(0 .166)" d="M0 0h338v316.114H0z"/></clipPath></defs></svg>