<svg width="140" height="140" fill="none" xmlns="http://www.w3.org/2000/svg"><path d="M139.845 69.776l-13.154-37.478a2.734 2.734 0 00-3.116-1.776l-13.7 2.741-24.08-7.163c-3.476-1.034-7.285-1.65-11.58.83l-4.291 2.478-4.292-2.477c-4.295-2.48-8.104-1.865-11.579-.83l-23.995 7.137L17.6 29.952a2.735 2.735 0 00-3.256 1.679L.177 69.183a2.734 2.734 0 001.192 3.333l11.778 6.8a9.412 9.412 0 00-.437 6.185 9.412 9.412 0 004.408 5.757 9.426 9.426 0 005.511 1.234 9.482 9.482 0 004.735 7.997 9.47 9.47 0 008.679.409 9.43 9.43 0 004.014 4.583 9.412 9.412 0 007.19.939 9.584 9.584 0 002.047-.807 9.394 9.394 0 003.842 4.193 9.427 9.427 0 004.723 1.268 9.538 9.538 0 006.247-2.336l8.313 4.799a9.485 9.485 0 0012.948-3.47 9.42 9.42 0 001.238-3.973 9.403 9.403 0 006.322.495 9.41 9.41 0 005.757-4.408 9.424 9.424 0 001.268-4.781c3.65.431 7.385-1.292 9.337-4.672a9.438 9.438 0 001.247-4.095c4.219 1.492 9.047-.187 11.364-4.2a9.422 9.422 0 001.233-5.537l15.092-5.654a2.733 2.733 0 001.621-3.466zM19.852 86.522a3.98 3.98 0 01-1.86-2.437 3.978 3.978 0 01.392-3.04l3.818-6.613a3.98 3.98 0 012.437-1.86 3.98 3.98 0 013.04.392 4.016 4.016 0 011.472 5.472l-3.824 6.622v.002a4.016 4.016 0 01-5.475 1.462zm15.723 7.763a4.015 4.015 0 01-5.477 1.468 4.015 4.015 0 01-1.468-5.477l1.43-2.477 3.827-6.628v-.002l.002-.002v-.001l3.376-5.847a3.98 3.98 0 012.437-1.86 3.98 3.98 0 014.902 2.83 3.98 3.98 0 01-.393 3.04l-1.007 1.743-.005.009v.001l-6.612 11.45v.001l-.002.004-1.01 1.748zm12.694 4.993a3.98 3.98 0 01-2.437 1.86 3.977 3.977 0 01-3.041-.393 4.015 4.015 0 01-1.471-5.472l.003-.005.002-.003 6.609-11.448v-.002a4.014 4.014 0 015.479-1.467 3.981 3.981 0 011.86 2.437 3.97 3.97 0 01-.393 3.04l-1.396 2.419v.001l-3.818 6.612-.006.009-1.391 2.412zm7.6 5.792a3.983 3.983 0 01-1.86-2.437 3.98 3.98 0 01.393-3.041l3.818-6.613a4.015 4.015 0 015.477-1.468 4.015 4.015 0 011.468 5.478l-3.818 6.613a4.015 4.015 0 01-5.477 1.468zm24.761 2.263a4.015 4.015 0 01-5.478 1.468l-7.868-4.543 2.617-4.534a9.454 9.454 0 001.03-2.62l8.232 4.752h.001l.008.005a4.014 4.014 0 011.458 5.472zm40.492-33.523a9.433 9.433 0 00-2.692-2.324c-1-.578-4.634-2.762-11.11-6.678a2.734 2.734 0 10-2.83 4.68c6.508 3.935 10.174 6.138 11.206 6.734a4.015 4.015 0 011.468 5.478 4.015 4.015 0 01-5.478 1.468l-5.859-3.383a.043.043 0 00-.005-.003h-.001l-21.76-12.564a2.734 2.734 0 10-2.735 4.736l21.759 12.562.001.001h.001l.006.004a4.016 4.016 0 011.459 5.473 4.014 4.014 0 01-5.478 1.468l-3.85-2.223-.007-.004-19.104-11.03a2.734 2.734 0 10-2.734 4.736L92.48 93.97h.001a4.015 4.015 0 011.467 5.478 3.977 3.977 0 01-2.437 1.86c-1.04.279-2.12.14-3.041-.392l-6.562-3.789a.396.396 0 01-.01-.005l-12.05-6.958a9.418 9.418 0 00-3.417-3.387 9.421 9.421 0 00-5.552-1.232 9.599 9.599 0 00-.324-2.175 9.413 9.413 0 00-4.408-5.757 9.434 9.434 0 00-5.978-1.185 9.643 9.643 0 00-.284-1.555 9.413 9.413 0 00-4.408-5.757c-4.01-2.316-9.027-1.358-11.935 2.038a9.414 9.414 0 00-3.128-2.925 9.412 9.412 0 00-7.19-.94 9.412 9.412 0 00-5.759 4.41l-1.644 2.848-9.709-5.605L18.59 35.869l10.815 2.852c.485.128.996.12 1.477-.023l24.73-7.356c2.877-.856 4.89-1.058 7.285.325l1.557.899-9.579 5.53c-4.559 2.633-6.127 8.484-3.494 13.043 2.546 4.411 8.086 5.95 12.886 3.578 2.58-1.274 6.335-2.962 9.164-4.04 2.065 1.245 6.698 4.053 10.005 6.057a2.733 2.733 0 102.835-4.677 10274.315 10274.315 0 00-10.29-6.228c-1.211-.728-1.498-.9-2.268-.9-.306 0-.61.05-.9.151-3.234 1.128-7.952 3.244-10.968 4.734-2.18 1.076-4.642.47-5.728-1.41a4.084 4.084 0 011.493-5.572l19.34-11.166c2.394-1.383 4.408-1.18 7.285-.325l24.73 7.357c.428.127.879.148 1.316.06l12.037-2.407 11.48 32.71-12.676 4.749z" fill="url(#paint0_linear)"/><path d="M95.378 58.04h-.002a2.734 2.734 0 10.002 5.47 2.734 2.734 0 100-5.47z" fill="url(#paint1_linear)"/><defs><linearGradient id="paint0_linear" x1="0" y1="70" x2="140" y2="70" gradientUnits="userSpaceOnUse"><stop stop-color="#3080CF"/><stop offset="1" stop-color="#263A73"/></linearGradient><linearGradient id="paint1_linear" x1="92.643" y1="60.775" x2="98.112" y2="60.775" gradientUnits="userSpaceOnUse"><stop stop-color="#3080CF"/><stop offset="1" stop-color="#263A73"/></linearGradient></defs></svg>