<svg width="362" height="353" fill="none" xmlns="http://www.w3.org/2000/svg"><g filter="url(#filter0_di)"><circle cx="180.782" cy="174.288" r="153.948" transform="rotate(-180 180.782 174.288)" fill="#F7F7F7"/></g><path d="M91.328 193.912l-61.695 12.496c-9.371-87.467 30.35-138.895 72.742-165.031 89.5-48.192 164.62-.81 191.239 28.686 40.589 44.974 44.494 91.83 37.465 136.345l-59.352-12.496c3.905-22.647 1.562-34.361-4.887-54.047-33.466-69.802-105.181-63.109-130.998-44.941-58.571 35.732-44.514 98.988-44.514 98.988z" fill="url(#paint0_linear)"/><path d="M328.067 129.347c-19.229-63.1-77.896-109.006-147.284-109.006-85.023 0-153.948 68.924-153.948 153.947a154.58 154.58 0 003.356 32.12" stroke="url(#paint1_linear)" stroke-width="4"/><path stroke="#F5F5F5" d="M301.02 81.465l6.129-4.578m-37.5-25.783l4.393-6.262m-44.516-14.139l2.454-7.246"/><path d="M283.268 137.555a1 1 0 01.591 1.666l-13.556 14.753a1 1 0 01-1.678-.342l-6.267-17.665a1 1 0 011.088-1.324l19.822 2.912z" fill="#5B5B5B"/><g filter="url(#filter1_d)"><circle cx="181.739" cy="175.244" r="91.795" fill="#fff"/></g><circle cx="181.739" cy="175.244" r="78.408" fill="#89C142"/><circle cx="327.08" cy="125.522" r="11.474" fill="#89C142"/><circle cx="327.08" cy="125.522" r="5.737" fill="#fff"/><path d="M152.585 147.174h16.354v3.74l-9.622 20.332h-4.794l9.826-20.196h-11.764v-3.876zm25.323 24.072l5.78-8.908-.068-.068c-.249.136-.589.238-1.02.306a7.433 7.433 0 01-1.224.102c-1.065 0-2.04-.204-2.924-.612a7.357 7.357 0 01-2.312-1.666 7.923 7.923 0 01-1.496-2.448 8.539 8.539 0 01-.51-2.958c0-1.247.216-2.38.646-3.4.431-1.02 1.02-1.881 1.768-2.584a7.94 7.94 0 012.72-1.666 10.031 10.031 0 013.434-.578c1.247 0 2.392.193 3.434.578 1.066.363 1.972.895 2.72 1.598a6.916 6.916 0 011.768 2.584c.431 1.02.646 2.165.646 3.434 0 1.269-.215 2.425-.646 3.468a20.36 20.36 0 01-1.598 3.128l-6.154 9.69h-4.964zm9.078-16.218a4.21 4.21 0 00-.34-1.7 4.003 4.003 0 00-.952-1.394 4.016 4.016 0 00-1.394-.952 4.21 4.21 0 00-1.7-.34c-.612 0-1.19.113-1.734.34a4.495 4.495 0 00-1.394.952c-.385.385-.691.85-.918 1.394a4.227 4.227 0 00-.34 1.7c0 .612.114 1.19.34 1.734.227.521.533.986.918 1.394a4.82 4.82 0 001.394.918c.544.227 1.122.34 1.734.34a4.21 4.21 0 001.7-.34 4.272 4.272 0 001.394-.918c.408-.408.726-.873.952-1.394.227-.544.34-1.122.34-1.734zm8.493 4.182c0-1.904.148-3.525.442-4.862.318-1.36.726-2.493 1.224-3.4.499-.929 1.054-1.666 1.666-2.21.635-.567 1.27-.986 1.904-1.258a7.333 7.333 0 011.87-.578 11.055 11.055 0 011.598-.136c.454 0 .975.045 1.564.136a6.807 6.807 0 011.87.578c.658.272 1.292.691 1.904 1.258.635.544 1.202 1.281 1.7 2.21.499.907.896 2.04 1.19 3.4.318 1.337.476 2.958.476 4.862s-.158 3.536-.476 4.896c-.294 1.337-.691 2.471-1.19 3.4-.498.907-1.065 1.643-1.7 2.21a7.483 7.483 0 01-1.904 1.258 7.567 7.567 0 01-1.87.544 10.37 10.37 0 01-1.564.136c-.453 0-.986-.045-1.598-.136a8.194 8.194 0 01-1.87-.544c-.634-.295-1.269-.714-1.904-1.258-.612-.567-1.167-1.303-1.666-2.21-.498-.929-.906-2.063-1.224-3.4-.294-1.36-.442-2.992-.442-4.896zm4.08 0c0 .748.046 1.621.136 2.618.114.975.329 1.904.646 2.788.318.884.782 1.632 1.394 2.244.612.612 1.428.918 2.448.918s1.836-.306 2.448-.918c.612-.612 1.077-1.36 1.394-2.244.318-.884.522-1.813.612-2.788.114-.997.17-1.87.17-2.618 0-.748-.056-1.609-.17-2.584a11.307 11.307 0 00-.612-2.822c-.317-.884-.782-1.632-1.394-2.244-.612-.612-1.428-.918-2.448-.918s-1.836.306-2.448.918c-.612.612-1.076 1.36-1.394 2.244a12.56 12.56 0 00-.646 2.822 28.52 28.52 0 00-.136 2.584zm-49.589 42.643c-1.572.84-3.33 1.26-5.274 1.26-.984 0-1.89-.156-2.718-.468a6.487 6.487 0 01-2.124-1.35 6.37 6.37 0 01-1.386-2.106c-.336-.816-.504-1.722-.504-2.718 0-1.02.168-1.944.504-2.772a6.289 6.289 0 011.386-2.142 6.118 6.118 0 012.124-1.35c.828-.324 1.734-.486 2.718-.486.972 0 1.884.12 2.736.36a5.543 5.543 0 012.286 1.242l-1.674 1.692a4.183 4.183 0 00-1.494-.918 5.186 5.186 0 00-1.836-.324c-.66 0-1.26.12-1.8.36a3.958 3.958 0 00-1.368.972 4.433 4.433 0 00-.9 1.44 5.1 5.1 0 00-.306 1.782c0 .684.102 1.314.306 1.89.216.576.516 1.074.9 1.494.384.42.84.75 1.368.99.54.24 1.14.36 1.8.36.576 0 1.116-.054 1.62-.162a4.62 4.62 0 001.368-.504v-3.006h-2.61v-2.052h4.878v6.516zm2.058-3.384c0-.684.12-1.302.36-1.854a4.444 4.444 0 011.008-1.44c.42-.396.918-.702 1.494-.918a5.186 5.186 0 011.836-.324c.648 0 1.26.108 1.836.324a4.404 4.404 0 011.494.918c.42.396.75.876.99 1.44.252.552.378 1.17.378 1.854 0 .684-.126 1.308-.378 1.872a4.269 4.269 0 01-.99 1.422c-.42.396-.918.702-1.494.918a5.186 5.186 0 01-1.836.324c-.648 0-1.26-.108-1.836-.324a4.404 4.404 0 01-1.494-.918 4.498 4.498 0 01-1.008-1.422 4.734 4.734 0 01-.36-1.872zm2.16 0c0 .336.054.66.162.972.12.312.288.588.504.828a2.506 2.506 0 001.872.792c.396 0 .75-.072 1.062-.216.312-.144.576-.336.792-.576.228-.24.396-.516.504-.828.12-.312.18-.636.18-.972 0-.336-.06-.66-.18-.972a2.264 2.264 0 00-.504-.828 2.408 2.408 0 00-.792-.576 2.506 2.506 0 00-1.062-.216 2.506 2.506 0 00-1.872.792c-.216.24-.384.516-.504.828a2.95 2.95 0 00-.162.972zm8.826 0c0-.684.12-1.302.36-1.854a4.444 4.444 0 011.008-1.44c.42-.396.918-.702 1.494-.918a5.186 5.186 0 011.836-.324c.648 0 1.26.108 1.836.324a4.404 4.404 0 011.494.918c.42.396.75.876.99 1.44.252.552.378 1.17.378 1.854 0 .684-.126 1.308-.378 1.872a4.269 4.269 0 01-.99 1.422c-.42.396-.918.702-1.494.918a5.186 5.186 0 01-1.836.324c-.648 0-1.26-.108-1.836-.324a4.404 4.404 0 01-1.494-.918 4.498 4.498 0 01-1.008-1.422 4.734 4.734 0 01-.36-1.872zm2.16 0c0 .336.054.66.162.972.12.312.288.588.504.828a2.506 2.506 0 001.872.792c.396 0 .75-.072 1.062-.216.312-.144.576-.336.792-.576.228-.24.396-.516.504-.828.12-.312.18-.636.18-.972 0-.336-.06-.66-.18-.972a2.264 2.264 0 00-.504-.828 2.408 2.408 0 00-.792-.576 2.506 2.506 0 00-1.062-.216 2.506 2.506 0 00-1.872.792c-.216.24-.384.516-.504.828a2.95 2.95 0 00-.162.972zm16.099 3.024h-.036a2.778 2.778 0 01-1.26 1.152c-.528.24-1.098.36-1.71.36-.672 0-1.272-.114-1.8-.342a4.15 4.15 0 01-1.332-.972 4.117 4.117 0 01-.846-1.44 5.388 5.388 0 01-.288-1.782 5.1 5.1 0 01.306-1.782 4.519 4.519 0 01.846-1.44 3.93 3.93 0 011.332-.954c.516-.24 1.08-.36 1.692-.36.408 0 .768.042 1.08.126.312.084.588.192.828.324s.444.276.612.432c.168.144.306.288.414.432h.054v-6.066h2.16v13.608h-2.052v-1.296zm-5.112-3.024c0 .336.054.66.162.972.12.312.288.588.504.828a2.506 2.506 0 001.872.792c.396 0 .75-.072 1.062-.216.312-.144.576-.336.792-.576.228-.24.396-.516.504-.828.12-.312.18-.636.18-.972 0-.336-.06-.66-.18-.972a2.264 2.264 0 00-.504-.828 2.408 2.408 0 00-.792-.576 2.506 2.506 0 00-1.062-.216 2.506 2.506 0 00-1.872.792c-.216.24-.384.516-.504.828a2.95 2.95 0 00-.162.972zm21.38.792c0 .504-.084.99-.252 1.458a3.48 3.48 0 01-.72 1.242 3.3 3.3 0 01-1.188.828c-.48.216-1.038.324-1.674.324-1.008 0-1.836-.234-2.484-.702-.636-.468-1.056-1.212-1.26-2.232l2.124-.504c.072.42.24.756.504 1.008.276.252.612.378 1.008.378.648 0 1.086-.216 1.314-.648.24-.444.36-1.05.36-1.818v-8.55h2.268v9.216zm2.124-.792c0-.684.12-1.302.36-1.854a4.444 4.444 0 011.008-1.44c.42-.396.918-.702 1.494-.918a5.186 5.186 0 011.836-.324c.648 0 1.26.108 1.836.324a4.404 4.404 0 011.494.918c.42.396.75.876.99 1.44.252.552.378 1.17.378 1.854 0 .684-.126 1.308-.378 1.872a4.269 4.269 0 01-.99 1.422c-.42.396-.918.702-1.494.918a5.186 5.186 0 01-1.836.324c-.648 0-1.26-.108-1.836-.324a4.404 4.404 0 01-1.494-.918 4.498 4.498 0 01-1.008-1.422 4.734 4.734 0 01-.36-1.872zm2.16 0c0 .336.054.66.162.972.12.312.288.588.504.828a2.506 2.506 0 001.872.792c.396 0 .75-.072 1.062-.216.312-.144.576-.336.792-.576.228-.24.396-.516.504-.828.12-.312.18-.636.18-.972 0-.336-.06-.66-.18-.972a2.264 2.264 0 00-.504-.828 2.408 2.408 0 00-.792-.576 2.506 2.506 0 00-1.062-.216 2.506 2.506 0 00-1.872.792c-.216.24-.384.516-.504.828a2.95 2.95 0 00-.162.972zm9.258-9.288h2.16v6.066h.054c.108-.144.246-.288.414-.432.168-.156.372-.3.612-.432s.516-.24.828-.324a4.171 4.171 0 011.08-.126c.612 0 1.176.12 1.692.36.516.228.954.546 1.314.954.372.408.66.888.864 1.44a5.1 5.1 0 01.306 1.782c0 .636-.096 1.23-.288 1.782a4.117 4.117 0 01-.846 1.44 4.097 4.097 0 01-1.35.972c-.528.228-1.122.342-1.782.342-.612 0-1.182-.12-1.71-.36a2.778 2.778 0 01-1.26-1.152h-.036v1.296h-2.052v-13.608zm7.164 9.288c0-.336-.06-.66-.18-.972a2.264 2.264 0 00-.504-.828 2.408 2.408 0 00-.792-.576 2.506 2.506 0 00-1.062-.216 2.506 2.506 0 00-1.872.792c-.216.24-.384.516-.504.828a2.95 2.95 0 00-.162.972c0 .336.054.66.162.972.12.312.288.588.504.828a2.506 2.506 0 001.872.792c.396 0 .75-.072 1.062-.216.312-.144.576-.336.792-.576.228-.24.396-.516.504-.828.12-.312.18-.636.18-.972zm6.694.324h-2.16v-8.748h2.16v8.748zm-2.52 2.736c0-.384.138-.714.414-.99.288-.276.63-.414 1.026-.414.384 0 .72.132 1.008.396.288.264.432.588.432.972s-.144.714-.432.99a1.372 1.372 0 01-1.008.414 1.49 1.49 0 01-.558-.108 1.601 1.601 0 01-.45-.288 1.459 1.459 0 01-.324-.432 1.356 1.356 0 01-.108-.54z" fill="#fff"/><path d="M10.725 217.127l-.053-.305a4.28 4.28 0 00-.117-.498 1.485 1.485 0 00-.207-.431.922.922 0 00-.345-.295 1.149 1.149 0 00-.535-.1c-.276.007-.486.105-.63.292-.143.187-.19.429-.138.724.041.237.149.448.323.634.168.188.383.316.646.386l-.125 1.27a2.502 2.502 0 01-.744-.308 2.427 2.427 0 01-.564-.501 2.647 2.647 0 01-.395-.642 3.325 3.325 0 01-.22-.743 2.878 2.878 0 01-.027-.858c.033-.276.113-.517.24-.722.119-.21.29-.378.511-.504.214-.132.48-.202.796-.209.383-.013.745.083 1.085.288.333.2.578.482.736.847l.021.007c-.01-.452.126-.797.41-1.036.283-.238.646-.366 1.09-.382.343-.012.657.042.941.162.285.12.537.286.757.498.213.213.39.46.534.739.137.281.232.576.285.885.05.289.064.564.042.825a1.977 1.977 0 01-.173.7c-.098.213-.238.4-.42.56a2.15 2.15 0 01-.708.366l-.563-1.252c.284-.083.49-.217.62-.402.13-.192.167-.445.113-.761a1.334 1.334 0 00-.158-.439 1.417 1.417 0 00-.287-.366 1.284 1.284 0 00-.88-.335c-.229.006-.405.06-.53.163a.728.728 0 00-.27.372c-.055.151-.08.321-.074.51.004.182.022.361.053.539l.05.285-1.09.037zm-.004-4.057a6.96 6.96 0 01-1.467-.09 4.741 4.741 0 01-1.069-.312 2.808 2.808 0 01-.741-.471 2.41 2.41 0 01-.469-.537 2.47 2.47 0 01-.267-.543 3.283 3.283 0 01-.12-.456 3.065 3.065 0 01-.039-.46 1.755 1.755 0 01.079-.541c.048-.191.14-.38.277-.566a1.85 1.85 0 01.572-.505c.244-.158.56-.287.948-.388.382-.1.856-.159 1.421-.175a7.17 7.17 0 011.477.088c.412.071.768.175 1.069.312a2.806 2.806 0 011.21 1.008c.113.184.198.362.255.535.057.172.097.324.12.456.023.131.036.285.04.46.003.175-.02.358-.068.549a2.087 2.087 0 01-.277.566 1.99 1.99 0 01-.572.505 3.847 3.847 0 01-.948.388c-.388.101-.865.16-1.43.177zm-.205-1.182c.223-.005.48-.026.77-.063.284-.042.549-.115.795-.219a1.53 1.53 0 00.596-.428c.15-.182.2-.42.15-.716a1.078 1.078 0 00-.395-.693 2.187 2.187 0 00-.737-.39 3.616 3.616 0 00-.86-.155c-.3-.016-.561-.021-.784-.016a7.465 7.465 0 00-.76.061c-.292.037-.56.107-.806.211a1.522 1.522 0 00-.596.428c-.151.182-.201.42-.15.716.051.295.183.53.396.703.212.166.457.292.736.379.279.087.57.142.87.164.295.017.553.023.775.018zm-.806-4.649a6.96 6.96 0 01-1.467-.09 4.64 4.64 0 01-1.07-.312 2.832 2.832 0 01-.74-.47 2.436 2.436 0 01-.47-.538 2.42 2.42 0 01-.266-.543 3.212 3.212 0 01-.12-.456 3.065 3.065 0 01-.04-.46 1.755 1.755 0 01.08-.541c.048-.191.14-.38.277-.566.13-.185.32-.353.572-.505.243-.158.56-.287.948-.388.382-.1.855-.158 1.42-.175a7.095 7.095 0 011.478.089c.411.07.767.174 1.069.311a2.808 2.808 0 011.21 1.008c.113.184.198.362.255.535.057.172.097.325.12.456.022.131.035.285.039.46.003.175-.02.359-.067.55a2.093 2.093 0 01-.278.565 1.987 1.987 0 01-.572.505 3.809 3.809 0 01-.947.388c-.389.101-.866.16-1.431.177zm-.205-1.182c.222-.005.479-.026.77-.063.284-.042.549-.115.794-.219.246-.103.445-.246.596-.428.151-.182.201-.42.15-.716a1.083 1.083 0 00-.394-.693 2.185 2.185 0 00-.738-.389 3.566 3.566 0 00-.859-.156c-.3-.015-.562-.021-.784-.016a7.465 7.465 0 00-.761.061c-.291.037-.56.107-.806.211a1.522 1.522 0 00-.595.428c-.152.182-.202.42-.15.716.051.296.183.53.396.703.211.166.456.293.735.379.28.087.57.142.871.164.294.017.552.023.775.018zM235.427 6.542l-2.717-.859-.644 1.276a1.64 1.64 0 01.364.041c.144.032.276.067.397.105.331.104.609.252.836.442.228.184.397.402.507.653.109.251.155.525.139.82a2.562 2.562 0 01-.254.937c-.165.346-.377.64-.634.88a2.8 2.8 0 01-.852.538 2.81 2.81 0 01-.984.193 3.12 3.12 0 01-1.033-.148c-.541-.17-.942-.438-1.205-.8-.263-.363-.354-.818-.272-1.365l1.342.067a.997.997 0 00.134.672c.121.192.328.334.621.426.171.054.342.077.513.068a1.34 1.34 0 00.476-.112 1.448 1.448 0 00.71-.688c.106-.225.154-.43.142-.616a.94.94 0 00-.169-.494 1.168 1.168 0 00-.395-.376 2.313 2.313 0 00-.567-.263 3.591 3.591 0 00-.78-.152 3.576 3.576 0 00-.781.015l1.732-3.459 3.843 1.214-.469.985zm4.174.06c.286.09.534.214.743.37.217.153.385.332.502.536.125.2.191.424.197.671.008.24-.052.497-.181.771a2.087 2.087 0 01-.692.83 1.66 1.66 0 01-1.026.295l-.006.02c.149.081.274.194.375.338.103.137.177.293.219.468.052.17.067.353.047.55a1.735 1.735 0 01-.158.6 2.52 2.52 0 01-.585.79 2.31 2.31 0 01-.781.446 2.646 2.646 0 01-.905.144 3.38 3.38 0 01-.936-.16 3.097 3.097 0 01-.838-.4 1.929 1.929 0 01-.544-.602 1.7 1.7 0 01-.202-.756c-.002-.28.076-.581.233-.902.092-.202.214-.38.368-.534.153-.154.319-.28.497-.378.179-.104.364-.179.553-.224.197-.05.384-.064.559-.043l.006-.02c-.292-.204-.462-.463-.509-.779-.041-.313.021-.643.187-.99a1.89 1.89 0 01.505-.669c.21-.178.44-.308.689-.39a2.39 2.39 0 01.814-.12c.293.001.583.047.869.138zm-.45.927c-.293-.092-.562-.08-.809.038a1.11 1.11 0 00-.529.546c-.123.255-.143.497-.061.725.083.223.268.379.554.47.127.04.255.055.384.047.136-.013.266-.046.387-.098a1.31 1.31 0 00.335-.23c.106-.092.19-.202.251-.33a.836.836 0 00.023-.705c-.09-.224-.268-.379-.535-.463zm-1.268 2.651a1.42 1.42 0 00-.472-.065 1.306 1.306 0 00-.46.096 1.47 1.47 0 00-.404.25 1.13 1.13 0 00-.276.374c-.153.308-.169.593-.049.855.128.257.358.438.688.543.331.104.646.092.945-.038.306-.127.535-.341.686-.643a.952.952 0 00.094-.431.81.81 0 00-.092-.407.91.91 0 00-.264-.325 1.173 1.173 0 00-.396-.209zm3.322.766c.245-.51.497-.93.755-1.26.26-.338.516-.607.768-.807.261-.204.513-.352.759-.442a2.49 2.49 0 011.297-.157c.18.03.333.064.46.104.127.04.27.099.427.176.157.078.305.184.445.32.147.13.272.299.374.506.105.2.167.447.186.74.028.288-.003.628-.091 1.02-.087.385-.253.832-.498 1.342-.245.51-.497.934-.758 1.271a4.378 4.378 0 01-.768.806 2.8 2.8 0 01-1.451.612 2.592 2.592 0 01-.592-.02 3.256 3.256 0 01-.46-.103c-.128-.04-.27-.1-.427-.177a2.081 2.081 0 01-.457-.312 2.113 2.113 0 01-.375-.506 1.996 1.996 0 01-.186-.74 3.83 3.83 0 01.092-1.02c.088-.392.255-.843.5-1.353zm1.144.362a7.47 7.47 0 00-.298.713c-.093.271-.15.54-.171.806a1.53 1.53 0 00.106.726c.092.217.281.371.567.462.287.09.552.08.797-.032.251-.11.48-.268.685-.476.205-.207.383-.438.533-.691.152-.26.277-.49.375-.69.098-.199.197-.433.296-.703.101-.275.162-.546.183-.812a1.518 1.518 0 00-.107-.726c-.092-.218-.281-.372-.567-.462a1.117 1.117 0 00-.806.028c-.245.112-.47.271-.675.48a3.83 3.83 0 00-.546.697c-.15.253-.274.48-.372.68zm42.514 15.507l-3.235.828.004.028a.94.94 0 01.293.11c.118.065.225.134.321.207.249.19.432.405.55.646.124.245.186.498.188.76.002.261-.056.519-.174.772a2.377 2.377 0 01-.496.716c-.265.26-.555.458-.869.595-.315.138-.64.212-.976.224a2.831 2.831 0 01-.983-.146 3.031 3.031 0 01-.914-.483 2.918 2.918 0 01-.698-.734 1.948 1.948 0 01-.281-.819 1.832 1.832 0 01.127-.859 2.52 2.52 0 01.581-.827c.269-.264.558-.467.867-.609a7.136 7.136 0 011.049-.37l3.486-.924 1.16.885zm-5.548 1.767a1.177 1.177 0 00-.286.423c-.056.15-.08.304-.074.46.011.15.054.297.131.439.076.142.185.267.329.376.143.11.298.186.466.23.173.048.346.068.521.059.179-.015.349-.057.511-.126.172-.07.322-.17.453-.297a1.135 1.135 0 00.353-.875 1.034 1.034 0 00-.124-.447 1.182 1.182 0 00-.329-.376 1.387 1.387 0 00-.994-.28 1.57 1.57 0 00-.519.12 1.418 1.418 0 00-.438.294zm5.393 5.209l-2.393-1.826.849-.849 5.466-1.427 1.081.825-3.274 3.237.818.625-.774.768-.819-.625-1.032 1.023-.954-.727 1.032-1.024zm2.827-2.799l-.016-.012-3.46.958 1.424 1.085 2.052-2.03zm1.037 3.106a6.943 6.943 0 011.138-.931c.359-.23.691-.395.996-.498.314-.104.602-.157.863-.159a2.41 2.41 0 01.71.076c.217.057.405.129.564.217.159.088.292.172.398.253.106.081.22.185.341.31.122.127.225.278.311.452.094.172.155.373.181.603.03.224.004.477-.077.76-.071.28-.215.59-.431.928-.212.333-.52.698-.923 1.094a7.19 7.19 0 01-1.144.939c-.35.228-.682.394-.996.498a2.81 2.81 0 01-.864.159 2.873 2.873 0 01-.709-.076 2.533 2.533 0 01-.55-.219 3.287 3.287 0 01-.398-.253 3.107 3.107 0 01-.342-.31 2.121 2.121 0 01-.324-.45 2.124 2.124 0 01-.181-.603 1.997 1.997 0 01.076-.76c.081-.282.225-.591.432-.928.216-.338.526-.706.929-1.102zm.954.727c-.16.155-.334.345-.523.57a3.298 3.298 0 00-.433.7 1.53 1.53 0 00-.146.72c.012.236.138.445.377.627.238.182.491.262.76.24.273-.018.542-.09.805-.215.264-.126.509-.283.736-.47.231-.193.427-.367.587-.522a7.33 7.33 0 00.516-.561 3.07 3.07 0 00.448-.703c.11-.243.159-.482.146-.718-.013-.237-.138-.446-.377-.628a1.115 1.115 0 00-.768-.246 2.273 2.273 0 00-.798.221 3.913 3.913 0 00-.75.472c-.226.188-.42.359-.58.514zm29.527 22.582l3.089 3.687-.94.592-6.941 1.026-.905-1.08 6.942-.963-2.222-2.652.977-.61zm.753 6.411c.48-.298.918-.517 1.314-.657a4.663 4.663 0 011.081-.267c.33-.032.622-.02.877.035.261.051.486.128.676.23.199.103.367.215.503.336.136.12.246.232.332.334.086.102.174.229.265.378.091.15.159.32.203.508.055.19.069.4.044.629-.02.225-.1.467-.241.724-.132.258-.34.528-.625.81-.281.279-.661.567-1.142.865-.48.299-.921.52-1.322.664a4.362 4.362 0 01-1.081.267 2.803 2.803 0 01-1.553-.265 2.56 2.56 0 01-.488-.334 3.323 3.323 0 01-.333-.335 3.04 3.04 0 01-.264-.378 2.073 2.073 0 01-.218-.51 2.083 2.083 0 01-.044-.628c.025-.23.105-.47.241-.724.141-.257.35-.527.626-.81.285-.283.668-.573 1.149-.872zm.77.92c-.19.116-.402.263-.635.441a3.27 3.27 0 00-.577.588 1.534 1.534 0 00-.301.67c-.039.232.037.464.23.694.193.23.422.364.688.401.271.043.549.032.834-.033.285-.064.559-.163.821-.296.268-.137.497-.264.687-.38.19-.115.399-.26.627-.434a3.05 3.05 0 00.592-.587c.16-.213.261-.436.3-.669.04-.233-.037-.464-.23-.694a1.114 1.114 0 00-.695-.41 2.268 2.268 0 00-.827.04 3.865 3.865 0 00-.835.296 9.919 9.919 0 00-.679.373zm3.03 3.617c.48-.298.919-.517 1.314-.658a4.666 4.666 0 011.082-.266c.329-.033.621-.021.877.035a2.4 2.4 0 01.675.23c.199.103.367.214.503.335a3.2 3.2 0 01.332.335c.086.102.174.228.265.378.091.15.159.32.204.508.054.19.068.399.043.629-.019.225-.1.466-.241.724-.132.258-.34.528-.625.81-.28.278-.661.567-1.141.865-.481.298-.922.52-1.323.664a4.367 4.367 0 01-1.081.266 2.8 2.8 0 01-.877-.034 2.857 2.857 0 01-.675-.23 2.538 2.538 0 01-.489-.335 3.313 3.313 0 01-.333-.334 3.15 3.15 0 01-.264-.379 2.073 2.073 0 01-.218-.509 2.116 2.116 0 01-.044-.628c.025-.23.106-.471.242-.724a3.83 3.83 0 01.625-.811c.285-.282.668-.573 1.149-.871zm.77.92c-.19.116-.401.262-.635.44a3.297 3.297 0 00-.577.589 1.533 1.533 0 00-.301.669c-.039.233.037.464.23.694.193.23.422.364.689.402.27.043.548.032.833-.033.285-.065.559-.164.821-.296a7.543 7.543 0 001.315-.814c.233-.178.43-.374.591-.587a1.52 1.52 0 00.3-.67c.04-.232-.037-.464-.229-.694a1.119 1.119 0 00-.695-.409 2.27 2.27 0 00-.827.04 3.873 3.873 0 00-.836.296 10.21 10.21 0 00-.679.373zm26.518 127.303l2.253 2.456.021-.007a1.083 1.083 0 01-.038-.32c0-.128.01-.252.03-.37.05-.309.155-.576.313-.8a1.73 1.73 0 01.581-.513c.229-.124.484-.197.765-.219.28-.022.568.015.863.111.355.105.666.264.936.477.268.22.483.471.646.754.17.285.284.597.343.938.059.341.06.689.002 1.044-.06.362-.169.678-.328.95a1.845 1.845 0 01-.582.644 1.738 1.738 0 01-.816.282 2.4 2.4 0 01-1.005-.114 3.008 3.008 0 01-.953-.49 8.235 8.235 0 01-.811-.741l-2.456-2.641.236-1.441zm4.168 4.067a1.139 1.139 0 00.938-.1 1.04 1.04 0 00.337-.32c.089-.134.148-.29.177-.468a1.385 1.385 0 00-.22-1.008 1.463 1.463 0 00-.815-.651 1.177 1.177 0 00-.508-.052 1.15 1.15 0 00-.441.151c-.128.08-.236.184-.324.311-.09.134-.149.29-.178.468-.029.177-.024.354.015.529.039.175.103.338.193.488.097.151.214.281.352.392.143.117.301.204.474.26zm-1.524 1.694c.54.169.992.358 1.357.566.371.21.673.425.907.645.24.229.422.458.547.687.131.231.22.452.266.662.052.218.077.418.074.6a3.227 3.227 0 01-.036.47c-.022.132-.06.281-.114.448a1.736 1.736 0 01-.252.486 1.64 1.64 0 01-.447.443 1.864 1.864 0 01-.706.29c-.282.069-.622.087-1.023.055-.393-.03-.86-.13-1.4-.3a7.11 7.11 0 01-1.366-.568 4.312 4.312 0 01-.907-.645 2.784 2.784 0 01-.813-1.349 2.51 2.51 0 01-.066-.588c.003-.182.015-.339.036-.47.022-.132.06-.281.114-.448.054-.167.136-.332.244-.497.113-.157.262-.305.447-.444.19-.131.426-.227.706-.289.287-.062.628-.08 1.023-.056.4.032.87.132 1.409.302zm-.193 1.184a7.486 7.486 0 00-.749-.194 3.346 3.346 0 00-.822-.053 1.529 1.529 0 00-.703.209c-.203.122-.328.332-.376.628-.049.296 0 .557.145.783.144.233.334.437.569.61.235.174.488.317.761.429.278.113.524.204.735.272.212.069.458.133.739.192.287.061.564.082.83.065.267-.017.501-.087.703-.209.203-.122.328-.332.377-.628.048-.296 0-.56-.144-.793a2.251 2.251 0 00-.571-.6 3.8 3.8 0 00-.769-.44 10.01 10.01 0 00-.725-.271zm-.762 4.656c.539.169.991.358 1.356.566.371.21.674.425.908.646.239.228.421.457.546.687.131.231.22.451.266.662.053.217.077.417.074.599a3.118 3.118 0 01-.036.471 2.94 2.94 0 01-.114.447 1.759 1.759 0 01-.251.486 1.63 1.63 0 01-.448.443 1.864 1.864 0 01-.706.29c-.282.069-.622.087-1.022.056-.394-.031-.861-.131-1.4-.3a7.252 7.252 0 01-1.367-.568 4.385 4.385 0 01-.907-.645 2.806 2.806 0 01-.813-1.349 2.524 2.524 0 01-.066-.589c.003-.182.015-.339.037-.47.021-.132.059-.281.113-.448.055-.166.136-.332.244-.497.113-.157.262-.305.447-.443.191-.131.426-.228.706-.29a3.85 3.85 0 011.023-.056c.4.032.87.133 1.41.302zm-.194 1.184a7.506 7.506 0 00-.749-.193 3.3 3.3 0 00-.822-.054 1.529 1.529 0 00-.703.209c-.202.123-.328.332-.376.628-.049.296 0 .557.145.784.144.233.334.436.569.61.235.173.489.316.761.428.278.113.524.204.735.272.212.069.458.133.739.192.287.061.564.082.831.065.266-.017.5-.087.703-.209.202-.122.327-.331.376-.627.048-.296 0-.561-.144-.794a2.277 2.277 0 00-.57-.6 3.876 3.876 0 00-.769-.44 10.71 10.71 0 00-.726-.271z" fill="#221F1F"/><defs><linearGradient id="paint0_linear" x1="181.187" y1="20.703" x2="181.187" y2="259.39" gradientUnits="userSpaceOnUse"><stop stop-color="#C4C4C4" stop-opacity="0"/><stop offset="1" stop-color="#EAECF4"/></linearGradient><linearGradient id="paint1_linear" x1="45.003" y1="226.879" x2="328.993" y2="144.646" gradientUnits="userSpaceOnUse"><stop stop-color="#E24465"/><stop offset=".552" stop-color="#ECB260"/><stop offset=".995" stop-color="#89C142"/></linearGradient><filter id="filter0_di" x="6.835" y="4.34" width="347.895" height="347.895" filterUnits="userSpaceOnUse" color-interpolation-filters="sRGB"><feFlood flood-opacity="0" result="BackgroundImageFix"/><feColorMatrix in="SourceAlpha" values="0 0 0 0 0 0 0 0 0 0 0 0 0 0 0 0 0 0 127 0"/><feOffset dy="4"/><feGaussianBlur stdDeviation="10"/><feColorMatrix values="0 0 0 0 0 0 0 0 0 0 0 0 0 0 0 0 0 0 0.25 0"/><feBlend in2="BackgroundImageFix" result="effect1_dropShadow"/><feBlend in="SourceGraphic" in2="effect1_dropShadow" result="shape"/><feColorMatrix in="SourceAlpha" values="0 0 0 0 0 0 0 0 0 0 0 0 0 0 0 0 0 0 127 0" result="hardAlpha"/><feOffset dy="4"/><feGaussianBlur stdDeviation="2"/><feComposite in2="hardAlpha" operator="arithmetic" k2="-1" k3="1"/><feColorMatrix values="0 0 0 0 0 0 0 0 0 0 0 0 0 0 0 0 0 0 0.19 0"/><feBlend mode="multiply" in2="shape" result="effect2_innerShadow"/></filter><filter id="filter1_d" x="69.944" y="67.45" width="223.59" height="223.59" filterUnits="userSpaceOnUse" color-interpolation-filters="sRGB"><feFlood flood-opacity="0" result="BackgroundImageFix"/><feColorMatrix in="SourceAlpha" values="0 0 0 0 0 0 0 0 0 0 0 0 0 0 0 0 0 0 127 0"/><feOffset dy="4"/><feGaussianBlur stdDeviation="10"/><feColorMatrix values="0 0 0 0 0 0 0 0 0 0 0 0 0 0 0 0 0 0 0.25 0"/><feBlend in2="BackgroundImageFix" result="effect1_dropShadow"/><feBlend in="SourceGraphic" in2="effect1_dropShadow" result="shape"/></filter></defs></svg>