<svg width="48" height="48" fill="none" xmlns="http://www.w3.org/2000/svg"><path d="M39.26 7.3a2 2 0 00-1.68-.4 16 16 0 01-12.44-2.54 2 2 0 00-2.28 0A16 16 0 0110.42 6.9 2 2 0 008 8.86v14.9a18 18 0 007.54 14.66l7.3 5.2a2 2 0 002.32 0l7.3-5.2A18 18 0 0040 23.76V8.86a2 2 0 00-.74-1.56zM36 23.76a14 14 0 01-5.86 11.4L24 39.54l-6.14-4.38A14 14 0 0112 23.76v-12.6a20 20 0 0012-2.78 20 20 0 0012 2.78v12.6zm-8.92-4.58l-5.38 5.4-1.78-1.8a2.008 2.008 0 10-2.84 2.84l3.2 3.2a1.998 1.998 0 002.84 0L30 22a2.008 2.008 0 10-2.84-2.84l-.08.02z" fill="#221F1F" fill-opacity=".6"/></svg>