<svg width="243" height="244" fill="none" xmlns="http://www.w3.org/2000/svg"><path d="M121.2 243.4c66.937 0 121.2-54.263 121.2-121.2C242.4 55.263 188.137 1 121.2 1 54.263 1 0 55.263 0 122.2c0 66.937 54.263 121.2 121.2 121.2z" fill="#89C142"/><path d="M121.634 122.534L78.639 8.785a121.57 121.57 0 0155.883-7.053c18.915 2.045 37.153 9.872 53.129 20.207l-66.017 100.595z" fill="#0D2333"/><path d="M121.176 123.054l.393.272-.011-.478-2.814-121.354-.006-.244-.244.006c-19.056.474-38.173 5.03-54.985 14.025C46.676 24.28 32.256 38.263 21.3 53.86l-.141.202.202.14 99.815 68.853z" fill="#FF0404" stroke="#FF0404" stroke-width=".488"/><path d="M119.195 210.396c48.927 0 88.59-39.663 88.59-88.591 0-48.927-39.663-88.59-88.59-88.59-48.928 0-88.591 39.663-88.591 88.59 0 48.928 39.663 88.591 88.591 88.591z" fill="url(#paint0_linear)"/><path d="M119.195 223.281c56.044 0 101.476-45.432 101.476-101.476S175.239 20.328 119.195 20.328 17.718 65.761 17.718 121.805c0 56.044 45.433 101.476 101.477 101.476z" fill="url(#paint1_linear)"/><path d="M119.195 208.785c48.927 0 88.59-39.664 88.59-88.591 0-48.927-39.663-88.59-88.59-88.59-48.928 0-88.591 39.663-88.591 88.59 0 48.927 39.663 88.591 88.591 88.591z" fill="url(#paint2_linear)"/><path d="M85.663 98.19c1.757 0 3.397.252 4.92.76 1.561.47 2.909 1.171 4.04 2.108a9.377 9.377 0 012.753 3.397c.664 1.328.996 2.87.996 4.627 0 2.225-.527 4.178-1.581 5.857-1.015 1.679-2.577 2.83-4.685 3.455v.117c.976.195 1.913.605 2.81 1.23a9.516 9.516 0 012.46 2.226 9.618 9.618 0 011.64 2.986c.43 1.133.645 2.343.645 3.632 0 2.069-.371 3.884-1.113 5.446a11.695 11.695 0 01-2.987 3.866c-1.25 1.054-2.733 1.854-4.451 2.401-1.718.507-3.534.761-5.447.761-1.952 0-3.787-.254-5.505-.761-1.679-.547-3.143-1.347-4.392-2.401a11.694 11.694 0 01-2.987-3.866c-.742-1.562-1.113-3.377-1.113-5.446 0-1.289.195-2.499.585-3.632.43-1.132.996-2.127 1.699-2.986a9.95 9.95 0 012.401-2.226c.937-.625 1.894-1.035 2.87-1.23v-.117c-2.109-.625-3.69-1.776-4.744-3.455-1.015-1.679-1.523-3.632-1.523-5.857 0-1.757.332-3.299.996-4.627.664-1.366 1.562-2.499 2.694-3.397 1.171-.937 2.518-1.639 4.041-2.108 1.562-.508 3.221-.76 4.978-.76zm0 5.972c-1.796 0-3.201.547-4.217 1.64-.976 1.093-1.464 2.421-1.464 3.983 0 1.64.508 3.026 1.523 4.158 1.015 1.093 2.401 1.64 4.158 1.64.781 0 1.503-.137 2.167-.41a5.948 5.948 0 001.816-1.23 5.391 5.391 0 001.23-1.874 5.56 5.56 0 00.468-2.284c0-1.562-.546-2.89-1.64-3.983-1.054-1.093-2.401-1.64-4.04-1.64zm0 17.043c-.937 0-1.835.156-2.694.469-.859.312-1.6.761-2.225 1.347a6.942 6.942 0 00-1.523 2.108c-.352.781-.527 1.64-.527 2.577 0 1.991.644 3.612 1.932 4.861 1.328 1.21 3.007 1.816 5.037 1.816s3.69-.606 4.978-1.816c1.328-1.249 1.992-2.87 1.992-4.861 0-.937-.196-1.796-.586-2.577a6.19 6.19 0 00-1.464-2.108 6.407 6.407 0 00-2.226-1.347 7.807 7.807 0 00-2.694-.469zm48.071-15.988h-16.691l-.176 8.257c.547-.195 1.23-.331 2.05-.41a26.65 26.65 0 012.401-.117c2.031 0 3.885.332 5.564.996 1.718.625 3.182 1.542 4.393 2.753 1.21 1.21 2.147 2.655 2.811 4.334.703 1.678 1.054 3.572 1.054 5.68 0 2.226-.391 4.237-1.171 6.033a12.736 12.736 0 01-3.163 4.509c-1.327 1.211-2.909 2.148-4.744 2.812-1.835.663-3.807.995-5.915.995-3.319 0-6.15-.781-8.492-2.342-2.304-1.562-3.944-3.944-4.92-7.146l7.38-1.991c.468 1.484 1.269 2.655 2.401 3.514s2.596 1.289 4.392 1.289c1.054 0 2.011-.176 2.87-.527.898-.352 1.659-.84 2.284-1.465a6.89 6.89 0 001.523-2.284c.351-.859.527-1.796.527-2.811 0-1.445-.273-2.674-.82-3.69a6.454 6.454 0 00-2.108-2.459c-.898-.664-1.933-1.133-3.104-1.406a14.286 14.286 0 00-3.69-.468c-1.523 0-3.046.175-4.568.527-1.484.351-2.85.839-4.1 1.464l.41-22.373h23.602v6.326zm7.739 13.86c0-.963.169-1.861.507-2.694a6.92 6.92 0 011.445-2.147 6.545 6.545 0 012.186-1.445 6.654 6.654 0 012.694-.546c.964 0 1.862.182 2.695.546.832.339 1.548.82 2.147 1.445a6.127 6.127 0 011.445 2.147c.364.833.546 1.731.546 2.694 0 .963-.182 1.861-.546 2.694a6.55 6.55 0 01-1.445 2.187 6.924 6.924 0 01-2.147 1.444 7.08 7.08 0 01-2.695.508 7.078 7.078 0 01-2.694-.508 7.42 7.42 0 01-2.186-1.444 7.448 7.448 0 01-1.445-2.187 7.097 7.097 0 01-.507-2.694zm2.811 0c0 .547.104 1.068.312 1.562.235.469.534.898.898 1.289.365.364.781.65 1.25.859a3.984 3.984 0 001.561.312c.547 0 1.055-.104 1.523-.312a4.015 4.015 0 001.289-.859c.364-.391.65-.82.859-1.289a3.606 3.606 0 00.351-1.562c0-.546-.117-1.054-.351-1.522a4.015 4.015 0 00-.859-1.289 3.72 3.72 0 00-1.289-.898 3.708 3.708 0 00-1.523-.312c-.546 0-1.067.104-1.561.312a3.826 3.826 0 00-1.25.898 4.599 4.599 0 00-.898 1.289 3.707 3.707 0 00-.312 1.522zm13.08 14.915c0-.963.169-1.861.507-2.694a6.92 6.92 0 011.445-2.147 6.54 6.54 0 012.186-1.445 6.656 6.656 0 012.695-.547c.963 0 1.861.183 2.694.547.833.338 1.548.82 2.147 1.445a6.127 6.127 0 011.445 2.147c.364.833.546 1.731.546 2.694 0 .963-.182 1.861-.546 2.694a6.55 6.55 0 01-1.445 2.187 6.93 6.93 0 01-2.147 1.444 7.078 7.078 0 01-2.694.508 7.08 7.08 0 01-2.695-.508 7.453 7.453 0 01-2.186-1.444 7.448 7.448 0 01-1.445-2.187 7.097 7.097 0 01-.507-2.694zm2.811 0c0 .547.104 1.067.312 1.562.235.469.534.898.898 1.288.365.365.781.651 1.25.859a3.969 3.969 0 001.562.313c.546 0 1.054-.104 1.522-.313a3.983 3.983 0 001.289-.859c.364-.39.65-.819.859-1.288a3.61 3.61 0 00.351-1.562c0-.546-.117-1.054-.351-1.523a4.01 4.01 0 00-.859-1.288 3.72 3.72 0 00-1.289-.898 3.707 3.707 0 00-1.522-.312c-.547 0-1.068.104-1.562.312a3.826 3.826 0 00-1.25.898 4.594 4.594 0 00-.898 1.288 3.715 3.715 0 00-.312 1.523zm3.787-22.528l2.148 1.249-17.336 28.893-2.147-1.25 17.335-28.892z" fill="url(#paint3_linear)"/><defs><linearGradient id="paint0_linear" x1="-68.304" y1="-32.352" x2="195.522" y2="185.285" gradientUnits="userSpaceOnUse"><stop stop-color="#C7C7C7"/><stop offset=".964" stop-color="#fff"/></linearGradient><linearGradient id="paint1_linear" x1="119.191" y1="223.268" x2="119.191" y2="20.318" gradientUnits="userSpaceOnUse"><stop stop-color="#C7C7C7"/><stop offset=".123" stop-color="#D9D9D9"/><stop offset=".283" stop-color="#EAEAEA"/><stop offset=".459" stop-color="#F4F4F4"/><stop offset=".68" stop-color="#F7F7F7"/></linearGradient><linearGradient id="paint2_linear" x1="-68.304" y1="-33.964" x2="195.522" y2="183.673" gradientUnits="userSpaceOnUse"><stop stop-color="#C7C7C7"/><stop offset=".964" stop-color="#fff"/></linearGradient><linearGradient id="paint3_linear" x1="68.328" y1="122.199" x2="174.072" y2="122.199" gradientUnits="userSpaceOnUse"><stop stop-color="#3080CF"/><stop offset="1" stop-color="#263A73"/></linearGradient></defs></svg>