<svg width="86" height="86" fill="none" xmlns="http://www.w3.org/2000/svg"><path d="M1.77 43c0 22.731 18.499 41.23 41.23 41.23 22.752 0 41.23-18.5 41.23-41.23C84.23 20.269 65.732 1.77 43 1.77 20.269 1.77 1.77 20.268 1.77 43zm5.907 0C7.677 23.516 23.536 7.677 43 7.677c19.484 0 35.323 15.839 35.323 35.323S62.464 78.323 43 78.323C23.516 78.323 7.677 62.464 7.677 43z" fill="#D1D1D6" stroke="#D1D1D6" stroke-width="2.462"/><path d="M76.061 63.025l.01.005.01.004c.38.17.826.274 1.264.274 1.094 0 2.193-.576 2.718-1.673 2.771-5.66 4.168-11.752 4.168-18.072 0-23.062-19.103-41.794-42.529-41.794-1.623 0-3.01 1.29-3.01 2.978 0 1.648 1.346 2.978 3.01 2.978 20.16 0 36.51 16.111 36.51 35.838a34.86 34.86 0 01-3.58 15.473c-.74 1.495-.06 3.292 1.43 3.99z" fill="url(#paint0_linear)" stroke="url(#paint1_linear)" stroke-width="2.462"/><path d="M23.18 48.46l5.5-5.32.5-.5a4.64 4.64 0 00.46-.58c.147-.2.267-.407.36-.62.093-.227.14-.46.14-.7 0-.293-.06-.553-.18-.78a1.717 1.717 0 00-.44-.58 1.863 1.863 0 00-.66-.36 2.14 2.14 0 00-.78-.14c-.6 0-1.093.173-1.48.52-.387.347-.62.813-.7 1.4l-2.52-.2c.053-.653.207-1.227.46-1.72a3.968 3.968 0 011.02-1.26 4.373 4.373 0 011.44-.76 5.862 5.862 0 011.78-.26c.64 0 1.233.087 1.78.26.56.16 1.047.407 1.46.74.413.32.74.733.98 1.24s.36 1.1.36 1.78c0 .893-.207 1.667-.62 2.32-.4.64-.92 1.253-1.56 1.84l-4.38 4.06h6.56V51h-9.48v-2.54zM43.936 39h-5.7l-.06 2.82c.187-.067.42-.113.7-.14.293-.027.567-.04.82-.04.693 0 1.327.113 1.9.34a4.042 4.042 0 011.5.94 4.3 4.3 0 01.96 1.48c.24.573.36 1.22.36 1.94 0 .76-.133 1.447-.4 2.06a4.352 4.352 0 01-1.08 1.54 4.793 4.793 0 01-1.62.96c-.627.227-1.3.34-2.02.34-1.133 0-2.1-.267-2.9-.8-.787-.533-1.347-1.347-1.68-2.44l2.52-.68c.16.507.433.907.82 1.2.387.293.887.44 1.5.44.36 0 .687-.06.98-.18a2.24 2.24 0 00.78-.5c.227-.227.4-.487.52-.78.12-.293.18-.613.18-.96 0-.493-.093-.913-.28-1.26a2.204 2.204 0 00-.72-.84 2.849 2.849 0 00-1.06-.48c-.4-.107-.82-.16-1.26-.16-.52 0-1.04.06-1.56.18-.507.12-.973.287-1.4.5l.14-7.64h8.06V39zm11.836 8.52c0-.52.093-1 .28-1.44.2-.453.467-.847.8-1.18a3.7 3.7 0 011.18-.8c.453-.2.94-.3 1.46-.3s1 .1 1.44.3a3.43 3.43 0 011.18.8c.346.333.613.727.8 1.18.2.44.3.92.3 1.44 0 .52-.1 1.007-.3 1.46-.187.44-.453.833-.8 1.18-.334.333-.727.6-1.18.8-.44.187-.92.28-1.44.28a3.79 3.79 0 01-1.46-.28c-.44-.2-.833-.467-1.18-.8-.333-.347-.6-.74-.8-1.18a3.796 3.796 0 01-.28-1.46zm5.52 0a1.74 1.74 0 00-.52-1.28 1.74 1.74 0 00-1.28-.52 1.74 1.74 0 00-1.28.52 1.74 1.74 0 00-.52 1.28c0 .507.173.933.52 1.28.346.347.773.52 1.28.52a1.74 1.74 0 001.28-.52 1.74 1.74 0 00.52-1.28zm-15.02-7.2c0-.52.093-1 .28-1.44.2-.453.467-.847.8-1.18a3.7 3.7 0 011.18-.8c.453-.2.94-.3 1.46-.3s1 .1 1.44.3a3.43 3.43 0 011.18.8c.346.333.613.727.8 1.18.2.44.3.92.3 1.44 0 .52-.1 1.007-.3 1.46-.187.44-.453.833-.8 1.18-.334.333-.727.6-1.18.8-.44.187-.92.28-1.44.28a3.79 3.79 0 01-1.46-.28c-.44-.2-.833-.467-1.18-.8-.333-.347-.6-.74-.8-1.18a3.796 3.796 0 01-.28-1.46zm5.52 0a1.74 1.74 0 00-.52-1.28 1.74 1.74 0 00-1.28-.52 1.74 1.74 0 00-1.28.52 1.74 1.74 0 00-.52 1.28c0 .507.173.933.52 1.28.346.347.773.52 1.28.52a1.74 1.74 0 001.28-.52 1.74 1.74 0 00.52-1.28zm6.3-4.12l1.66.76-8.32 14.68-1.66-.76 8.32-14.68z" fill="#221F1F"/><defs><linearGradient id="paint0_linear" x1="39.923" y1="32.538" x2="83" y2="32.538" gradientUnits="userSpaceOnUse"><stop stop-color="#56AB2F"/><stop offset="1" stop-color="#93D642"/></linearGradient><linearGradient id="paint1_linear" x1="39.923" y1="32.538" x2="83" y2="32.538" gradientUnits="userSpaceOnUse"><stop stop-color="#56AB2F"/><stop offset="1" stop-color="#93D642"/></linearGradient></defs></svg>