<svg width="522" height="319" fill="none" xmlns="http://www.w3.org/2000/svg"><g clip-path="url(#clip0)"><path d="M63.08 319l-.896-.202c9.988-44.418 35.09-84.755 70.68-113.578a203.892 203.892 0 01326.952 113.036l-.895.204c-21.143-92.835-102.506-157.672-197.86-157.672-94.104 0-177.367 66.538-197.981 158.212z" fill="#3F3D56"/><path d="M191.507 57.59c13.772 0 24.936-11.164 24.936-24.936S205.279 7.717 191.507 7.717s-24.936 11.165-24.936 24.937c0 13.772 11.164 24.936 24.936 24.936z" fill="#DC3737"/><path d="M84.076 313.335c.778 2.875 3.441 4.656 3.441 4.656s1.403-2.881.625-5.756c-.777-2.875-3.441-4.655-3.441-4.655s-1.403 2.88-.625 5.755z" fill="#3F3D56"/><path d="M85.219 312.717c2.134 2.078 2.394 5.271 2.394 5.271s-3.199-.175-5.333-2.252c-2.134-2.077-2.395-5.271-2.395-5.271s3.2.175 5.334 2.252z" fill="#89C142"/><path d="M143.3 313.335c.778 2.875 3.442 4.656 3.442 4.656s1.402-2.881.625-5.756c-.778-2.875-3.442-4.655-3.442-4.655s-1.403 2.88-.625 5.755z" fill="#3F3D56"/><path d="M144.443 312.717c2.134 2.078 2.394 5.271 2.394 5.271s-3.199-.175-5.333-2.252c-2.134-2.077-2.395-5.271-2.395-5.271s3.2.175 5.334 2.252z" fill="#89C142"/><path d="M155.044 84.341l-9.377-7.501 52.509-46.883h133.149v41.257l-86.265 58.135-90.016-45.007z" fill="url(#paint0_linear)"/><path d="M355.601 56.255V30.893h-17.678v6.211l-6.598-7.147-43.133 46.883-16.878 11.252-26.17 191.199 39.468 39.467h91.721V78.715l-20.732-22.46z" fill="#0D2333"/><path d="M288.192 76.84H145.667v241.918h142.525V76.84z" fill="#0D2333"/><path d="M227.244 259.685h-26.255v59.073h26.255v-59.073z" fill="#fff" fill-opacity=".1"/><path d="M172.859 276.563v-9.377h-11.252v9.377h11.252zm-.937 7.501h-10.315v9.377h11.252v-9.377h-.937zm19.691-16.878h-11.252v9.377h11.252v-9.377zm0 16.878h-11.252v9.377h11.252v-9.377zm58.135-7.501v-9.377h-11.252v9.377h11.252zm-.938 7.501h-10.314v9.377h11.252v-9.377h-.938zm19.691-16.878h-11.252v9.377h11.252v-9.377zm0 16.878h-11.252v9.377h11.252v-9.377zM328.512 89.03v-9.377H317.26v9.376h11.252zm-.937 7.501H317.26v9.377h11.252v-9.377h-.937zm19.69-16.878h-11.252v9.377h11.252v-9.377zm0 16.878h-11.252v9.377h11.252v-9.377zm-18.753 45.008v-9.377H317.26v9.377h11.252zm-.937 7.501H317.26v9.377h11.252v-9.377h-.937zm19.69-16.878h-11.252v9.377h11.252v-9.377zm0 16.878h-11.252v9.377h11.252v-9.377zm-18.753 45.008v-9.376H317.26v9.376h11.252zm-.937 7.502H317.26v9.376h11.252v-9.376h-.937zm19.69-16.878h-11.252v9.376h11.252v-9.376zm0 16.878h-11.252v9.376h11.252v-9.376zm-18.753 45.008v-9.377H317.26v9.377h11.252zm-.937 7.501H317.26v9.377h11.252v-9.377h-.937zm19.69-16.878h-11.252v9.377h11.252v-9.377zm0 16.878h-11.252v9.377h11.252v-9.377zM270.377 89.03h-108.77v22.504h108.77V89.03zm0 45.008h-108.77v22.504h108.77v-22.504zm0 45.008h-108.77v22.504h108.77v-22.504zm0 45.008h-108.77v22.504h108.77v-22.504zM522 317.814H0v.918h522v-.918z" fill="#3F3D56"/><path d="M116.411 211.801h-2.697v106.536h2.697V211.801z" fill="#3F3D56"/><path opacity=".5" d="M141.302 225.378c.172 37.253-26.038 67.574-26.038 67.574s-26.487-30.078-26.66-67.332c-.17-37.253 26.039-67.574 26.039-67.574s26.488 30.078 26.659 67.332z" fill="url(#paint1_linear)"/><path d="M55.05 211.801h-2.697v106.536h2.697V211.801z" fill="#3F3D56"/><path opacity=".5" d="M79.941 225.378c.172 37.253-26.038 67.574-26.038 67.574s-26.487-30.078-26.66-67.332c-.17-37.253 26.039-67.574 26.039-67.574s26.488 30.078 26.66 67.332z" fill="url(#paint2_linear)"/><path d="M434.107 76.69c-21.246.097-38.539.411-38.539.411s20.556-27.228 38.462-17.14c17.906 10.088 38.476 16.786 38.476 16.786s-17.153-.156-38.399-.058zM80.138 129.027c-21.245.098-38.539.412-38.539.412s20.556-27.228 38.462-17.14c17.907 10.087 38.476 16.785 38.476 16.785s-17.153-.155-38.399-.057zM130.969 19.76c-21.245.098-38.539.412-38.539.412s20.556-27.228 38.462-17.14c17.907 10.088 38.476 16.786 38.476 16.786s-17.153-.155-38.399-.057z" fill="#fff" fill-opacity=".25"/><path d="M477.884 211.801h-2.697v106.536h2.697V211.801z" fill="#3F3D56"/><path opacity=".5" d="M502.775 225.378c.172 37.253-26.038 67.574-26.038 67.574s-26.488-30.078-26.659-67.332c-.172-37.253 26.037-67.574 26.037-67.574s26.488 30.078 26.66 67.332z" fill="url(#paint3_linear)"/><path d="M378.607 252.208h27.22v-6.57h15.017v6.57h28.159v29.097h-28.159v36.606h-15.017v-36.606h-27.22l-14.079-15.956 14.079-13.141z" fill="#3F3D56"/></g><defs><linearGradient id="paint0_linear" x1="145.667" y1="79.653" x2="331.325" y2="79.653" gradientUnits="userSpaceOnUse"><stop stop-color="#3080CF"/><stop offset="1" stop-color="#263A73"/></linearGradient><linearGradient id="paint1_linear" x1="88.604" y1="225.499" x2="141.303" y2="225.499" gradientUnits="userSpaceOnUse"><stop stop-color="#56AB2F"/><stop offset="1" stop-color="#93D642"/></linearGradient><linearGradient id="paint2_linear" x1="27.243" y1="225.499" x2="79.942" y2="225.499" gradientUnits="userSpaceOnUse"><stop stop-color="#56AB2F"/><stop offset="1" stop-color="#93D642"/></linearGradient><linearGradient id="paint3_linear" x1="450.077" y1="225.499" x2="502.776" y2="225.499" gradientUnits="userSpaceOnUse"><stop stop-color="#56AB2F"/><stop offset="1" stop-color="#93D642"/></linearGradient><clipPath id="clip0"><path fill="#fff" transform="translate(0 .79)" d="M0 0h522v318.21H0z"/></clipPath></defs></svg>